<svg xmlns="http://www.w3.org/2000/svg" viewBox="0 0 400 400" width="400px" height="400px"><g transform="translate(200.0 200.0)"><path fill="#db45f9" d="M 0.00,-150.00 A 150.00 150.00 0 0 1 15.78,149.17 L 5.26,49.72 A 50.00 50.00 0 0 0 0.00,-50.00 Z" /><path fill="#f98145" d="M 15.78,149.17 A 150.00 150.00 0 0 1 -145.61,36.02 L -48.54,12.01 A 50.00 50.00 0 0 0 5.26,49.72 Z" /><path fill="#63f945" d="M -145.61,36.02 A 150.00 150.00 0 0 1 -103.23,-108.82 L -34.41,-36.27 A 50.00 50.00 0 0 0 -48.54,12.01 Z" /><path fill="#45bdf9" d="M -103.23,-108.82 A 150.00 150.00 0 0 1 -0.00,-150.00 L -0.00,-50.00 A 50.00 50.00 0 0 0 -34.41,-36.27 Z" /></g></svg>