<svg stroke="currentColor" fill="currentColor" stroke-width="0" viewBox="0 0 16 16">
<path d="M 8,0.23203771 1.2708502,4.1166743 V 7.586584 H 2.0757403 V 4.5814695 L 8,1.1606847 13.924259,4.5814695 V 7.586584 h 0.80489 V 4.1166743 Z" />
<path d="m 8,3.6329842 c -2.4076366,0 -4.3683267,1.9606901 -4.3683267,4.368326 0,1.0499591 0.3736113,2.0145218 0.9938323,2.7689368 L 4.9523743,9.845379 C 4.6268573,9.3073839 4.436564,8.6780482 4.436564,8.0013102 4.436564,6.0283899 6.027079,4.4378742 8,4.4378742 c 1.9729204,0 3.563435,1.5905157 3.563435,3.563436 0,0.676738 -0.190293,1.3060737 -0.515809,1.8440688 l 0.326868,0.924868 c 0.620221,-0.754415 0.993832,-1.7189777 0.993832,-2.7689368 0,-2.4076359 -1.96069,-4.3683267 -4.368326,-4.368326 z" />
<path d="m 4.5647296,15.767884 2.0103367,-5.68462 0.979439,5.684633 0.8166682,-0.0019 L 7.1003242,8.3914521 H 6.3187358 L 4.1855869,14.427689 2.052438,8.3914521 H 1.2708502 L 2e-7,15.765962 l 0.81666821,0.0019 0.97943899,-5.684633 2.0103367,5.68462 z" />
<path d="m 12.193555,15.767884 2.010337,-5.68462 0.979438,5.684633 L 16,15.765962 14.729149,8.3914521 H 13.947561 L 11.814413,14.427689 9.6812637,8.3914521 H 8.8996758 l -1.2708506,7.3745099 0.8166683,0.002 0.9794395,-5.684632 2.010337,5.684619 z" />
</svg>
