<svg stroke="currentColor" fill="currentColor" stroke-width="0" viewBox="0 0 16 16">
<path d="M 1.2243149,11.312034 V 0.3537872 c 0,-0.47171662 3.2133726,-0.47171662 3.2133726,0 V 11.275667 c 0.038589,1.391853 0.8362299,2.107621 2.6118885,2.188801 0.3456227,0 0.3456227,2.535532 0,2.535532 -2.5872928,0 -5.8252611,-1.272498 -5.8252611,-4.687966 z" />
<path d="M 9.0151601,16 C 12.286758,15.9977 14.766446,14.194112 14.775658,11.101887 14.784658,8.0882805 12.485826,7.1827295 10.791465,6.4316093 9.6750417,5.9366938 8.1559684,5.3529148 8.1229508,4.0958595 8.089931,2.8388043 9.1956669,2.5059896 10.318156,2.4898791 c 1.24952,-0.017939 2.35918,0.6351356 3.134465,1.0460205 0.333368,0.1766787 0.80108,-1.909061 0.109685,-2.62234708 C 12.969839,0.30232534 11.507764,0.01488162 9.9750266,0.01430271 6.3231448,0.01292984 4.9375194,2.3766199 4.917302,4.4194486 4.894588,6.7146645 6.6302121,8.1331941 8.4220755,8.9015433 c 1.235865,0.5299374 3.0428875,0.956338 3.0526165,2.6331567 0.007,1.208881 -1.112249,1.929768 -2.4595319,1.929768 -0.4639212,0 -0.4729202,2.535532 0,2.535532 z" />
</svg>
