<svg stroke="currentColor" fill="currentColor" stroke-width="0" viewBox="0 0 16 16">
<path d="M 8.4671319,6.1991107 H 7.5328685 V 12.263022 H 8.4671319 V 6.1991107" />
<path d="M 6.5989047,6.1991107 H 5.6647163 V 12.263022 H 6.5989047 V 6.1991107" />
<path d="M 4.7307525,6.1991107 H 3.7964891 V 12.263022 H 4.7307525 V 6.1991107" />
<path d="M 2.8626002,6.1991107 H 1.9283368 V 12.263022 H 2.8626002 V 6.1991107" />
<path d="M 10.335284,6.1991107 H 9.4010957 V 12.263022 H 10.335284 V 6.1991107" />
<path d="m 12.203511,6.1991107 h -0.934263 v 6.0639113 h 0.934263 V 6.1991107" />
<path d="M 14.071664,6.1991107 H 13.1374 v 6.0639113 h 0.934264 V 6.1991107" />
<path d="M 15.028173,14.131773 H 0.97182731 V 13.196985 H 15.028173 v 0.934788" />
<path d="M 14.071664,5.2648473 H 1.9283368 L 0.99437307,4.3309584 H 15.005627 l -0.933963,0.9338889" />
<path d="M 15.962062,16 H 0.03793844 V 15.065138 H 15.962062 V 16" />
<path d="M 15.962062,2.8200179 7.9998879,7.5076002e-8 0.03793844,2.8200179 V 3.8118816 L 7.9998879,0.99246298 15.962062,3.8118816 V 2.8200179" />
</svg>
