<?xml version="1.0" encoding="UTF-8" standalone="no"?>
<!-- Created with Inkscape (http://www.inkscape.org/) -->

<svg
   width="266.664mm"
   height="100mm"
   viewBox="0 0 266.664 100"
   version="1.1"
   id="svg1"
   inkscape:version="1.4 (86a8ad7, 2024-10-11)"
   sodipodi:docname="logo.svg"
   xmlns:inkscape="http://www.inkscape.org/namespaces/inkscape"
   xmlns:sodipodi="http://sodipodi.sourceforge.net/DTD/sodipodi-0.dtd"
   xmlns="http://www.w3.org/2000/svg"
   xmlns:svg="http://www.w3.org/2000/svg">
  <sodipodi:namedview
     id="namedview1"
     pagecolor="#ffffff"
     bordercolor="#000000"
     borderopacity="0.25"
     inkscape:showpageshadow="2"
     inkscape:pageopacity="0.0"
     inkscape:pagecheckerboard="0"
     inkscape:deskcolor="#d1d1d1"
     inkscape:document-units="mm"
     showguides="true"
     inkscape:zoom="0.75811588"
     inkscape:cx="397.03693"
     inkscape:cy="-8.5738871"
     inkscape:window-width="1920"
     inkscape:window-height="1111"
     inkscape:window-x="-9"
     inkscape:window-y="-9"
     inkscape:window-maximized="1"
     inkscape:current-layer="layer1" />
  <defs
     id="defs1">
    <clipPath
       clipPathUnits="userSpaceOnUse"
       id="clipPath3">
      <path
         d="M 0,595.276 H 841.89 V 0 H 0 Z"
         transform="translate(-750.56739,-439.37011)"
         id="path3" />
    </clipPath>
    <clipPath
       clipPathUnits="userSpaceOnUse"
       id="clipPath5">
      <path
         d="M 0,595.276 H 841.89 V 0 H 0 Z"
         transform="translate(-115.9813,-391.36051)"
         id="path5" />
    </clipPath>
    <clipPath
       clipPathUnits="userSpaceOnUse"
       id="clipPath7">
      <path
         d="M 0,595.276 H 841.89 V 0 H 0 Z"
         transform="translate(-66.342701,-439.37011)"
         id="path7" />
    </clipPath>
    <clipPath
       clipPathUnits="userSpaceOnUse"
       id="clipPath9">
      <path
         d="M 0,595.276 H 841.89 V 0 H 0 Z"
         transform="translate(-232.5115,-439.37011)"
         id="path9" />
    </clipPath>
  </defs>
  <g
     inkscape:label="Layer 1"
     inkscape:groupmode="layer"
     id="layer1">
    <path
       id="path1"
       d="m 191.57085,1.362576e-4 7.65422,8.2461840424 0.0173,82.7415497 8.42045,9.01241 H 182.37534 V 16.85833 h -8.0458 V 50.19159 H 157.47135 V 16.85833 h -8.04615 v 83.14195 h -25.28747 l 8.42081,-9.01241 -0.20038,-40.77899 -8.42045,-8.43774 -33.126185,-0.20708 -7.854245,-7.8546 -0.190147,-8.60495 8.62083,-8.62083 41.179047,-0.008 V 8.2383203 l 8.04615,-8.2377140424 z"
       style="display:inline;fill:#000000;fill-opacity:1;fill-rule:nonzero;stroke:none;stroke-width:0.352778" />
    <path
       id="path2"
       d="m 0,0 -0.222,-213.191 -23.351,-23.35 c -9.428,1.297 -42.264,-2.906 -48.71,0.804 -1.298,0.747 -20.433,19.88 -21.178,21.179 -0.417,0.726 -1.008,1.336 -1.003,2.255 L -94.488,0 Z"
       style="display:inline;fill:#000000;fill-opacity:1;fill-rule:nonzero;stroke:none"
       transform="matrix(0.35277776,0,0,-0.35277776,249.04208,1.365152e-4)"
       clip-path="url(#clipPath3)" />
    <path
       id="path4"
       d="M 0,0 -23.351,-23.351 -23.01,-70.352 0,-92.957 l 45.916,0.34 22.605,23.01 L 68.18,-22.605 45.17,0 Z m 94.809,48.01 h 21.721 23.894 L 117.64,23.549 117.839,-93.5 l 24.238,-23.549 91.263,0.033 c 1.312,0.139 2.199,-0.474 3.26,-1.084 1.332,-0.765 21.007,-20.402 21.643,-21.801 1.261,-2.777 1.018,-22.979 -0.464,-25.562 l -22.324,-23.291 H 117.616 v -46.701 H 68.743 l -0.563,71.661 -21.924,21.519 -48.707,-0.807 -20.9,-22.544 -0.222,-69.829 H -71.36 V 26.288 l 21.721,21.722 z"
       style="display:inline;fill:#000000;fill-opacity:1;fill-rule:nonzero;stroke:none"
       transform="matrix(0.35277776,0,0,-0.35277776,25.174221,16.93686)"
       clip-path="url(#clipPath5)" />
  </g>
</svg>
