<svg xmlns="http://www.w3.org/2000/svg" viewBox="-1.25 -1.3 2.5 2.5" width="150.0" height="150.0"><circle cx="0.609" cy="-0.442" r="0.075" fill="white"/><circle cx="0.492" cy="-0.566" r="0.075" fill="white"/><circle cx="0.35" cy="-0.658" r="0.075" fill="white"/><circle cx="0.192" cy="-0.716" r="0.075" fill="white"/><circle cx="0.026" cy="-0.734" r="0.075" fill="white"/><circle cx="-0.138" cy="-0.713" r="0.075" fill="white"/><circle cx="-0.29" cy="-0.654" r="0.075" fill="white"/><circle cx="-0.42" cy="-0.559" r="0.075" fill="white"/><circle cx="-0.516" cy="-0.436" r="0.075" fill="white"/><circle cx="-0.569" cy="-0.295" r="0.075" fill="white"/><circle cx="-0.566" cy="-0.152" r="0.075" fill="white"/><circle cx="-0.505" cy="-0.031" r="0.075" fill="white"/><circle cx="-0.406" cy="0.04" r="0.075" fill="white"/><circle cx="-0.311" cy="0.066" r="0.075" fill="white"/><circle cx="-0.236" cy="0.069" r="0.075" fill="white"/><circle cx="-0.18" cy="0.064" r="0.075" fill="white"/><circle cx="-0.138" cy="0.056" r="0.075" fill="white"/><circle cx="-0.106" cy="0.047" r="0.075" fill="white"/><circle cx="-0.079" cy="0.038" r="0.075" fill="white"/><circle cx="-0.055" cy="0.029" r="0.075" fill="white"/><circle cx="-0.035" cy="0.019" r="0.075" fill="white"/><circle cx="-0.019" cy="0.011" r="0.075" fill="white"/><circle cx="-0.007" cy="0.005" r="0.075" fill="white"/><circle cx="-0.001" cy="0.001" r="0.075" fill="white"/><circle cx="0.729" cy="-0.529" r="0.052" fill="white"/><circle cx="0.646" cy="-0.624" r="0.052" fill="white"/><circle cx="0.552" cy="-0.706" r="0.052" fill="white"/><circle cx="0.447" cy="-0.774" r="0.052" fill="white"/><circle cx="0.333" cy="-0.825" r="0.052" fill="white"/><circle cx="0.214" cy="-0.86" r="0.052" fill="white"/><circle cx="0.092" cy="-0.877" r="0.052" fill="white"/><circle cx="-0.031" cy="-0.876" r="0.052" fill="white"/><circle cx="-0.151" cy="-0.857" r="0.052" fill="white"/><circle cx="-0.266" cy="-0.821" r="0.052" fill="white"/><circle cx="-0.374" cy="-0.767" r="0.052" fill="white"/><circle cx="-0.47" cy="-0.698" r="0.052" fill="white"/><circle cx="-0.553" cy="-0.616" r="0.052" fill="white"/><circle cx="-0.618" cy="-0.522" r="0.052" fill="white"/><circle cx="-0.664" cy="-0.42" r="0.052" fill="white"/><circle cx="-0.686" cy="-0.313" r="0.052" fill="white"/><circle cx="-0.683" cy="-0.209" r="0.052" fill="white"/><circle cx="-0.654" cy="-0.113" r="0.052" fill="white"/><circle cx="-0.602" cy="-0.034" r="0.052" fill="white"/><circle cx="-0.535" cy="0.022" r="0.052" fill="white"/><circle cx="-0.465" cy="0.057" r="0.052" fill="white"/><circle cx="-0.399" cy="0.075" r="0.052" fill="white"/><circle cx="-0.341" cy="0.082" r="0.052" fill="white"/><circle cx="-0.292" cy="0.083" r="0.052" fill="white"/><circle cx="-0.249" cy="0.081" r="0.052" fill="white"/><circle cx="-0.211" cy="0.076" r="0.052" fill="white"/><circle cx="-0.174" cy="0.069" r="0.052" fill="white"/><circle cx="-0.138" cy="0.06" r="0.052" fill="white"/><circle cx="-0.104" cy="0.049" r="0.052" fill="white"/><circle cx="-0.074" cy="0.038" r="0.052" fill="white"/><circle cx="-0.048" cy="0.027" r="0.052" fill="white"/><circle cx="-0.027" cy="0.016" r="0.052" fill="white"/><circle cx="-0.012" cy="0.008" r="0.052" fill="white"/><circle cx="-0.003" cy="0.002" r="0.052" fill="white"/><circle cx="-0.0" cy="0.0" r="0.052" fill="white"/><circle cx="0.843" cy="-0.613" r="0.068" fill="white"/><circle cx="0.74" cy="-0.73" r="0.068" fill="white"/><circle cx="0.62" cy="-0.831" r="0.068" fill="white"/><circle cx="0.487" cy="-0.911" r="0.068" fill="white"/><circle cx="0.343" cy="-0.97" r="0.068" fill="white"/><circle cx="0.193" cy="-1.005" r="0.068" fill="white"/><circle cx="0.039" cy="-1.017" r="0.068" fill="white"/><circle cx="-0.113" cy="-1.004" r="0.068" fill="white"/><circle cx="-0.26" cy="-0.967" r="0.068" fill="white"/><circle cx="-0.397" cy="-0.908" r="0.068" fill="white"/><circle cx="-0.521" cy="-0.826" r="0.068" fill="white"/><circle cx="-0.628" cy="-0.726" r="0.068" fill="white"/><circle cx="-0.712" cy="-0.61" r="0.068" fill="white"/><circle cx="-0.769" cy="-0.483" r="0.068" fill="white"/><circle cx="-0.795" cy="-0.35" r="0.068" fill="white"/><circle cx="-0.787" cy="-0.22" r="0.068" fill="white"/><circle cx="-0.743" cy="-0.104" r="0.068" fill="white"/><circle cx="-0.67" cy="-0.013" r="0.068" fill="white"/><circle cx="-0.583" cy="0.046" r="0.068" fill="white"/><circle cx="-0.497" cy="0.079" r="0.068" fill="white"/><circle cx="-0.42" cy="0.093" r="0.068" fill="white"/><circle cx="-0.353" cy="0.097" r="0.068" fill="white"/><circle cx="-0.298" cy="0.094" r="0.068" fill="white"/><circle cx="-0.251" cy="0.089" r="0.068" fill="white"/><circle cx="-0.207" cy="0.081" r="0.068" fill="white"/><circle cx="-0.166" cy="0.071" r="0.068" fill="white"/><circle cx="-0.126" cy="0.059" r="0.068" fill="white"/><circle cx="-0.091" cy="0.046" r="0.068" fill="white"/><circle cx="-0.06" cy="0.033" r="0.068" fill="white"/><circle cx="-0.035" cy="0.021" r="0.068" fill="white"/><circle cx="-0.016" cy="0.01" r="0.068" fill="white"/><circle cx="-0.005" cy="0.003" r="0.068" fill="white"/><circle cx="-0.0" cy="0.0" r="0.068" fill="white"/><circle cx="0.976" cy="-0.709" r="0.075" fill="white"/><circle cx="0.864" cy="-0.837" r="0.075" fill="white"/><circle cx="0.735" cy="-0.948" r="0.075" fill="white"/><circle cx="0.592" cy="-1.039" r="0.075" fill="white"/><circle cx="0.438" cy="-1.108" r="0.075" fill="white"/><circle cx="0.276" cy="-1.154" r="0.075" fill="white"/><circle cx="0.11" cy="-1.175" r="0.075" fill="white"/><circle cx="-0.056" cy="-1.172" r="0.075" fill="white"/><circle cx="-0.219" cy="-1.144" r="0.075" fill="white"/><circle cx="-0.374" cy="-1.091" r="0.075" fill="white"/><circle cx="-0.518" cy="-1.016" r="0.075" fill="white"/><circle cx="-0.647" cy="-0.92" r="0.075" fill="white"/><circle cx="-0.755" cy="-0.806" r="0.075" fill="white"/><circle cx="-0.84" cy="-0.676" r="0.075" fill="white"/><circle cx="-0.897" cy="-0.536" r="0.075" fill="white"/><circle cx="-0.921" cy="-0.391" r="0.075" fill="white"/><circle cx="-0.91" cy="-0.251" r="0.075" fill="white"/><circle cx="-0.862" cy="-0.125" r="0.075" fill="white"/><circle cx="-0.785" cy="-0.025" r="0.075" fill="white"/><circle cx="-0.692" cy="0.044" r="0.075" fill="white"/><circle cx="-0.598" cy="0.084" r="0.075" fill="white"/><circle cx="-0.512" cy="0.104" r="0.075" fill="white"/><circle cx="-0.436" cy="0.111" r="0.075" fill="white"/><circle cx="-0.372" cy="0.111" r="0.075" fill="white"/><circle cx="-0.317" cy="0.106" r="0.075" fill="white"/><circle cx="-0.266" cy="0.099" r="0.075" fill="white"/><circle cx="-0.216" cy="0.088" r="0.075" fill="white"/><circle cx="-0.169" cy="0.075" r="0.075" fill="white"/><circle cx="-0.126" cy="0.061" r="0.075" fill="white"/><circle cx="-0.087" cy="0.046" r="0.075" fill="white"/><circle cx="-0.055" cy="0.031" r="0.075" fill="white"/><circle cx="-0.029" cy="0.018" r="0.075" fill="white"/><circle cx="-0.011" cy="0.007" r="0.075" fill="white"/><circle cx="-0.002" cy="0.001" r="0.075" fill="white"/><polygon stroke="white" stroke-width="0.15" points="0.0 -0.0 0.003 -0.002 0.012 -0.007 0.026 -0.015 0.046 -0.025 0.071 -0.036 0.1 -0.047 0.132 -0.057 0.166 -0.065 0.201 -0.072 0.238 -0.076 0.274 -0.079 0.309 -0.078 0.344 -0.075 0.377 -0.07 0.409 -0.063 0.438 -0.053 0.466 -0.042 0.492 -0.028 0.515 -0.013 0.537 0.003 0.556 0.021 0.573 0.04 0.589 0.06 0.602 0.081 0.614 0.102 0.624 0.124 0.632 0.147 0.638 0.17 0.643 0.193 0.646 0.217 0.648 0.24 0.648 0.264 0.647 0.288 0.644 0.312 0.641 0.335 0.635 0.359 0.629 0.382 0.622 0.405 0.613 0.428 0.603 0.45 0.593 0.472 0.581 0.494 0.568 0.515 0.554 0.535 0.54 0.555 0.524 0.575 0.508 0.594 0.491 0.612 0.473 0.63 0.455 0.647 0.435 0.664 0.416 0.679 0.395 0.694 0.374 0.709 0.352 0.722 0.33 0.735 0.307 0.747 0.284 0.758 0.261 0.769 0.237 0.778 0.212 0.787 0.188 0.795 0.163 0.802 0.137 0.808 0.112 0.814 0.086 0.818 0.06 0.822 0.034 0.825 0.008 0.826 -0.018 0.827 -0.045 0.828 -0.071 0.827 -0.097 0.825 -0.124 0.823 -0.15 0.819 -0.176 0.815 -0.202 0.81 -0.228 0.804 -0.253 0.797 -0.279 0.789 -0.304 0.781 -0.329 0.771 -0.354 0.761 -0.378 0.75 -0.402 0.738 -0.425 0.726 -0.448 0.713 -0.471 0.699 -0.493 0.684 -0.515 0.668 -0.536 0.652 -0.557 0.635 -0.577 0.617 -0.597 0.599 -0.616 0.58 -0.635 0.561 -0.652 0.54 -0.67 0.52 -0.686 0.498 -0.907 0.659 -0.886 0.687 -0.863 0.715 -0.839 0.741 -0.815 0.767 -0.79 0.792 -0.764 0.816 -0.737 0.84 -0.71 0.862 -0.681 0.884 -0.653 0.904 -0.623 0.924 -0.593 0.942 -0.562 0.96 -0.531 0.977 -0.5 0.992 -0.468 1.007 -0.435 1.02 -0.402 1.033 -0.369 1.044 -0.335 1.054 -0.301 1.063 -0.267 1.071 -0.233 1.078 -0.198 1.083 -0.163 1.088 -0.129 1.091 -0.094 1.093 -0.059 1.094 -0.024 1.094 0.01 1.093 0.045 1.09 0.079 1.087 0.114 1.082 0.148 1.076 0.182 1.069 0.215 1.061 0.248 1.051 0.281 1.041 0.313 1.029 0.345 1.017 0.376 1.003 0.406 0.988 0.437 0.972 0.466 0.955 0.495 0.937 0.522 0.918 0.55 0.899 0.576 0.878 0.601 0.856 0.626 0.833 0.649 0.81 0.672 0.786 0.694 0.76 0.714 0.735 0.733 0.708 0.751 0.681 0.768 0.653 0.784 0.624 0.798 0.595 0.811 0.566 0.822 0.536 0.832 0.505 0.84 0.475 0.847 0.444 0.852 0.412 0.856 0.381 0.857 0.349 0.857 0.318 0.855 0.287 0.85 0.256 0.844 0.225 0.836 0.194 0.825 0.164 0.812 0.135 0.797 0.107 0.779 0.079 0.758 0.053 0.735 0.028 0.71 0.005 0.681 -0.017 0.65 -0.037 0.616 -0.055 0.58 -0.07 0.54 -0.083 0.499 -0.093 0.455 -0.1 0.409 -0.103 0.362 -0.104 0.314 -0.101 0.266 -0.095 0.219 -0.086 0.174 -0.075 0.132 -0.062 0.094 -0.048 0.061 -0.033 0.035 -0.02 0.015 -0.01 0.004 -0.003 0.0 -0.0" stroke-linejoin="round" fill="white"/></svg>
