<svg xmlns="http://www.w3.org/2000/svg" viewBox="0 0 600 600" width="300px" height="300px"><g><circle r="250" fill="url(#grad)" stroke="gray" stroke-width="5" stroke-dasharray="20,15" stroke-dashoffset="20" cx="300.0" cy="300.0"><animate dur="2s" attributeType="XML" attributeName="stroke-dashoffset" repeatCount="indefinite" values="0;100" /><animate dur="2s" attributeType="XML" attributeName="r" repeatCount="indefinite" values="250;200;250" /></circle></g><g><path d="M 100.00,300.00 A 200.00 200.00 0 0 1 500.00,300.00 L 300.00,300.00 A 0.00 0.00 0 0 0 300.00,300.00 Z" fill="#e2cbc5" /><path d="M 100.00,300.00 A 166.67 166.67 0 0 1 433.33,300.00 L 266.67,300.00 A 0.00 0.00 0 0 0 266.67,300.00 Z" fill="#ceaca8" /><path d="M 100.00,300.00 A 133.33 133.33 0 0 1 366.67,300.00 L 233.33,300.00 A 0.00 0.00 0 0 0 233.33,300.00 Z" fill="#ba8d8b" /><path d="M 100.00,300.00 A 100.00 100.00 0 0 1 300.00,300.00 L 200.00,300.00 A 0.00 0.00 0 0 0 200.00,300.00 Z" fill="#a66e6e" /><path d="M 100.00,300.00 A 66.67 66.67 0 0 1 233.33,300.00 L 166.67,300.00 A 0.00 0.00 0 0 0 166.67,300.00 Z" fill="#914e50" /><path d="M 100.00,300.00 A 33.33 33.33 0 0 1 166.67,300.00 L 133.33,300.00 A 0.00 0.00 0 0 0 133.33,300.00 Z" fill="#7d2f33" /><path d="M 500.00,300.00 A 200.00 200.00 0 0 1 100.00,300.00 L 300.00,300.00 A 0.00 0.00 0 0 0 300.00,300.00 Z" fill="#92a1c2" /><path d="M 500.00,300.00 A 166.67 166.67 0 0 1 166.67,300.00 L 333.33,300.00 A 0.00 0.00 0 0 0 333.33,300.00 Z" fill="#7b8cab" /><path d="M 500.00,300.00 A 133.33 133.33 0 0 1 233.33,300.00 L 366.67,300.00 A 0.00 0.00 0 0 0 366.67,300.00 Z" fill="#647694" /><path d="M 500.00,300.00 A 100.00 100.00 0 0 1 300.00,300.00 L 400.00,300.00 A 0.00 0.00 0 0 0 400.00,300.00 Z" fill="#4d617d" /><path d="M 500.00,300.00 A 66.67 66.67 0 0 1 366.67,300.00 L 433.33,300.00 A 0.00 0.00 0 0 0 433.33,300.00 Z" fill="#364c65" /><path d="M 500.00,300.00 A 33.33 33.33 0 0 1 433.33,300.00 L 466.67,300.00 A 0.00 0.00 0 0 0 466.67,300.00 Z" fill="#1f364e" /></g><defs><linearGradient id="grad" gradientTransform="rotate(90)"><stop offset="0%" style="stop-color:#92a1c2;stop-opacity:1" /><stop offset="100%" style="stop-color:#e2cbc5;stop-opacity:1" /></linearGradient></defs></svg>