<svg xmlns="http://www.w3.org/2000/svg" viewBox="0 0 600 600" width="300px" height="300px"><g /><g><path d="M 100.00,300.00 A 200.00 200.00 0 0 1 500.00,300.00 L 300.00,300.00 A 0.00 0.00 0 0 0 300.00,300.00 Z" fill="#e2cbc5" /><path d="M 100.00,300.00 A 166.67 166.67 0 0 1 433.33,300.00 L 266.67,300.00 A 0.00 0.00 0 0 0 266.67,300.00 Z" fill="#ceaca8" /><path d="M 100.00,300.00 A 133.33 133.33 0 0 1 366.67,300.00 L 233.33,300.00 A 0.00 0.00 0 0 0 233.33,300.00 Z" fill="#ba8d8b" /><path d="M 100.00,300.00 A 100.00 100.00 0 0 1 300.00,300.00 L 200.00,300.00 A 0.00 0.00 0 0 0 200.00,300.00 Z" fill="#a66e6e" /><path d="M 100.00,300.00 A 66.67 66.67 0 0 1 233.33,300.00 L 166.67,300.00 A 0.00 0.00 0 0 0 166.67,300.00 Z" fill="#914e50" /><path d="M 100.00,300.00 A 33.33 33.33 0 0 1 166.67,300.00 L 133.33,300.00 A 0.00 0.00 0 0 0 133.33,300.00 Z" fill="#7d2f33" /></g></svg>