<svg viewBox="0 0 24 21" xmlns="http://www.w3.org/2000/svg" xml:space="preserve" fill-rule="evenodd" clip-rule="evenodd" stroke-linejoin="round" stroke-miterlimit="2"><path d="M0 8.915s1.031-.691 4.695-1.658c.844-.222 1.398-.928 1.638-1.364.24-.435.827-1.096 1.78-1.203.955-.108 1.934.195 2.733.78.704-.405 1.442-.824 1.766-1.029.586-.369 2.915-1.786 4.314-2.495 1.4-.71 3.846-1.817 5.815-1.817.789 0 1.038.11 1.195.245.204.177-.09.855-.723 1.093.056.365-.317.846-.812 1.017.047.28-.082.638-.604.873a.559.559 0 0 1-.075.027c.014.094.02.43-.309.655a1.513 1.513 0 0 1-.367.203c-.005.273-.295.605-.535.734-.002.139-.137.517-.506.669-.024.19-.23.685-.706.745-.04.186-.248.623-.645.687-.058.217-.31.715-.731.735-.087.194-.328.55-.639.629-.107.176-.402.5-.744.516-.098.236-.403.613-.82.483-.1.154-.302.35-.54.361 0 0 .811.962 1.268 2.104.609 1.523.57 2.49.766 3.001.16.418.378 1.56.426 1.864.048.305.239 1.266.452 1.727.213.46.635 1.86.592 2.1-.16.291-.358.169-.377.105a1.094 1.094 0 0 0-.19-.274c.009.103.053.245-.133.443-.225-.076-.509-.135-.65-.409-.206.191-.24.015-.402-.274-.162-.288-.884-3.13-.887-3.231a2.131 2.131 0 0 0-.013-.186c-.022-.192-.08-.454-.226-.64a.612.612 0 0 0-.139-.13c-.466-.313-3.647-2.722-4.454-3.417-.807-.696-1.762-1.736-1.93-1.95l-.003-.005c-.17-.217-.517-.81-1.329-1.621a4.253 4.253 0 0 0-1.336-.924c-.168-.06-.377-.125-.661-.21a3.523 3.523 0 0 0-1.022-.065c-.127.01-.305.038-.515.079-1.26.24-3.72.928-3.995.996-.303.076-.422.03-.422.03Z" fill="#fff"/></svg>