<?xml version="1.0" encoding="UTF-8" standalone="no"?>
<svg
   width="100%"
   height="100%"
   viewBox="0 0 1700 1700"
   version="1.1"
   xml:space="preserve"
   style="fill-rule:evenodd;clip-rule:evenodd;stroke-linecap:round;stroke-linejoin:round;stroke-miterlimit:1.5;"
   id="svg47"
   sodipodi:docname="heart_logo_without_shadows.svg"
   inkscape:version="1.3.2 (091e20e, 2023-11-25, custom)"
   xmlns:inkscape="http://www.inkscape.org/namespaces/inkscape"
   xmlns:sodipodi="http://sodipodi.sourceforge.net/DTD/sodipodi-0.dtd"
   xmlns="http://www.w3.org/2000/svg"
   xmlns:svg="http://www.w3.org/2000/svg"><defs
   id="defs47" /><sodipodi:namedview
   id="namedview47"
   pagecolor="#ffffff"
   bordercolor="#666666"
   borderopacity="1.0"
   inkscape:showpageshadow="2"
   inkscape:pageopacity="0.0"
   inkscape:pagecheckerboard="0"
   inkscape:deskcolor="#d1d1d1"
   inkscape:zoom="0.24441176"
   inkscape:cx="1104.6931"
   inkscape:cy="1106.7389"
   inkscape:window-width="1920"
   inkscape:window-height="1009"
   inkscape:window-x="-8"
   inkscape:window-y="-8"
   inkscape:window-maximized="1"
   inkscape:current-layer="g24" />
    <g
   transform="matrix(1.30043,0,0,1.30043,-284.199,-205.825)"
   id="g47">
        <g
   id="g12">
            <path
   d="M1385.72,1206.11L1385.07,1293.62"
   style="fill:none;stroke:rgb(173,173,173);stroke-width:19.69px;"
   id="path1" />
            <path
   d="M1198.2,1357.54C1198,1357.61 1197.79,1357.69 1197.59,1357.78C1196.99,1358.05 1195.17,1359.08 1194.26,1361.36C1193.74,1362.66 1193.55,1364.58 1193.89,1365.95C1194.31,1367.68 1195.31,1369.03 1196.76,1369.93C1197.93,1370.67 1199.77,1371.49 1202.6,1370.55C1206.77,1369.16 1207.81,1365.6 1207.38,1362.91C1206.96,1360.27 1204.98,1357.13 1200.4,1357.13C1199.62,1357.13 1198.88,1357.28 1198.2,1357.54ZM1198.6,1369.17C1199.12,1369.34 1199.72,1369.44 1200.4,1369.44C1199.77,1369.44 1199.17,1369.35 1198.6,1369.17ZM1197.55,1368.98C1195.77,1368.15 1194.42,1366.47 1194.08,1364.38C1194.53,1367.2 1196.13,1368.4 1197.55,1368.98Z"
   style="fill:rgb(173,173,173);"
   id="path2" />
            <ellipse
   cx="1301.98"
   cy="1275.31"
   rx="19.34"
   ry="19.917"
   style="fill:none;stroke:rgb(173,173,173);stroke-width:19.69px;"
   id="ellipse2" />
            <g
   transform="matrix(1,0,0,0.879107,0,166.161)"
   id="g3">
                <ellipse
   cx="1384.05"
   cy="1351.19"
   rx="20.838"
   ry="23.257"
   style="fill:none;stroke:rgb(173,173,173);stroke-width:20.92px;"
   id="ellipse3" />
            </g>
            <g
   transform="matrix(1,0,0,1,-3.89973,6.45781)"
   id="g4">
                <ellipse
   cx="1389.97"
   cy="349.379"
   rx="22.701"
   ry="22.998"
   style="fill:none;stroke:rgb(173,173,173);stroke-width:19.69px;"
   id="ellipse4" />
            </g>
            <g
   transform="matrix(0.977614,0,0,0.947987,7.82176,19.4276)"
   id="g5">
                <ellipse
   cx="370.458"
   cy="350.599"
   rx="21.054"
   ry="22.917"
   style="fill:none;stroke:rgb(173,173,173);stroke-width:20.45px;"
   id="ellipse5" />
            </g>
            <g
   transform="matrix(0.977614,0,0,0.947987,203.649,912.108)"
   id="g6">
                <ellipse
   cx="370.458"
   cy="350.599"
   rx="21.054"
   ry="22.917"
   style="fill:none;stroke:rgb(173,173,173);stroke-width:20.45px;"
   id="ellipse6" />
            </g>
            <g
   transform="matrix(0.977614,0,0,0.947987,7.60308,1023.02)"
   id="g7">
                <ellipse
   cx="370.458"
   cy="350.599"
   rx="21.054"
   ry="22.917"
   style="fill:none;stroke:rgb(173,173,173);stroke-width:20.45px;"
   id="ellipse7" />
            </g>
            <path
   d="M514.917,1201.47L511.372,1041.43L514.917,1201.47Z"
   style="fill:none;stroke:rgb(173,173,173);stroke-width:19.69px;"
   id="path7" />
            <path
   d="M357.097,486.708L355.828,429.624"
   style="fill:none;stroke:rgb(173,173,173);stroke-width:19.69px;"
   id="path8" />
            <path
   d="M449.355,357.13L485.074,356.842"
   style="fill:none;stroke:rgb(173,173,173);stroke-width:19.69px;"
   id="path9" />
            <g
   transform="matrix(1,0,0,1,2.46667,1.60457)"
   id="g9">
                <ellipse
   cx="441.124"
   cy="429.997"
   rx="18.53"
   ry="19.45"
   style="fill:none;stroke:rgb(173,173,173);stroke-width:19.69px;"
   id="ellipse9" />
            </g>
            <ellipse
   cx="1301.41"
   cy="431.764"
   rx="20.79"
   ry="19.525"
   style="fill:none;stroke:rgb(173,173,173);stroke-width:19.69px;"
   id="ellipse10" />
            <g
   transform="matrix(1,0,0,1,2.98029,1.68451)"
   id="g10">
                <path
   d="M1285.56,1356.07C1283.76,1355.98 1280.78,1356.02 1280.13,1356.1C1275.48,1356.69 1274.81,1360.74 1274.73,1361.34C1274.47,1363.12 1274.53,1365.97 1278.07,1367.73C1278.58,1367.99 1279.9,1368.47 1281.84,1368.51C1282.8,1368.54 1284.21,1368.49 1285.7,1368.43L1285.89,1368.43C1285.99,1368.43 1286.09,1368.42 1286.19,1368.42L1286.31,1368.41C1288.36,1368.32 1290.44,1368.21 1291.61,1368.21C1295.01,1368.21 1297.77,1365.46 1297.77,1362.06C1297.77,1358.67 1295.01,1355.91 1291.61,1355.91C1290.44,1355.91 1287.79,1355.99 1285.56,1356.07Z"
   style="fill:rgb(173,173,173);"
   id="path10" />
            </g>
            <path
   d="M293.317,853.462L488.779,852.658"
   style="fill:none;stroke:rgb(173,173,173);stroke-width:19.69px;"
   id="path11" />
            <path
   d="M1451.03,860.746L1197.27,858.376"
   style="fill:none;stroke:rgb(173,173,173);stroke-width:19.69px;"
   id="path12" />
        </g>
        <g
   id="g16">
            <path
   d="M351.388,1230.56C347.779,1111.28 340.56,872.712 354.189,757.124C363.317,679.716 374.24,617.202 433.163,537.031C493.698,454.667 577.831,409.523 619.897,386.952"
   style="fill:none;stroke:rgb(173,173,173);stroke-width:19.69px;"
   id="path13" />
            <g
   transform="matrix(1,0,0,1,51.7507,34.2587)"
   id="g14">
                <path
   d="M350.684,1250.5C347.27,1125.67 340.443,876.035 354.189,757.124C363.14,679.695 394.512,592.071 433.163,537.031C484.186,464.373 542.613,432.996 571.827,417.307"
   style="fill:none;stroke:rgb(173,173,173);stroke-width:19.69px;"
   id="path14" />
            </g>
            <g
   transform="matrix(1,0,0,1,102.172,56.3574)"
   id="g15">
                <path
   d="M356.421,1251.96C355.677,1087.02 341.399,876.279 354.189,757.124C358.922,713.034 371.528,631.882 406.712,571.807C433.372,526.285 472.892,495.582 509.832,462.705"
   style="fill:none;stroke:rgb(173,173,173);stroke-width:19.69px;"
   id="path15" />
            </g>
        </g>
        <g
   transform="matrix(-0.973026,-0.230696,0.230696,-0.973026,1530.27,1865.85)"
   id="g21">
            <path
   d="M465.782,1360.97C430.819,1225.6 360.892,954.859 350.789,825.614C342.994,725.881 382.454,619.858 441.376,539.686C501.911,457.322 598.612,408.357 646.962,383.874"
   style="fill:none;stroke:rgb(173,173,173);stroke-width:19.69px;"
   id="path16" />
            <g
   transform="matrix(1,0,0,1,51.7507,34.2587)"
   id="g17">
                <path
   d="M371.411,954.523C361.473,908.551 341.596,816.607 352.69,739.806C364.684,656.77 394.512,592.071 433.163,537.031C484.186,464.373 535.356,441.311 560.941,429.78"
   style="fill:none;stroke:rgb(173,173,173);stroke-width:19.69px;"
   id="path17" />
            </g>
            <g
   transform="matrix(-0.973026,0.230696,-0.230696,-0.973026,1919.44,1462.5)"
   id="g18">
                <path
   d="M1025.41,357.91L1302.9,360.227"
   style="fill:none;stroke:rgb(173,173,173);stroke-width:19.69px;"
   id="path18" />
            </g>
            <g
   transform="matrix(-0.973026,0.230696,-0.230696,-0.973026,1919.44,1462.5)"
   id="g19">
                <path
   d="M452.132,1364.35L717.366,1361.96"
   style="fill:none;stroke:rgb(173,173,173);stroke-width:19.69px;"
   id="path19" />
            </g>
            <g
   transform="matrix(1,0,0,1,102.172,56.3574)"
   id="g20">
                <path
   d="M388.537,979.799C388.537,979.799 352.018,877.631 354.189,757.124C354.988,712.788 358.453,671.076 393.562,607.012C423.043,553.217 443.764,523.051 480.703,490.174"
   style="fill:none;stroke:rgb(173,173,173);stroke-width:19.69px;"
   id="path20" />
            </g>
        </g>
        <g
   id="g24">


            <g
   transform="matrix(0.768975,0,0,0.768975,218.542,158.274)"
   id="g23">

            </g>
        </g>
        <g
   id="g36">
            <path
   d="M755.515,497.723C753.655,499.597 752.585,501.542 750.922,503.758C748.144,507.463 747.335,511.516 748.083,514.951C748.904,518.722 751.5,522.166 756.612,523.87C759.645,524.881 762.142,524.296 764.311,522.934C765.741,522.036 766.959,520.504 768.064,519.398C772.645,514.818 774.87,508.136 771.93,502.256C771.493,501.381 770.816,500.497 769.868,499.712C769.522,499.426 768.813,498.944 768.386,498.661L768.214,498.408L768.122,498.283C767.797,497.17 767.185,496.444 766.899,496.087C765.584,494.448 763.551,493.158 760.458,493.98C759.94,494.118 759.177,494.39 758.334,494.986C757.7,495.435 756.031,497.178 755.515,497.723ZM764.909,505.708L764.859,505.737L764.858,505.738L764.881,505.726L764.909,505.708ZM765.154,505.557L765.151,505.559L765.154,505.557ZM769.226,500.21L769.279,500.348C769.264,500.304 769.246,500.258 769.226,500.21Z"
   style="fill:rgb(75,75,75);"
   id="path24" />
            <path
   d="M741.752,552.065C742.334,552.975 743.096,554.051 743.748,554.601C745.189,555.816 746.831,556.377 748.501,556.369C750.085,556.361 751.906,555.911 753.68,554.137C754.767,553.05 755.906,551.064 755.644,548.175C755.48,546.369 754.018,541.827 753.809,541.188C753.768,540.82 753.691,540.461 753.585,540.116C753.706,539.173 753.607,538.188 753.257,537.234C752.086,534.047 748.548,532.41 745.361,533.581C744.66,533.838 743.526,534.422 742.41,535.645C741.17,537.003 739.21,540.17 738.393,542.605C737.115,546.413 738.42,549.476 739.824,550.88C740.228,551.284 741,551.712 741.752,552.065Z"
   style="fill:rgb(75,75,75);"
   id="path25" />
            <path
   d="M559.021,959.878C557.719,961.672 556.686,964.138 555.989,966.929C555.214,970.033 554.848,973.662 553.947,975.913C549.113,987.999 543.475,1005.61 544.562,1019.87C544.82,1023.26 547.778,1025.8 551.164,1025.54C554.549,1025.28 557.088,1022.32 556.83,1018.94C555.878,1006.44 561.134,991.074 565.371,980.482C566.293,978.177 566.88,974.725 567.58,971.426C567.785,970.457 568.006,969.507 568.281,968.64C568.44,968.137 568.807,967.349 568.857,967.243C569.336,966.737 570.053,965.77 570.551,964.326C570.997,963.033 571.605,960.16 571.75,959.458C571.905,958.922 571.987,958.356 571.987,957.77C571.987,955.681 571.14,954.608 570.861,954.212C569.359,952.083 567.422,951.526 565.552,951.611C565.195,951.628 560.97,951.764 559.838,956.353L559.021,959.878ZM561.289,961.913C562.437,963.229 563.789,963.768 565.15,963.883C563.626,963.715 562.27,962.989 561.289,961.913ZM559.802,958.974L559.791,958.988C559.991,960.089 560.431,960.773 560.69,961.14C560.264,960.493 559.957,959.761 559.802,958.974ZM559.691,958.087L559.715,958.399C559.728,958.502 559.741,958.604 559.754,958.707L559.793,958.927L559.782,958.939C559.736,958.678 559.704,958.395 559.691,958.087Z"
   style="fill:rgb(75,75,75);"
   id="path26" />
            <path
   d="M583.413,936.399L589.134,925.875C590.822,924.779 591.939,922.877 591.939,920.717C591.939,917.321 589.182,914.565 585.787,914.565C584.629,914.565 581.844,915.218 579.466,918.206C577.385,920.821 574.235,926.29 572.586,930.2C571.484,932.814 571.082,935.05 571.134,936.218C571.287,939.609 574.165,942.239 577.557,942.086C580.7,941.944 583.189,939.462 583.413,936.399Z"
   style="fill:rgb(75,75,75);"
   id="path27" />
            <path
   d="M600.24,891.222C599.802,891.808 598.967,892.96 598.588,893.694C597.033,896.713 598.221,900.426 601.239,901.981C604.257,903.536 607.97,902.349 609.525,899.33C610.005,898.399 610.845,897.619 611.299,896.776C611.998,895.477 612.366,894.118 612.366,892.689C612.366,889.293 609.609,886.537 606.214,886.537C603.324,886.537 600.897,888.534 600.24,891.222Z"
   style="fill:rgb(75,75,75);"
   id="path28" />
            <path
   d="M635.576,872.923C635.861,872.652 636.748,871.805 637.167,871.386C639.568,868.985 639.568,865.087 637.167,862.686C634.766,860.285 630.868,860.285 628.467,862.686C627.09,864.063 625.241,865.951 624.619,867.372C623.256,870.482 624.676,874.113 627.786,875.475C630.682,876.744 634.031,875.6 635.576,872.923Z"
   style="fill:rgb(75,75,75);"
   id="path29" />
            <path
   d="M660.432,841.367C659.774,841.783 658.81,842.42 658.286,842.881C657.213,843.825 656.416,844.929 655.925,846.137C654.648,849.283 656.165,852.874 659.311,854.151C662.028,855.255 665.078,854.273 666.68,851.956C667.379,851.504 669.055,850.391 669.648,849.775C671.101,848.265 671.747,846.538 671.747,844.709C671.747,841.313 668.99,838.557 665.595,838.557C663.432,838.557 661.528,839.676 660.432,841.367Z"
   style="fill:rgb(75,75,75);"
   id="path30" />
            <path
   d="M695.066,825.964C694.584,826.327 694.147,826.768 693.776,827.284C691.792,830.04 692.419,833.887 695.175,835.871C696.554,836.864 698.241,837.33 700.172,836.957C701.933,836.616 704.674,834.469 705.53,832.79C706.746,830.403 706.233,828.273 705.627,827.034C704.745,825.229 703.176,823.522 699.972,823.522C697.969,823.522 696.189,824.48 695.066,825.964ZM696.56,834.791C697.331,835.345 698.321,835.756 699.627,835.815C698.496,835.753 697.446,835.384 696.56,834.791ZM698.845,824.729C699.967,824.74 701.095,825.059 702.098,825.705C701.192,825.115 700.075,824.702 698.845,824.729Z"
   style="fill:rgb(75,75,75);"
   id="path31" />
            <path
   d="M738.771,813.952C738.19,814.359 737.643,814.774 737.303,815.099C735.799,816.541 735.044,818.193 734.832,819.727C734.368,823.09 736.721,826.198 740.084,826.663C742.594,827.01 744.962,825.787 746.194,823.746C747.136,823.126 749.41,821.596 750.029,820.907C751.409,819.371 751.846,817.729 751.846,816.302C751.846,815.318 751.161,814.299 750.238,813.374C749.281,811.221 747.122,809.719 744.616,809.719C741.891,809.719 739.577,811.495 738.771,813.952Z"
   style="fill:rgb(75,75,75);"
   id="path32" />
            <path
   d="M777.514,803.009C776.82,805.239 777.135,808.408 780.249,810.55C782.079,811.81 785.194,812.535 787.911,811.429C789.696,810.703 791.535,809.304 792.508,806.385C792.964,805.019 792.937,801.99 792.112,800.026C791.303,798.103 789.922,796.922 788.777,796.349C787.734,795.828 786.243,795.481 784.585,795.671C782.85,795.87 780.828,796.788 780.469,797.006C777.561,798.775 777.213,801.186 777.514,803.009ZM784.754,810.735L784.64,810.751L784.674,810.748L784.754,810.735ZM785.07,810.685L785.004,810.697L785.039,810.692L785.07,810.685ZM789.447,804.352C789.044,805.48 788.32,806.457 787.385,807.171C788.463,806.403 789.114,805.536 789.476,804.659L789.459,804.441L789.447,804.352ZM789.679,801.042C789.762,801.443 789.805,801.858 789.805,802.283C789.805,802.432 789.799,802.581 789.787,802.727L789.803,802.772L789.863,802.978C789.907,802.283 789.82,801.621 789.679,801.042ZM788.706,798.777C788.01,797.712 786.622,796.131 783.653,796.131C785.745,796.131 787.595,797.178 788.706,798.777Z"
   style="fill:rgb(75,75,75);"
   id="path33" />
            <path
   d="M821.676,784.487C821.281,782.546 819.818,779.286 815.223,779.588C814.693,779.623 812.816,780.011 811.504,780.838C810.312,781.588 809.474,782.607 808.992,783.572C808.709,784.138 807.595,787.831 807.74,789.866C807.888,791.936 808.79,793.417 809.713,794.34C812.029,796.656 814.951,797.038 817.662,796.087C819.539,795.428 821.205,793.982 822.084,792.588C823.591,790.198 823.417,787.727 822.574,785.95C822.351,785.48 822.063,784.972 821.676,784.487ZM815.766,794.4L815.824,794.402L815.697,794.392L815.766,794.4ZM815.343,794.353L815.38,794.357L815.333,794.352L815.343,794.353ZM809.496,785.238C809.67,783.212 810.846,781.315 812.782,780.306C809.931,781.791 809.521,783.979 809.496,785.238Z"
   style="fill:rgb(75,75,75);"
   id="path34" />
            <path
   d="M838.817,775.808C839.745,776.42 841.165,777.005 843.177,776.681C843.913,776.562 846.86,775.351 848.71,774.017C850.19,772.951 851.11,771.707 851.485,770.958C851.722,770.483 852.18,770.209 852.491,769.884C853.031,769.319 853.51,768.758 853.897,768.196C854.943,766.676 855.467,765.058 855.437,763.274C855.407,761.478 854.845,759.095 852.058,756.308C851.127,755.377 849.279,753.987 846.283,754.641C845.345,754.846 841.709,756.875 841.213,757.246C840.05,758.119 835.388,762.723 833.822,765.311C832.226,767.947 832.445,770.319 832.854,771.57C833.715,774.201 836.185,775.858 838.817,775.808ZM847.685,767.982L847.679,767.988C848.047,768.775 848.252,769.654 848.252,770.579C848.252,769.602 848.046,768.742 847.685,767.982Z"
   style="fill:rgb(75,75,75);"
   id="path35" />
            <path
   d="M858.64,715.895C858.325,716.464 857.908,717.237 857.836,717.455C857.288,719.093 857.534,720.358 857.739,721.092C858.36,723.321 859.685,724.706 861.666,725.293C862.173,725.813 862.762,726.324 863.379,726.734C866.033,728.499 869.004,728.346 870.79,727.453C875.481,725.107 879.504,720.788 879.938,715.852C880.154,713.394 879.632,710.666 877.716,707.792C875.898,705.064 873.716,704.138 871.76,703.884C869.759,703.623 867.643,704.126 865.674,705.557C863.368,707.232 861.075,710.992 860.092,712.711C859.469,713.803 859.03,714.796 858.64,715.895ZM871.269,718.015L871.225,718.084C871.459,718.732 871.586,719.431 871.586,720.159C871.586,719.852 871.578,718.912 871.269,718.015ZM863.12,713.231C862.227,713.266 860.995,713.582 859.655,714.817C860.651,713.899 861.869,713.373 863.12,713.231Z"
   style="fill:rgb(75,75,75);"
   id="path36" />
        </g>
        <g
   id="g46">
            <path
   d="M1170.63,645.235C1182.24,667.704 1196.59,691.785 1202.28,711.457C1221.87,779.222 1215.09,853.867 1201.45,923.078C1186.73,997.821 1161.1,1090.2 1113.95,1159.91C1062.51,1235.96 975.267,1377.1 892.81,1379.34C810.352,1381.58 687.527,1262.04 619.204,1173.36C550.88,1084.68 495.051,931.337 482.869,847.271C474.613,790.3 476.031,748.888 518.063,673.83C559.824,599.255 643.837,569.931 680.604,552.008C702.244,541.459 759.696,453.184 779.043,433.573"
   style="fill:none;stroke:black;stroke-width:24.38px;"
   id="path37" />
            <path
   d="M995.025,395.854C1043.96,417.405 1073.39,466.169 1081.7,478.697"
   style="fill:none;stroke:black;stroke-width:24.38px;"
   id="path38" />
            <path
   d="M641.152,1195.63C641.604,1175.14 642.508,1134.18 651.126,1105.06C660.066,1074.85 674.058,1039.28 694.788,1014.38C715.518,989.467 745.355,969.706 775.504,955.612C809.714,939.619 866.599,934.547 900.048,918.419C929.078,904.422 959.72,884.352 976.198,858.843C992.676,833.334 996.836,788.023 998.916,765.367"
   style="fill:none;stroke:black;stroke-width:24.38px;"
   id="path39" />
            <path
   d="M1207.06,766.652C1190.48,783.875 1157.31,818.32 1127.25,822.541C1097.2,826.762 1051.29,812.982 1026.72,791.978C1002.16,770.973 985.011,722.031 979.845,696.516C975.891,676.987 983.843,654.881 995.73,638.891C1009.09,620.912 1036.73,599.384 1060.03,588.647C1083.29,577.929 1118.13,575.62 1135.55,574.465"
   style="fill:none;stroke:black;stroke-width:24.38px;"
   id="path40" />
            <path
   d="M588.051,1120.79C588.272,1098.01 588.713,1052.46 598.277,1022.86C607.765,993.492 624.595,965.517 645.431,943.183C666.267,920.849 694.777,902.197 723.292,888.858C751.808,875.518 790.014,873.391 816.523,863.144C839.815,854.14 864.829,845.17 882.347,827.373C902.232,807.171 921.248,768.536 935.833,741.931C948.911,718.074 953.907,689.782 969.856,667.741C987.574,643.256 1015.4,610.651 1042.14,595.022C1068.22,579.778 1100.09,574.651 1130.29,573.966C1169.09,573.085 1250.45,575.724 1274.96,589.741C1294.74,601.056 1295.07,648.582 1277.3,658.065C1259.54,667.547 1203.24,623.991 1168.38,646.634"
   style="fill:none;stroke:black;stroke-width:24.38px;"
   id="path41" />
            <path
   d="m 523.171,983.624 c 2.488,-20.007 7.462,-60.02 20.318,-86.817 13.356,-27.838 36.958,-58.219 59.814,-80.212 22.347,-21.503 51.238,-36.999 77.321,-51.744 25.326,-14.317 57.223,-21.22 79.177,-36.723 20.969,-14.809 38.474,-34.83 52.546,-56.3 20.937,-31.943 46.941,-104.466 73.077,-135.357 20.997,-24.819 52.501,-40.995 83.74,-49.993 33.596,-9.679 78.476,-7.787 117.846,-8.077 44.76,-0.331 150.66,6.096 150.66,6.096 0,0 1.69,63.804 2.54,95.706 m -619.88,-2.2919 c 2.171,-3.789 0.51,-64.7941 2.107,-104.1591 2.104,-51.847 -2.323,-114.51 -2.323,-114.51 l 103.902,1.068 c 0,0 1.201,50.445 -0.417,74.178 -1.23,18.043 1.212,44.189 -4.4,67.234 -3.688,15.142 -14.227,26.112 -15.674,40.684 -3.774,37.993 3.085,85.676 -0.971,119.306 -3.421,28.368 -15.333,62.801 -23.363,82.476 -5.463,13.386 -18.363,28.179 -24.814,35.575 M 770.785,429.962 c -2.37,-24.039 -7.108,-72.117 -23.465,-96.086 -16.358,-23.968 -76.598,-31.117 -74.68,-47.724 1.993,-17.247 13.497,-48.82 27.279,-40.277 12.526,7.764 57.867,16.432 86.228,43.519 33.691,32.177 49.989,83.78 50.924,98.681 0.318,5.066 13.869,-0.149 15.028,-5.337 2.853,-12.764 -2.877,-48.843 2.086,-71.243 4.963,-22.399 13.4,-61.71 27.695,-63.154 8.147,-0.823 28.048,-6.531 34.038,2.984 5.99,9.515 1.834,36.059 1.902,54.105 0.073,19.144 -4.253,50.877 -1.465,60.756 1.653,5.856 14.427,3.297 18.196,-1.481 9.429,-11.953 19.816,-51.225 38.383,-70.237 18.567,-19.013 56.026,-49.127 73.016,-43.836 13.71,4.268 34.38,31.048 33.59,37.391 -1.67,13.357 -39.47,18.075 -60.17,38.879 -16.17,16.25 -21.4,52.023 -24.015,69.909"
   style="fill:none;stroke:#000000;stroke-width:24.38px"
   id="path42"
   sodipodi:nodetypes="cccscccccccccccsccccccccccsccssccsccccc" />
            <path
   d="M896.874,1377.21C897.01,1375.16 897.278,1371.05 897.589,1367.98C898.067,1363.25 897.395,1354.39 899.522,1348.07C904.061,1334.58 911.186,1305.58 924.075,1288.34C937.434,1270.47 958.704,1253.3 979.528,1240.61C1002.14,1226.82 1037.92,1215.18 1057.9,1207.54C1071.39,1202.39 1090.03,1197.45 1099.34,1194.97C1105.84,1193.24 1109.72,1186.56 1107.99,1180.06C1106.25,1173.55 1099.57,1169.68 1093.07,1171.41C1083.2,1174.04 1063.48,1179.31 1049.2,1184.77C1028.18,1192.8 990.633,1205.28 966.837,1219.79C943.383,1234.09 919.593,1253.61 904.547,1273.74C890.126,1293.03 881.492,1325.2 876.414,1340.29C873.71,1348.32 873.938,1359.52 873.33,1365.53C872.991,1368.88 872.693,1373.36 872.545,1375.6C872.102,1382.32 877.193,1388.13 883.907,1388.57C890.621,1389.01 896.431,1383.92 896.874,1377.21Z"
   id="path43" />
            <path
   d="M832.926,1348.93C832.816,1348.41 832.517,1347.38 832.506,1346.59C832.456,1343.22 833.528,1336.54 832.792,1331.6C830.13,1313.71 829.642,1240.82 899.621,1195.44C963.53,1154.01 1027.14,1144.85 1071.64,1124.01C1105.25,1108.27 1147.57,1082.42 1168.72,1069.49C1174.46,1065.98 1176.27,1058.47 1172.76,1052.73C1169.25,1046.99 1161.74,1045.18 1156,1048.69C1135.36,1061.31 1094.1,1086.57 1061.3,1101.93C1016.01,1123.13 951.407,1132.81 886.357,1174.99C804.21,1228.25 805.55,1314.18 808.676,1335.19C809.254,1339.07 808.087,1344.3 808.126,1346.95C808.162,1349.33 808.747,1352.45 809.079,1354.01C810.48,1360.59 816.961,1364.79 823.542,1363.39C830.123,1361.99 834.328,1355.51 832.926,1348.93Z"
   id="path44" />
            <path
   d="M771.073,1310.24C773.326,1285.94 777.519,1237.28 794.06,1205.64C811.403,1172.48 839.572,1132.55 874.776,1110.32C914.694,1085.12 990.367,1074.74 1030.42,1058.14C1062.07,1045.02 1095.59,1031.86 1120.09,1007.91C1145.46,983.113 1167.17,942.591 1183.47,908.736C1199.06,876.347 1211.48,829.762 1217.66,806.457C1219.38,799.953 1215.5,793.273 1209,791.55C1202.49,789.826 1195.81,793.708 1194.09,800.212C1188.18,822.519 1176.43,867.156 1161.5,898.158C1146.37,929.588 1126.6,967.453 1103.05,990.47C1080.74,1012.27 1049.9,1023.67 1021.08,1035.62C980.032,1052.63 902.673,1063.87 861.759,1089.71C822.986,1114.19 791.554,1157.82 772.453,1194.35C754.459,1228.76 749.246,1281.55 746.795,1307.99C746.174,1314.69 751.109,1320.63 757.809,1321.25C764.509,1321.87 770.452,1316.94 771.073,1310.24Z"
   id="path45" />
            <path
   d="M708.149,1267.46C707.428,1241.4 705.986,1189.28 715.311,1157.08C724.223,1126.31 742.088,1097.33 764.101,1074.29C786.113,1051.25 816.763,1032.05 847.386,1018.83C881.243,1004.22 931.43,1000.32 967.247,986.606C1000.69,973.8 1035.56,960.367 1062.29,936.532C1091.9,910.112 1120.98,855.031 1144.96,828.091C1162.94,807.898 1191.77,785.893 1206.19,774.89"
   style="fill:none;stroke:black;stroke-width:24.38px;"
   id="path46" />
        </g>
    </g>
</svg>
