<?xml version="1.0" encoding="UTF-8" standalone="no"?>
<!-- Created with Inkscape (http://www.inkscape.org/) -->

<svg
   width="178.55226pt"
   height="58.240055pt"
   viewBox="0 0 62.989271 20.545797"
   version="1.1"
   id="svg1"
   xmlns="http://www.w3.org/2000/svg"
   xmlns:svg="http://www.w3.org/2000/svg">
  <defs
     id="defs1" />
  <g
     id="layer1"
     transform="translate(-2.3720312,-1.0159898)">
    <path
       style="font-weight:500;font-size:22.5778px;line-height:1;font-family:Megrim;-inkscape-font-specification:'Megrim Medium';letter-spacing:0.264583px;word-spacing:0px;opacity:0.6;fill:#343434;stroke-width:0.1"
       d="M 7.9713259,9.4600873 7.6326589,8.8730644 8.8970157,8.1505748 q 1.5578683,-0.8579564 1.5578683,-2.7319139 0,-3.4995591 -5.328361,-3.4995591 H 3.0493653 V 17.046228 H 2.3720313 V 1.2417678 H 5.126523 q 2.9802697,0 4.4929824,1.1063122 1.5127126,1.0837345 1.5127126,3.0705809 0,2.2577801 -1.8965353,3.3189367 z M 15.212471,3.9511039 H 23.95008 L 18.644297,16.481783 v 5.080005 H 17.966963 V 16.481783 L 12.661179,3.9511039 h 0.72249 L 18.30563,15.533516 22.934079,4.6284379 H 15.212471 Z M 28.775388,16.368894 h 8.895654 V 2.8447916 L 32.591037,13.727292 27.511031,2.8222138 V 17.046228 l -0.677334,-0.02258 V 1.21919 h 0.677334 L 32.591037,12.124268 37.671042,1.2417678 38.348376,1.21919 v 15.827038 l -9.572988,-0.02258 z M 52.882135,14.15627 q -0.609601,1.490135 -1.715913,2.302935 -1.106312,0.812801 -3.318937,0.812801 -2.777069,0 -4.018848,-1.693335 -1.241779,-1.715913 -1.241779,-5.328361 V 8.0376858 q 0,-3.6124481 1.241779,-5.3057832 1.241779,-1.7159128 4.018848,-1.7159128 2.212625,0 3.318937,0.8128008 1.106312,0.8128008 1.715913,2.3029357 L 52.272534,4.4252377 Q 51.753245,3.1157253 50.804977,2.4158134 49.85671,1.6933238 47.847285,1.6933238 q -1.106312,0 -1.896535,0.2935114 -0.790223,0.2709336 -1.422401,0.9482676 -0.632179,0.6773341 -0.948268,1.9642687 -0.316089,1.2643569 -0.316089,3.1383143 V 10.25031 q 0,1.873958 0.316089,3.160892 0.316089,1.264357 0.948268,1.941691 0.632178,0.677334 1.422401,0.970846 0.790223,0.270933 1.896535,0.270933 2.009425,0 2.957692,-0.699912 0.948268,-0.722489 1.467557,-2.032002 z M 62.20041,9.4600873 61.861743,8.8730644 63.1261,8.1505748 q 1.557868,-0.8579564 1.557868,-2.7319139 0,-3.4995591 -5.328361,-3.4995591 H 57.278449 V 17.046228 H 56.601115 V 1.2417678 h 2.754492 q 2.98027,0 4.492982,1.1063122 1.512713,1.0837345 1.512713,3.0705809 0,2.2577801 -1.896535,3.3189367 z"
       id="text1"
       aria-label="PyMCP" />
  </g>
</svg>
