<?xml version="1.0" encoding="UTF-8" standalone="no"?>
<!-- Created with Inkscape (http://www.inkscape.org/) -->

<svg
   width="118.18763mm"
   height="80.000008mm"
   viewBox="0 0 118.18763 80.000005"
   version="1.1"
   id="svg1"
   xml:space="preserve"
   inkscape:version="1.4.2 (1:1.4.2+202505120738+ebf0e940d0)"
   sodipodi:docname="domain.svg"
   xmlns:inkscape="http://www.inkscape.org/namespaces/inkscape"
   xmlns:sodipodi="http://sodipodi.sourceforge.net/DTD/sodipodi-0.dtd"
   xmlns="http://www.w3.org/2000/svg"
   xmlns:svg="http://www.w3.org/2000/svg"><sodipodi:namedview
     id="namedview1"
     pagecolor="#ffffff"
     bordercolor="#666666"
     borderopacity="1.0"
     inkscape:showpageshadow="2"
     inkscape:pageopacity="0.0"
     inkscape:pagecheckerboard="0"
     inkscape:deskcolor="#d1d1d1"
     inkscape:document-units="mm"
     inkscape:zoom="1.4075477"
     inkscape:cx="0.7104555"
     inkscape:cy="61.809628"
     inkscape:window-width="1920"
     inkscape:window-height="995"
     inkscape:window-x="1920"
     inkscape:window-y="0"
     inkscape:window-maximized="1"
     inkscape:current-layer="g1"><inkscape:page
       x="6.9972888e-21"
       y="-5.9395818e-23"
       width="118.18764"
       height="80"
       id="page1"
       margin="0"
       bleed="0" /></sodipodi:namedview><defs
     id="defs1" /><g
     id="g1"
     inkscape:groupmode="layer"
     inkscape:label="11"
     transform="matrix(0.26458333,0,0,0.26458334,446.48232,-159.28021)"><path
       id="path12"
       d="m -1392.0915,753.1852 c 0,-83.11075 -65.9738,-150.48339 -147.359,-150.48339 -81.3851,0 -147.3589,67.37264 -147.3589,150.48339 0,83.11076 65.9738,150.48338 147.3589,150.48338 81.3852,0 147.359,-67.37262 147.359,-150.48338 z"
       style="fill:#87b1f5;fill-opacity:1;fill-rule:nonzero;stroke:#595959;stroke-width:1.39563;stroke-linecap:butt;stroke-linejoin:miter;stroke-miterlimit:10;stroke-dasharray:5.2337, 5.2337;stroke-dashoffset:0;stroke-opacity:1" /><path
       id="path13"
       d="m -1600.8499,728.10465 v -17.55667 h 122.7989 v 17.55667 z"
       style="fill:#cccccc;fill-opacity:1;fill-rule:nonzero;stroke:none;stroke-width:1.75109" /><path
       id="path14"
       d="m -1600.8499,795.82242 v -17.55667 h 122.7989 v 17.55667 z"
       style="fill:#cccccc;fill-opacity:1;fill-rule:nonzero;stroke:none;stroke-width:1.75109" /><path
       id="path15"
       d="m -1600.8499,778.26575 v -50.16111 h 122.7989 v 50.16111 z"
       style="fill:#f5c787;fill-opacity:1;fill-rule:nonzero;stroke:none;stroke-width:1.75109" /><path
       id="path16"
       d="M -1539.4505,753.1852 V 604.81733"
       style="fill:none;stroke:#595959;stroke-width:2.09347;stroke-linecap:butt;stroke-linejoin:miter;stroke-miterlimit:10;stroke-dasharray:none;stroke-opacity:1" /><path
       id="path17"
       d="m -1546.0886,609.11897 c 3.983,-0.97914 5.8637,-3.16105 6.6381,-5.35938 0.7745,2.19833 2.6552,4.38024 6.6381,5.35938"
       style="fill:none;stroke:#595959;stroke-width:2.09347;stroke-linecap:round;stroke-linejoin:round;stroke-miterlimit:10;stroke-dasharray:none;stroke-opacity:1" /><path
       id="path18"
       d="m -1644.972,677.71745 v -4.98512 c 0,-0.44512 0,-0.6825 0.4154,-0.74185 0.1785,-0.0296 0.7419,-0.0296 1.098,-0.0296 1.721,0 3.8278,0.0592 3.8278,2.8783 0,1.30563 -0.4451,2.87833 -3.2641,2.87833 z m 3.9762,0.26705 c 1.8398,-0.47477 3.3234,-1.66171 3.3234,-3.14538 0,-1.86941 -2.1661,-3.50145 -4.9553,-3.50145 h -5.9347 v 0.62315 h 0.4748 c 1.4539,0 1.4835,0.2077 1.4835,0.8902 v 10.17795 c 0,0.71216 -0.03,0.91988 -1.4835,0.91988 h -0.4748 v 0.59347 c 0.6824,-0.0593 2.0178,-0.0593 2.7596,-0.0593 0.7418,0 2.077,0 2.7595,0.0593 v -0.59347 h -0.4451 c -1.454,0 -1.4836,-0.20772 -1.4836,-0.91988 v -4.86643 h 2.1661 c 0.2969,0 1.0979,0 1.7508,0.65282 0.7122,0.68249 0.7122,1.27596 0.7122,2.58159 0,1.24628 0,2.01778 0.8012,2.75961 0.7714,0.6825 1.81,0.80119 2.3739,0.80119 1.4539,0 1.7804,-1.5727 1.7804,-2.10682 0,-0.11869 0,-0.3264 -0.2374,-0.3264 -0.2078,0 -0.2078,0.17795 -0.2374,0.29674 -0.089,1.36497 -0.7716,1.72105 -1.2464,1.72105 -0.9199,0 -1.0682,-0.97923 -1.3352,-2.78929 l -0.2374,-1.54302 c -0.3561,-1.21662 -1.276,-1.86943 -2.3146,-2.22551 z m 0,0"
       style="fill:#595959;fill-opacity:1;fill-rule:nonzero;stroke:none;stroke-width:1.75109"
       aria-label="R" /><path
       id="path19"
       d="m -1634.1659,684.18863 h 5.6974"
       style="fill:none;stroke:#595959;stroke-width:0.696929;stroke-linecap:butt;stroke-linejoin:miter;stroke-miterlimit:10;stroke-dasharray:none;stroke-opacity:1" /><path
       id="path20"
       d="m -1627.8132,671.33767 v 0.62315 h 0.4747 c 1.454,0 1.4836,0.2077 1.4836,0.8902 v 10.17795 c 0,0.71216 -0.03,0.91988 -1.4836,0.91988 h -0.4747 v 0.59347 h 6.9138 c 3.1751,0 5.7864,-2.84864 5.7864,-6.49847 0,-3.64982 -2.5521,-6.70618 -5.7864,-6.70618 z m 4.5103,12.61118 c -0.8903,0 -0.9199,-0.14832 -0.9199,-0.7715 v -10.44502 c 0,-0.65282 0.03,-0.77151 0.9199,-0.77151 h 1.8991 c 1.1571,0 2.4627,0.41543 3.4421,1.7804 0.801,1.12759 0.9792,2.7893 0.9792,4.30263 0,2.16616 -0.3561,3.32341 -1.0387,4.2433 -0.3857,0.53412 -1.4539,1.6617 -3.3826,1.6617 z m 22.893,-5.96435 c 0,-3.91688 -2.8486,-7.06226 -6.2907,-7.06226 -3.3829,0 -6.2612,3.08603 -6.2612,7.06226 0,3.97623 2.9079,6.97325 6.2612,6.97325 3.4421,0 6.2907,-3.05637 6.2907,-6.97325 z m -6.2611,6.46879 c -1.8101,0 -4.362,-1.69137 -4.362,-6.73584 0,-4.98512 2.7595,-6.32044 4.3324,-6.32044 1.6616,0 4.3618,1.39466 4.3618,6.32044 0,5.13348 -2.6113,6.73584 -4.3322,6.73584 z m 11.9138,-12.67051 c -0.1785,-0.44511 -0.2374,-0.44511 -0.6826,-0.44511 h -3.1749 v 0.62315 h 0.445 c 1.4541,0 1.4838,0.2077 1.4838,0.8902 v 9.67351 c 0,0.50444 0,1.42432 -1.9288,1.42432 v 0.59347 c 0.6528,-0.0296 1.5727,-0.0593 2.1958,-0.0593 0.623,0 1.543,0.0296 2.2255,0.0593 v -0.59347 c -1.9586,0 -1.9586,-0.91988 -1.9586,-1.42432 v -10.41535 h 0.031 l 4.5399,12.01771 c 0.089,0.23739 0.2078,0.41543 0.3857,0.41543 0.2078,0 0.2672,-0.14832 0.3265,-0.35608 l 4.6587,-12.22542 h 0.03 v 11.06815 c 0,0.71216 -0.059,0.91988 -1.5132,0.91988 h -0.4452 v 0.59347 c 0.7122,-0.0593 1.9882,-0.0593 2.73,-0.0593 0.7418,0 1.9882,0 2.7004,0.0593 v -0.59347 h -0.4452 c -1.4539,0 -1.5134,-0.20772 -1.5134,-0.91988 v -10.17795 c 0,-0.6825 0.059,-0.8902 1.5134,-0.8902 h 0.4452 v -0.62315 h -3.2048 c -0.4748,0 -0.4748,0.0296 -0.6233,0.38576 l -4.1244,10.86045 z m 20.2965,-0.6825 c -0.1177,-0.26705 -0.1481,-0.38574 -0.4451,-0.38574 -0.2966,0 -0.3561,0.11869 -0.445,0.38574 l -3.9169,11.54295 c -0.356,0.97921 -1.098,1.27594 -2.1364,1.30562 v 0.59347 c 0.4449,-0.0296 1.2462,-0.0593 1.9287,-0.0593 0.5934,0 1.5726,0.0296 2.1957,0.0593 v -0.59347 c -0.9495,0 -1.4243,-0.47477 -1.4243,-0.97923 0,-0.0593 0,-0.26705 0.03,-0.29673 l 0.8604,-2.52223 h 4.6885 l 1.0088,2.93766 c 0,0.0891 0.03,0.20772 0.03,0.26707 0,0.59346 -1.0384,0.59346 -1.543,0.59346 v 0.59347 c 0.6528,-0.0593 1.9881,-0.0593 2.7003,-0.0593 0.8308,0 1.6913,0.0296 2.4925,0.0593 v -0.59347 h -0.3561 c -1.1277,0 -1.3946,-0.14832 -1.6024,-0.7715 z m -1.0088,2.16617 2.1365,6.26106 h -4.273 z m 11.8916,-0.41543 c 0,-0.6825 0.059,-0.8902 1.5727,-0.8902 h 0.4747 v -0.62315 c -0.6527,0.0593 -2.1365,0.0593 -2.8783,0.0593 -0.7417,0 -2.2255,0 -2.8782,-0.0593 v 0.62315 h 0.4748 c 1.5131,0 1.5726,0.2077 1.5726,0.8902 v 10.17795 c 0,0.71216 -0.059,0.91988 -1.5726,0.91988 h -0.4748 v 0.59347 c 0.6527,-0.0593 2.1365,-0.0593 2.8782,-0.0593 0.7418,0 2.2256,0 2.8783,0.0593 v -0.59347 h -0.4747 c -1.5134,0 -1.5727,-0.20772 -1.5727,-0.91988 z m 6.9807,-1.24628 c -0.1785,-0.23739 -0.2078,-0.26707 -0.5638,-0.26707 h -3.2047 v 0.62315 h 0.534 c 0.2968,0 0.6825,0 0.9495,0.0296 0.4452,0.0593 0.4748,0.0593 0.4748,0.44511 v 10.08894 c 0,0.50444 0,1.42433 -1.9583,1.42433 v 0.59346 c 0.6526,-0.0296 1.6022,-0.0593 2.2255,-0.0593 0.6231,0 1.543,0.0296 2.1957,0.0593 v -0.59346 c -1.9583,0 -1.9583,-0.91989 -1.9583,-1.42433 v -10.05928 c 0.1177,0.0891 0.1177,0.1187 0.2076,0.23739 l 7.715,11.60229 c 0.1482,0.20771 0.1785,0.23739 0.3265,0.23739 0.2373,0 0.2373,-0.14832 0.2373,-0.50446 v -10.65272 c 0,-0.53412 0,-1.42432 1.9586,-1.42432 v -0.62315 c -0.6529,0.0296 -1.5729,0.0592 -2.1959,0.0592 -0.6231,0 -1.5727,-0.0296 -2.2256,-0.0592 v 0.62315 c 1.9586,0 1.9586,0.8902 1.9586,1.42432 v 8.24919 z m 0,0"
       style="fill:#595959;fill-opacity:1;fill-rule:nonzero;stroke:none;stroke-width:1.75109"
       aria-label="DOMAIN" /><path
       id="path21"
       d="m -1506.4186,720.96083 c 53.0541,-31.28016 79.8439,-73.11352 141.7269,-73.11352"
       style="fill:none;stroke:#595959;stroke-width:2.09347;stroke-linecap:butt;stroke-linejoin:miter;stroke-miterlimit:10;stroke-dasharray:none;stroke-opacity:1" /><path
       id="path22"
       d="m -1507.8535,721.80695 c 1.3729,2.42835 4.4133,3.26041 6.7914,1.85842 2.3778,-1.40201 3.1927,-4.50705 1.8199,-6.9354 -1.3731,-2.42837 -4.4136,-3.26041 -6.7916,-1.85842 -2.3778,1.40201 -3.1926,4.50703 -1.8197,6.9354 z"
       style="fill:#595959;fill-opacity:1;fill-rule:nonzero;stroke:#595959;stroke-width:2.09343;stroke-linecap:butt;stroke-linejoin:miter;stroke-miterlimit:10;stroke-dasharray:none;stroke-opacity:1" /><path
       id="path23"
       d="m -1368.9041,641.06851 c 0.9588,4.06735 3.0955,5.988 5.2481,6.77882 -2.1526,0.79082 -4.2893,2.71147 -5.2481,6.77882"
       style="fill:none;stroke:#595959;stroke-width:2.09347;stroke-linecap:round;stroke-linejoin:round;stroke-miterlimit:10;stroke-dasharray:none;stroke-opacity:1" /><path
       id="path24"
       d="m -1343.5057,643.14055 c 0.2374,-0.71216 0.7714,-1.27594 2.0475,-1.27594 v -0.62315 c -0.5935,0.0593 -1.3353,0.0593 -1.8397,0.0593 -0.5638,0 -1.6617,-0.0296 -2.1365,-0.0593 v 0.62315 c 0.9792,0 1.3649,0.50444 1.3649,0.94954 0,0.14832 -0.059,0.26706 -0.089,0.38575 l -3.4719,9.31744 -3.5904,-9.76253 c -0.1177,-0.26707 -0.1177,-0.29674 -0.1177,-0.35608 0,-0.53412 1.0682,-0.53412 1.5429,-0.53412 v -0.62315 c -0.6825,0.0593 -1.9881,0.0593 -2.7002,0.0593 -0.92,0 -1.721,-0.0296 -2.4036,-0.0593 v 0.62315 c 1.2463,0 1.6023,0 1.8695,0.71216 l 4.3619,11.86934 c 0.1481,0.35608 0.2373,0.41543 0.4747,0.41543 0.3265,0 0.3561,-0.0891 0.4748,-0.35608 z m 0,0"
       style="fill:#595959;fill-opacity:1;fill-rule:nonzero;stroke:none;stroke-width:1.75109"
       aria-label="V" /><path
       id="path25"
       d="m -1339.6782,654.0921 h 5.6975"
       style="fill:none;stroke:#595959;stroke-width:0.696929;stroke-linecap:butt;stroke-linejoin:miter;stroke-miterlimit:10;stroke-dasharray:none;stroke-opacity:1" /><path
       id="path26"
       d="m -1321.3988,641.36015 h -11.5431 l -0.3561,4.36199 h 0.4748 c 0.2671,-3.11571 0.5342,-3.76852 3.4124,-3.76852 0.3265,0 0.8309,0 1.009,0.0593 0.3857,0.0593 0.3857,0.29674 0.3857,0.71216 v 10.20764 c 0,0.65281 0,0.91988 -1.9881,0.91988 h -0.7418 v 0.59347 c 0.7714,-0.0593 2.7003,-0.0593 3.5608,-0.0593 0.8901,0 2.819,0 3.5904,0.0593 v -0.59347 h -0.7418 c -1.9881,0 -1.9881,-0.26707 -1.9881,-0.91988 v -10.20764 c 0,-0.38574 0,-0.65282 0.3264,-0.71216 0.2078,-0.0593 0.7418,-0.0593 1.0979,-0.0593 2.8486,0 3.1157,0.65281 3.3828,3.76852 h 0.4749 z m 14.6881,6.52814 c 0,-3.91688 -2.8486,-7.06226 -6.2907,-7.06226 -3.3827,0 -6.261,3.08603 -6.261,7.06226 0,3.97623 2.9079,6.97325 6.261,6.97325 3.4421,0 6.2907,-3.05637 6.2907,-6.97325 z m -6.2609,6.46879 c -1.8102,0 -4.3621,-1.69137 -4.3621,-6.73584 0,-4.98512 2.7596,-6.32044 4.3323,-6.32044 1.6617,0 4.362,1.39466 4.362,6.32044 0,5.13348 -2.6113,6.73584 -4.3322,6.73584 z m 11.6467,-6.02368 h 3.1752 c 2.2848,0 4.3025,-1.54302 4.3025,-3.50146 0,-1.86943 -1.8694,-3.59048 -4.451,-3.59048 h -6.6765 v 0.62315 h 0.4747 c 1.454,0 1.4838,0.2077 1.4838,0.8902 v 10.17795 c 0,0.71216 -0.03,0.91988 -1.4838,0.91988 h -0.4747 v 0.59347 c 0.6825,-0.0593 2.0772,-0.0593 2.7894,-0.0593 0.7121,0 2.1365,0 2.7892,0.0593 v -0.59347 h -0.4452 c -1.4539,0 -1.4836,-0.20772 -1.4836,-0.91988 z m -0.059,-0.50446 v -5.19282 c 0,-0.65282 0.03,-0.77151 0.9199,-0.77151 h 1.6913 c 2.9972,0 2.9972,2.04745 2.9972,2.96733 0,0.91987 0,2.997 -2.9972,2.997 z m 0,0"
       style="fill:#595959;fill-opacity:1;fill-rule:nonzero;stroke:none;stroke-width:1.75109"
       aria-label="TOP" /><path
       id="path27"
       d="m -1506.6879,783.7954 c 45.2749,38.79623 82.2721,59.68075 141.9962,59.68075"
       style="fill:none;stroke:#595959;stroke-width:2.09347;stroke-linecap:butt;stroke-linejoin:miter;stroke-miterlimit:10;stroke-dasharray:none;stroke-opacity:1" /><path
       id="path28"
       d="m -1507.9572,782.70762 c -1.7648,2.14797 -1.4906,5.35032 0.6129,7.15273 2.1032,1.80243 5.2392,1.52228 7.0042,-0.62571 1.7648,-2.148 1.4905,-5.35034 -0.6128,-7.15275 -2.1035,-1.80242 -5.2393,-1.52226 -7.0043,0.62573 z"
       style="fill:#595959;fill-opacity:1;fill-rule:nonzero;stroke:#595959;stroke-width:2.09343;stroke-linecap:butt;stroke-linejoin:miter;stroke-miterlimit:10;stroke-dasharray:none;stroke-opacity:1" /><path
       id="path29"
       d="m -1368.9041,836.69733 c 0.9588,4.06736 3.0955,5.98802 5.2481,6.77882 -2.1526,0.79079 -4.2893,2.71146 -5.2481,6.77883"
       style="fill:none;stroke:#595959;stroke-width:2.09347;stroke-linecap:round;stroke-linejoin:round;stroke-miterlimit:10;stroke-dasharray:none;stroke-opacity:1" /><path
       id="path30"
       d="m -1343.5057,838.76956 c 0.2374,-0.71214 0.7714,-1.27589 2.0475,-1.27589 v -0.62318 c -0.5935,0.0593 -1.3353,0.0593 -1.8397,0.0593 -0.5638,0 -1.6617,-0.0296 -2.1365,-0.0593 v 0.62318 c 0.9792,0 1.3649,0.50442 1.3649,0.94952 0,0.14832 -0.059,0.26704 -0.089,0.38576 l -3.4719,9.31744 -3.5904,-9.76253 c -0.1177,-0.26711 -0.1177,-0.29677 -0.1177,-0.3561 0,-0.53409 1.0682,-0.53409 1.5429,-0.53409 v -0.62318 c -0.6825,0.0593 -1.9881,0.0593 -2.7002,0.0593 -0.92,0 -1.721,-0.0296 -2.4036,-0.0593 v 0.62318 c 1.2463,0 1.6023,0 1.8695,0.71214 l 4.3619,11.86934 c 0.1481,0.35604 0.2373,0.41543 0.4747,0.41543 0.3265,0 0.3561,-0.0891 0.4748,-0.3561 z m 0,0"
       style="fill:#595959;fill-opacity:1;fill-rule:nonzero;stroke:none;stroke-width:1.75109"
       aria-label="V" /><path
       id="path31"
       d="m -1339.6782,849.71776 h 5.6975"
       style="fill:none;stroke:#595959;stroke-width:0.696929;stroke-linecap:butt;stroke-linejoin:miter;stroke-miterlimit:10;stroke-dasharray:none;stroke-opacity:1" /><path
       id="path32"
       d="m -1329.7965,843.01291 v -4.74777 c 0,-0.65281 0.059,-0.77147 0.9496,-0.77147 h 2.3442 c 1.8101,0 2.4926,1.63199 2.4926,2.6409 0,1.24629 -0.9496,2.87834 -3.0268,2.87834 z m 4.4807,0.17793 c 1.8397,-0.38576 3.1157,-1.60239 3.1157,-3.05639 0,-1.66172 -1.7211,-3.26406 -4.1839,-3.26406 h -6.914 v 0.62316 h 0.4451 c 1.454,0 1.5134,0.20771 1.5134,0.89019 v 10.17796 c 0,0.71214 -0.059,0.91986 -1.5134,0.91986 h -0.4451 v 0.59348 h 7.4184 c 2.4926,0 4.2135,-1.72105 4.2135,-3.53115 0,-1.69133 -1.5726,-3.14533 -3.6497,-3.35305 z m -1.1869,6.29072 h -2.3442 c -0.8903,0 -0.9496,-0.14827 -0.9496,-0.77147 v -5.28187 h 3.5608 c 1.8695,0 2.6705,1.81005 2.6705,3.086 0,1.36501 -0.9792,2.96734 -2.9375,2.96734 z m 19.5324,-5.96434 c 0,-3.91686 -2.8486,-7.06225 -6.2907,-7.06225 -3.3827,0 -6.261,3.086 -6.261,7.06225 0,3.97624 2.9079,6.97325 6.261,6.97325 3.4421,0 6.2907,-3.05634 6.2907,-6.97325 z m -6.261,6.46882 c -1.8102,0 -4.362,-1.69138 -4.362,-6.73587 0,-4.98509 2.7596,-6.32043 4.3323,-6.32043 1.6617,0 4.362,1.39467 4.362,6.32043 0,5.13348 -2.6113,6.73587 -4.3323,6.73587 z m 19.9255,-12.99695 h -11.5428 l -0.3561,4.36198 h 0.4747 c 0.2671,-3.11572 0.5343,-3.76853 3.4125,-3.76853 0.3265,0 0.8309,0 1.0088,0.0593 0.386,0.0593 0.386,0.29672 0.386,0.71214 v 10.20763 c 0,0.65281 0,0.91992 -1.9882,0.91992 h -0.7418 v 0.59348 c 0.7714,-0.0593 2.7001,-0.0593 3.5608,-0.0593 0.8901,0 2.8188,0 3.5904,0.0593 v -0.59348 h -0.7418 c -1.9881,0 -1.9881,-0.26711 -1.9881,-0.91992 v -10.20763 c 0,-0.3857 0,-0.6528 0.3264,-0.71214 0.2076,-0.0593 0.7418,-0.0593 1.0979,-0.0593 2.8486,0 3.1156,0.65281 3.3827,3.76853 h 0.4747 z m 13.6498,0 h -11.5429 l -0.356,4.36198 h 0.4747 c 0.267,-3.11572 0.5342,-3.76853 3.4125,-3.76853 0.3265,0 0.8309,0 1.0088,0.0593 0.3859,0.0593 0.3859,0.29672 0.3859,0.71214 v 10.20763 c 0,0.65281 0,0.91992 -1.9882,0.91992 h -0.7418 v 0.59348 c 0.7714,-0.0593 2.7001,-0.0593 3.5609,-0.0593 0.89,0 2.8188,0 3.5904,0.0593 v -0.59348 h -0.7418 c -1.9882,0 -1.9882,-0.26711 -1.9882,-0.91992 v -10.20763 c 0,-0.3857 0,-0.6528 0.3265,-0.71214 0.2075,-0.0593 0.7418,-0.0593 1.0979,-0.0593 2.8486,0 3.1156,0.65281 3.3826,3.76853 h 0.4748 z m 14.6884,6.52813 c 0,-3.91686 -2.8487,-7.06225 -6.2908,-7.06225 -3.3827,0 -6.2611,3.086 -6.2611,7.06225 0,3.97624 2.9081,6.97325 6.2611,6.97325 3.4421,0 6.2908,-3.05634 6.2908,-6.97325 z m -6.2612,6.46882 c -1.81,0 -4.3618,-1.69138 -4.3618,-6.73587 0,-4.98509 2.7596,-6.32043 4.3322,-6.32043 1.6617,0 4.362,1.39467 4.362,6.32043 0,5.13348 -2.6112,6.73587 -4.3324,6.73587 z m 11.914,-12.67054 c -0.1785,-0.44511 -0.2374,-0.44511 -0.6825,-0.44511 h -3.1751 v 0.62316 h 0.4451 c 1.454,0 1.4838,0.20771 1.4838,0.89019 v 9.67354 c 0,0.50442 0,1.42428 -1.9289,1.42428 v 0.59348 c 0.6529,-0.0295 1.5728,-0.0592 2.1959,-0.0592 0.6231,0 1.543,0.0296 2.2256,0.0592 v -0.59348 c -1.9586,0 -1.9586,-0.91986 -1.9586,-1.42428 v -10.41541 h 0.03 l 4.5402,12.01774 c 0.089,0.23738 0.2075,0.41543 0.3857,0.41543 0.2077,0 0.267,-0.14833 0.3264,-0.35604 l 4.6587,-12.22545 h 0.03 v 11.06815 c 0,0.71214 -0.059,0.91986 -1.5134,0.91986 h -0.445 v 0.59348 c 0.7122,-0.0592 1.988,-0.0592 2.73,-0.0592 0.7417,0 1.9879,0 2.7001,0.0592 v -0.59348 h -0.445 c -1.4541,0 -1.5134,-0.20772 -1.5134,-0.91986 v -10.17796 c 0,-0.68248 0.059,-0.89019 1.5134,-0.89019 h 0.445 v -0.62316 h -3.2047 c -0.4748,0 -0.4748,0.0296 -0.6231,0.38578 l -4.1247,10.86044 z m 0,0"
       style="fill:#595959;fill-opacity:1;fill-rule:nonzero;stroke:none;stroke-width:1.75109"
       aria-label="BOTTOM" /><path
       id="path33"
       d="M -1570.1503,776.15022 V 730.22019"
       style="fill:none;stroke:#595959;stroke-width:2.09347;stroke-linecap:butt;stroke-linejoin:miter;stroke-miterlimit:10;stroke-dasharray:5.2337, 5.2337;stroke-dashoffset:0;stroke-opacity:1" /><path
       id="path34"
       d="m -1563.512,771.84861 c -3.9829,0.97914 -5.8637,3.16105 -6.6381,5.35938 -0.7745,-2.19833 -2.6551,-4.38024 -6.6381,-5.35938"
       style="fill:none;stroke:#595959;stroke-width:2.09347;stroke-linecap:round;stroke-linejoin:round;stroke-miterlimit:10;stroke-dasharray:none;stroke-opacity:1" /><path
       id="path35"
       d="m -1576.7882,734.52179 c 3.983,-0.97913 5.8636,-3.16104 6.6381,-5.35938 0.7744,2.19834 2.6552,4.38025 6.6381,5.35938"
       style="fill:none;stroke:#595959;stroke-width:2.09347;stroke-linecap:round;stroke-linejoin:round;stroke-miterlimit:10;stroke-dasharray:none;stroke-opacity:1" /><path
       id="path36"
       d="m -1572.4104,753.66265 c 79.2551,14.27077 126.6202,14.5718 207.7187,14.5718"
       style="fill:none;stroke:#595959;stroke-width:2.09347;stroke-linecap:butt;stroke-linejoin:miter;stroke-miterlimit:10;stroke-dasharray:none;stroke-opacity:1" /><path
       id="path37"
       d="m -1574.0423,753.36886 c -0.4766,2.76146 1.3288,5.39471 4.0329,5.88158 2.7042,0.48686 5.2828,-1.35702 5.7596,-4.11848 0.4766,-2.76145 -1.3288,-5.3947 -4.0331,-5.88157 -2.7041,-0.48687 -5.2825,1.35702 -5.7594,4.11847 z"
       style="fill:#595959;fill-opacity:1;fill-rule:nonzero;stroke:#595959;stroke-width:2.09345;stroke-linecap:butt;stroke-linejoin:miter;stroke-miterlimit:10;stroke-dasharray:none;stroke-opacity:1" /><path
       id="path38"
       d="m -1368.9041,761.45563 c 0.9588,4.06734 3.0955,5.98799 5.2481,6.77882 -2.1526,0.79082 -4.2893,2.71147 -5.2481,6.77881"
       style="fill:none;stroke:#595959;stroke-width:2.09347;stroke-linecap:round;stroke-linejoin:round;stroke-miterlimit:10;stroke-dasharray:none;stroke-opacity:1" /><path
       id="path39"
       d="m -1350.9537,768.71821 h 3.1751 c 2.2848,0 4.3026,-1.54302 4.3026,-3.50146 0,-1.86942 -1.8695,-3.59047 -4.4509,-3.59047 h -6.6767 v 0.62313 h 0.4748 c 1.4541,0 1.4837,0.20772 1.4837,0.8902 v 10.17797 c 0,0.71216 -0.03,0.91987 -1.4837,0.91987 h -0.4748 v 0.59346 c 0.6825,-0.0593 2.0773,-0.0593 2.7894,-0.0593 0.7121,0 2.1365,0 2.7892,0.0593 v -0.59346 h -0.4449 c -1.4542,0 -1.4838,-0.20771 -1.4838,-0.91987 z m -0.059,-0.50445 v -5.19284 c 0,-0.65282 0.03,-0.77151 0.9197,-0.77151 h 1.6915 c 2.997,0 2.997,2.04747 2.997,2.96734 0,0.91988 0,2.99701 -2.997,2.99701 z m 0,0"
       style="fill:#595959;fill-opacity:1;fill-rule:nonzero;stroke:none;stroke-width:1.75109"
       aria-label="P" /><path
       id="path40"
       d="m -1341.2533,774.47822 h 5.6975"
       style="fill:none;stroke:#595959;stroke-width:0.696929;stroke-linecap:butt;stroke-linejoin:miter;stroke-miterlimit:10;stroke-dasharray:none;stroke-opacity:1" /><path
       id="path41"
       d="m -1334.9077,761.62628 v 0.62313 h 0.4748 c 1.4539,0 1.4838,0.20772 1.4838,0.8902 v 10.17797 c 0,0.71216 -0.03,0.91987 -1.4838,0.91987 h -0.4748 v 0.59346 h 6.9139 c 3.1751,0 5.7863,-2.84864 5.7863,-6.49845 0,-3.64984 -2.5518,-6.70618 -5.7863,-6.70618 z m 4.5103,12.61117 c -0.89,0 -0.9199,-0.14832 -0.9199,-0.77151 v -10.44502 c 0,-0.65282 0.03,-0.77151 0.9199,-0.77151 h 1.8991 c 1.1574,0 2.463,0.41543 3.4421,1.7804 0.8013,1.12759 0.9792,2.7893 0.9792,4.30265 0,2.16614 -0.356,3.32342 -1.0384,4.24328 -0.3859,0.53412 -1.4541,1.66171 -3.3829,1.66171 z m 13.5237,-11.09784 c 0,-0.68248 0.059,-0.8902 1.5726,-0.8902 h 0.4748 v -0.62313 c -0.6527,0.0593 -2.1364,0.0593 -2.8782,0.0593 -0.7418,0 -2.2256,0 -2.8783,-0.0593 v 0.62313 h 0.4747 c 1.5134,0 1.5727,0.20772 1.5727,0.8902 v 10.17797 c 0,0.71216 -0.059,0.91987 -1.5727,0.91987 h -0.4747 v 0.59346 c 0.6527,-0.0593 2.1365,-0.0593 2.8783,-0.0593 0.7418,0 2.2255,0 2.8782,0.0593 v -0.59346 h -0.4748 c -1.5131,0 -1.5726,-0.20771 -1.5726,-0.91987 z m 9.169,4.18395 -2.4034,-0.59347 c -1.187,-0.29672 -1.9288,-1.3353 -1.9288,-2.43321 0,-1.36497 1.0386,-2.5519 2.5222,-2.5519 3.1455,0 3.5608,3.17504 3.6795,4.03557 0,0.11869 0,0.23739 0.2078,0.23739 0.267,0 0.267,-0.0891 0.267,-0.44512 v -3.88719 c 0,-0.32642 0,-0.47478 -0.2078,-0.47478 -0.1481,0 -0.1481,0.0296 -0.2967,0.26705 l -0.6528,1.09793 c -0.5637,-0.5638 -1.3353,-1.36498 -3.0266,-1.36498 -2.1069,0 -3.6795,1.69138 -3.6795,3.73885 0,1.60236 0.9792,3.02668 2.4629,3.53111 0.2076,0.0891 1.187,0.32642 2.4926,0.65282 0.5043,0.14832 1.0978,0.26707 1.6023,0.97923 0.4154,0.50444 0.5934,1.15725 0.5934,1.7804 0,1.36498 -0.9495,2.75961 -2.5222,2.75961 -0.5638,0 -1.9882,-0.0891 -2.997,-1.03855 -1.098,-1.03858 -1.1572,-2.28486 -1.1572,-2.96734 -0.03,-0.20772 -0.1786,-0.20772 -0.2374,-0.20772 -0.2374,0 -0.2374,0.14832 -0.2374,0.47477 v 3.88722 c 0,0.3264 0,0.44509 0.2078,0.44509 0.1177,0 0.1481,-0.0296 0.267,-0.23738 0,-0.0296 0.059,-0.0891 0.6825,-1.09791 0.5935,0.65282 1.81,1.33529 3.4717,1.33529 2.2256,0 3.7388,-1.86941 3.7388,-4.00589 0,-1.92878 -1.2462,-3.53114 -2.8487,-3.91689 z m 16.4984,-5.57858 h -11.5429 l -0.356,4.36197 h 0.4747 c 0.267,-3.1157 0.5342,-3.76851 3.4125,-3.76851 0.3265,0 0.8309,0 1.0088,0.0593 0.3859,0.0593 0.3859,0.29673 0.3859,0.71216 v 10.20764 c 0,0.65281 0,0.91986 -1.9882,0.91986 h -0.7418 v 0.59347 c 0.7714,-0.0593 2.7002,-0.0593 3.5609,-0.0593 0.8901,0 2.8188,0 3.5904,0.0593 v -0.59347 h -0.7418 c -1.9882,0 -1.9882,-0.26705 -1.9882,-0.91986 V 763.1099 c 0,-0.38576 0,-0.65281 0.3265,-0.71216 0.2075,-0.0593 0.7418,-0.0593 1.0979,-0.0593 2.8486,0 3.1156,0.65281 3.3826,3.76851 h 0.4748 z m 0,0"
       style="fill:#595959;fill-opacity:1;fill-rule:nonzero;stroke:none;stroke-width:1.75109"
       aria-label="DIST" /><path
       id="path42"
       d="m -1500.5479,746.40106 c 39.9201,-34.20765 83.1222,-8.26511 135.8562,-8.26511"
       style="fill:none;stroke:#595959;stroke-width:2.09347;stroke-linecap:butt;stroke-linejoin:miter;stroke-miterlimit:10;stroke-dasharray:none;stroke-opacity:1" /><path
       id="path43"
       d="m -1501.8174,747.48887 c 1.765,2.14799 4.9007,2.42814 7.0042,0.62573 2.1034,-1.80241 2.3777,-5.00476 0.6129,-7.15275 -1.7651,-2.14799 -4.901,-2.42815 -7.0043,-0.62571 -2.1034,1.8024 -2.3777,5.00476 -0.6128,7.15273 z"
       style="fill:#595959;fill-opacity:1;fill-rule:nonzero;stroke:#595959;stroke-width:2.09343;stroke-linecap:butt;stroke-linejoin:miter;stroke-miterlimit:10;stroke-dasharray:none;stroke-opacity:1" /><path
       id="path44"
       d="m -1368.9041,731.35715 c 0.9588,4.06736 3.0955,5.988 5.2481,6.77883 -2.1526,0.79081 -4.2893,2.71146 -5.2481,6.77882"
       style="fill:none;stroke:#595959;stroke-width:2.09347;stroke-linecap:round;stroke-linejoin:round;stroke-miterlimit:10;stroke-dasharray:none;stroke-opacity:1" /><path
       id="path45"
       d="m -1352.6747,743.22137 c 0,0.71216 -0.059,0.91987 -1.5134,0.91987 h -0.4451 v 0.59347 h 10.9198 l 0.7716,-4.98513 h -0.4748 c -0.4748,2.96733 -0.8903,4.39166 -4.1542,4.39166 h -2.4926 c -0.8903,0 -0.9495,-0.14832 -0.9495,-0.77151 v -5.16316 h 1.7209 c 1.81,0 2.0178,0.62315 2.0178,2.25517 h 0.4748 v -5.10382 h -0.4748 c 0,1.66171 -0.2078,2.25518 -2.0178,2.25518 h -1.7209 v -4.62905 c 0,-0.65281 0.059,-0.7715 0.9495,-0.7715 h 2.4331 c 2.8783,0 3.3829,1.03857 3.7091,3.73884 h 0.4452 l -0.5044,-4.36197 h -10.6528 v 0.62313 h 0.4451 c 1.454,0 1.5134,0.20772 1.5134,0.8902 z m 14.5845,-4.59938 h 3.1749 c 2.285,0 4.3028,-1.54301 4.3028,-3.50145 0,-1.86942 -1.8695,-3.59047 -4.4511,-3.59047 h -6.6765 v 0.62313 h 0.4748 c 1.4539,0 1.4836,0.20772 1.4836,0.8902 v 10.17797 c 0,0.71216 -0.031,0.91987 -1.4836,0.91987 h -0.4748 v 0.59347 c 0.6826,-0.0593 2.0771,-0.0593 2.7893,-0.0593 0.7121,0 2.1364,0 2.7893,0.0593 v -0.59347 h -0.4451 c -1.454,0 -1.4836,-0.20771 -1.4836,-0.91987 z m -0.059,-0.50444 v -5.19284 c 0,-0.65282 0.03,-0.77151 0.9199,-0.77151 h 1.6914 c 2.9969,0 2.9969,2.04747 2.9969,2.96734 0,0.91988 0,2.99701 -2.9969,2.99701 z m 15.2076,-0.8902 -2.4036,-0.59346 c -1.1869,-0.29673 -1.9287,-1.33531 -1.9287,-2.43322 0,-1.36497 1.0387,-2.55191 2.5222,-2.55191 3.1453,0 3.5608,3.17504 3.6796,4.03558 0,0.11869 0,0.23739 0.2077,0.23739 0.267,0 0.267,-0.0891 0.267,-0.44512 v -3.88719 c 0,-0.32642 0,-0.47477 -0.2077,-0.47477 -0.1482,0 -0.1482,0.0296 -0.2967,0.26704 l -0.6529,1.09793 c -0.5638,-0.5638 -1.3353,-1.36497 -3.0266,-1.36497 -2.1068,0 -3.6795,1.69137 -3.6795,3.73884 0,1.60236 0.9792,3.02668 2.4628,3.53111 0.2078,0.0891 1.1871,0.32642 2.4927,0.65282 0.5044,0.14832 1.0979,0.26707 1.6023,0.97923 0.4153,0.50444 0.5934,1.15725 0.5934,1.7804 0,1.36498 -0.9495,2.75961 -2.5222,2.75961 -0.5638,0 -1.9881,-0.0891 -2.9969,-1.03855 -1.0981,-1.03858 -1.1573,-2.28486 -1.1573,-2.96734 -0.03,-0.20772 -0.1785,-0.20772 -0.2374,-0.20772 -0.2374,0 -0.2374,0.14832 -0.2374,0.47477 v 3.88722 c 0,0.32639 0,0.44509 0.2078,0.44509 0.1177,0 0.1481,-0.0296 0.267,-0.23739 0,-0.0296 0.059,-0.0891 0.6824,-1.0979 0.5934,0.65282 1.8102,1.33529 3.4718,1.33529 2.2254,0 3.7388,-1.86941 3.7388,-4.00589 0,-1.92878 -1.2462,-3.53114 -2.8486,-3.91689 z m 0,0"
       style="fill:#595959;fill-opacity:1;fill-rule:nonzero;stroke:none;stroke-width:1.75109"
       aria-label="EPS" /><path
       id="path46"
       d="m -1317.8865,744.37991 h 5.6975"
       style="fill:none;stroke:#595959;stroke-width:0.696929;stroke-linecap:butt;stroke-linejoin:miter;stroke-miterlimit:10;stroke-dasharray:none;stroke-opacity:1" /><path
       id="path47"
       d="m -1311.5401,731.53007 v 0.62313 h 0.4748 c 1.4541,0 1.4837,0.20772 1.4837,0.8902 v 10.17797 c 0,0.71216 -0.03,0.91987 -1.4837,0.91987 h -0.4748 v 0.59347 h 6.914 c 3.175,0 5.7862,-2.84865 5.7862,-6.49846 0,-3.64984 -2.5518,-6.70618 -5.7862,-6.70618 z m 4.5104,12.61117 c -0.8901,0 -0.9197,-0.14832 -0.9197,-0.77151 v -10.44502 c 0,-0.65282 0.03,-0.77151 0.9197,-0.77151 h 1.8991 c 1.1573,0 2.4629,0.41543 3.4421,1.7804 0.8012,1.12759 0.9793,2.7893 0.9793,4.30265 0,2.16614 -0.3561,3.32342 -1.0386,4.24328 -0.3857,0.53412 -1.4539,1.66171 -3.3828,1.66171 z m 13.5236,-11.09784 c 0,-0.68248 0.059,-0.8902 1.5728,-0.8902 h 0.4748 v -0.62313 c -0.6529,0.0593 -2.1365,0.0593 -2.8785,0.0593 -0.7418,0 -2.2253,0 -2.8782,-0.0593 v 0.62313 h 0.4748 c 1.5134,0 1.5726,0.20772 1.5726,0.8902 v 10.17797 c 0,0.71216 -0.059,0.91987 -1.5726,0.91987 h -0.4748 v 0.59347 c 0.6529,-0.0593 2.1364,-0.0593 2.8782,-0.0593 0.742,0 2.2256,0 2.8785,0.0593 v -0.59347 h -0.4748 c -1.5133,0 -1.5728,-0.20771 -1.5728,-0.91987 z m 5.1633,10.17797 c 0,0.71216 -0.059,0.91987 -1.5134,0.91987 h -0.4452 v 0.59347 h 10.9198 l 0.7716,-4.98513 h -0.4747 c -0.4748,2.96733 -0.8903,4.39166 -4.1543,4.39166 h -2.4926 c -0.8903,0 -0.9495,-0.14832 -0.9495,-0.77151 v -5.16316 h 1.7209 c 1.8102,0 2.0178,0.62315 2.0178,2.25517 h 0.4748 v -5.10382 h -0.4748 c 0,1.66171 -0.2076,2.25518 -2.0178,2.25518 h -1.7209 v -4.62905 c 0,-0.65281 0.059,-0.7715 0.9495,-0.7715 h 2.4331 c 2.8785,0 3.3829,1.03857 3.7094,3.73884 h 0.4449 l -0.5044,-4.36197 h -10.6528 v 0.62313 h 0.4452 c 1.4539,0 1.5134,0.20772 1.5134,0.8902 z m 21.2905,-3.47179 h -0.4747 c -0.2076,1.95844 -0.4748,4.39166 -3.7982,4.39166 h -1.543 c -0.8902,0 -0.9496,-0.14832 -0.9496,-0.77151 v -10.29664 c 0,-0.65282 0,-0.91989 1.8102,-0.91989 h 0.6231 v -0.62313 c -0.6825,0.0593 -2.4035,0.0593 -3.1751,0.0593 -0.7418,0 -2.2255,0 -2.8782,-0.0593 v 0.62313 h 0.4451 c 1.4539,0 1.5132,0.20772 1.5132,0.8902 v 10.17797 c 0,0.71216 -0.059,0.91987 -1.5132,0.91987 h -0.4451 v 0.59347 h 9.8515 z m 3.3903,3.47179 c 0,0.71216 -0.059,0.91987 -1.5134,0.91987 h -0.4451 v 0.59347 h 10.9198 l 0.7716,-4.98513 h -0.4748 c -0.4748,2.96733 -0.8903,4.39166 -4.1543,4.39166 h -2.4925 c -0.8903,0 -0.9496,-0.14832 -0.9496,-0.77151 v -5.16316 h 1.721 c 1.8102,0 2.0177,0.62315 2.0177,2.25517 h 0.4748 v -5.10382 h -0.4748 c 0,1.66171 -0.2075,2.25518 -2.0177,2.25518 h -1.721 v -4.62905 c 0,-0.65281 0.059,-0.7715 0.9496,-0.7715 h 2.4331 c 2.8784,0 3.3828,1.03857 3.7093,3.73884 h 0.4449 l -0.5044,-4.36197 h -10.6527 v 0.62313 h 0.4451 c 1.454,0 1.5134,0.20772 1.5134,0.8902 z m 11.3499,-5.10382 c 0,4.0059 3.0564,7.03258 6.558,7.03258 3.086,0 4.9553,-2.6706 4.9553,-4.92578 0,-0.17794 0,-0.3264 -0.267,-0.3264 -0.2078,0 -0.2078,0.1187 -0.2078,0.3264 -0.1481,2.75964 -2.1957,4.33231 -4.2431,4.33231 -1.1573,0 -4.8665,-0.65281 -4.8665,-6.40944 0,-5.7863 3.6795,-6.43911 4.8367,-6.43911 2.0772,0 3.7389,1.75072 4.1246,4.59936 0.03,0.26707 0.03,0.32642 0.2968,0.32642 0.3263,0 0.3263,-0.0592 0.3263,-0.47478 v -4.56969 c 0,-0.32642 0,-0.47477 -0.2076,-0.47477 -0.089,0 -0.1785,0 -0.3264,0.23738 l -0.9199,1.42432 c -0.7122,-0.6825 -1.6914,-1.6617 -3.5014,-1.6617 -3.5312,0 -6.558,3.08602 -6.558,7.0029 z m 0,0"
       style="fill:#595959;fill-opacity:1;fill-rule:nonzero;stroke:none;stroke-width:1.75109"
       aria-label="DIELEC" /><path
       id="path48"
       d="m -1500.5479,860.29082 c 27.9518,23.95197 54.5379,28.32851 91.6479,28.32851"
       style="fill:none;stroke:#595959;stroke-width:2.09347;stroke-linecap:butt;stroke-linejoin:miter;stroke-miterlimit:10;stroke-dasharray:none;stroke-opacity:1" /><path
       id="path49"
       d="m -1501.8174,859.20302 c -1.7649,2.148 -1.4906,5.35036 0.6128,7.15272 2.1033,1.80248 5.2392,1.52231 7.0043,-0.62569 1.7648,-2.148 1.4905,-5.35035 -0.6129,-7.15277 -2.1035,-1.80242 -5.2392,-1.52226 -7.0042,0.62574 z"
       style="fill:#595959;fill-opacity:1;fill-rule:nonzero;stroke:#595959;stroke-width:2.09343;stroke-linecap:butt;stroke-linejoin:miter;stroke-miterlimit:10;stroke-dasharray:none;stroke-opacity:1" /><path
       id="path50"
       d="m -1413.1122,881.84051 c 0.9588,4.06736 3.0955,5.98803 5.2481,6.77882 -2.1526,0.79086 -4.2893,2.71147 -5.2481,6.77883"
       style="fill:none;stroke:#595959;stroke-width:2.09347;stroke-linecap:round;stroke-linejoin:round;stroke-miterlimit:10;stroke-dasharray:none;stroke-opacity:1" /><path
       id="path51"
       d="m -1396.8804,893.70241 c 0,0.71214 -0.059,0.91985 -1.5134,0.91985 h -0.445 v 0.59348 h 10.9198 l 0.7714,-4.98515 h -0.4748 c -0.4748,2.96733 -0.8901,4.39167 -4.1542,4.39167 h -2.4926 c -0.8901,0 -0.9496,-0.14832 -0.9496,-0.77153 v -5.16314 h 1.7212 c 1.81,0 2.0178,0.62314 2.0178,2.2552 h 0.4748 v -5.10382 h -0.4748 c 0,1.66172 -0.2078,2.25514 -2.0178,2.25514 h -1.7212 v -4.629 c 0,-0.65287 0.059,-0.77153 0.9496,-0.77153 h 2.4333 c 2.8783,0 3.3826,1.03858 3.7091,3.73887 h 0.4451 l -0.5045,-4.36201 h -10.6526 v 0.62314 h 0.445 c 1.4541,0 1.5134,0.20772 1.5134,0.89019 z m 14.5844,-4.59939 h 3.1751 c 2.2848,0 4.3026,-1.543 4.3026,-3.50143 0,-1.86943 -1.8695,-3.59048 -4.4511,-3.59048 h -6.6764 v 0.62314 h 0.4747 c 1.454,0 1.4837,0.20766 1.4837,0.89019 v 10.17797 c 0,0.71214 -0.03,0.91985 -1.4837,0.91985 h -0.4747 v 0.59348 c 0.6825,-0.0593 2.0772,-0.0593 2.7893,-0.0593 0.7122,0 2.1365,0 2.7892,0.0593 v -0.59348 h -0.4451 c -1.454,0 -1.4836,-0.20771 -1.4836,-0.91985 z m -0.059,-0.50443 v -5.19287 c 0,-0.65281 0.031,-0.77147 0.92,-0.77147 h 1.6913 c 2.9971,0 2.9971,2.04743 2.9971,2.96734 0,0.91986 0,2.997 -2.9971,2.997 z m 15.2078,-0.89025 -2.4037,-0.59342 c -1.1869,-0.29676 -1.9287,-1.33534 -1.9287,-2.43324 0,-1.36495 1.0387,-2.55191 2.5222,-2.55191 3.1455,0 3.5608,3.17505 3.6795,4.03558 0,0.11872 0,0.23738 0.2078,0.23738 0.2669,0 0.2669,-0.0891 0.2669,-0.4451 v -3.88719 c 0,-0.32643 0,-0.47476 -0.2075,-0.47476 -0.1481,0 -0.1481,0.0295 -0.2968,0.26704 l -0.6528,1.09791 c -0.5638,-0.56376 -1.3354,-1.36495 -3.0267,-1.36495 -2.1069,0 -3.6795,1.69138 -3.6795,3.73881 0,1.60238 0.9791,3.02666 2.4629,3.53115 0.2078,0.0891 1.1869,0.32637 2.4926,0.65281 0.5044,0.14832 1.0979,0.26704 1.6022,0.97924 0.4156,0.50443 0.5935,1.15724 0.5935,1.78038 0,1.36495 -0.9495,2.75962 -2.5222,2.75962 -0.5638,0 -1.9881,-0.0891 -2.9969,-1.03857 -1.0979,-1.03858 -1.1574,-2.28486 -1.1574,-2.96734 -0.03,-0.20771 -0.1784,-0.20771 -0.2374,-0.20771 -0.2373,0 -0.2373,0.14832 -0.2373,0.47476 v 3.88725 c 0,0.32637 0,0.44509 0.2077,0.44509 0.1178,0 0.1482,-0.0295 0.267,-0.23738 0,-0.0295 0.059,-0.089 0.6826,-1.09796 0.5934,0.65281 1.81,1.33534 3.4717,1.33534 2.2256,0 3.7389,-1.86943 3.7389,-4.00591 0,-1.92876 -1.2463,-3.53115 -2.8486,-3.91692 z m 0,0"
       style="fill:#595959;fill-opacity:1;fill-rule:nonzero;stroke:none;stroke-width:1.75109"
       aria-label="EPS" /><path
       id="path52"
       d="m -1362.0938,894.86082 h 5.6975"
       style="fill:none;stroke:#595959;stroke-width:0.696929;stroke-linecap:butt;stroke-linejoin:miter;stroke-miterlimit:10;stroke-dasharray:none;stroke-opacity:1" /><path
       id="path53"
       d="m -1348.8615,881.77367 c -0.1177,-0.26704 -0.1481,-0.38571 -0.4451,-0.38571 -0.2968,0 -0.3561,0.11867 -0.4452,0.38571 l -3.9169,11.54297 c -0.356,0.97919 -1.0978,1.27596 -2.1365,1.30562 v 0.59348 c 0.4452,-0.0295 1.2464,-0.0593 1.9288,-0.0593 0.5934,0 1.5728,0.0295 2.1959,0.0593 v -0.59348 c -0.9495,0 -1.4243,-0.47476 -1.4243,-0.97924 0,-0.0592 0,-0.26705 0.03,-0.29671 l 0.8605,-2.52224 h 4.6885 l 1.0088,2.93767 c 0,0.089 0.03,0.20771 0.03,0.26704 0,0.59348 -1.0385,0.59348 -1.543,0.59348 v 0.59348 c 0.6528,-0.0593 1.988,-0.0593 2.7001,-0.0593 0.8309,0 1.6916,0.0295 2.4926,0.0593 v -0.59348 h -0.3561 c -1.1274,0 -1.3945,-0.14832 -1.6022,-0.77153 z m -1.009,2.1662 2.1365,6.26105 h -4.273 z m 11.8916,-0.41543 c 0,-0.68253 0.059,-0.89019 1.5728,-0.89019 h 0.4748 v -0.62314 c -0.6529,0.0592 -2.1365,0.0592 -2.8785,0.0592 -0.7417,0 -2.2253,0 -2.8782,-0.0592 v 0.62314 h 0.4748 c 1.5134,0 1.5726,0.20766 1.5726,0.89019 v 10.17797 c 0,0.71214 -0.059,0.91985 -1.5726,0.91985 h -0.4748 v 0.59348 c 0.6529,-0.0593 2.1365,-0.0593 2.8782,-0.0593 0.742,0 2.2256,0 2.8785,0.0593 v -0.59348 h -0.4748 c -1.5134,0 -1.5728,-0.20771 -1.5728,-0.91985 z m 6.825,4.86644 v -4.98516 c 0,-0.44509 0,-0.68247 0.4153,-0.7418 0.1785,-0.0295 0.742,-0.0295 1.0981,-0.0295 1.7209,0 3.8278,0.0593 3.8278,2.87834 0,1.30562 -0.4452,2.87829 -3.2642,2.87829 z m 3.9761,0.26704 c 1.8398,-0.47476 3.3234,-1.66172 3.3234,-3.14538 0,-1.86944 -2.1661,-3.50143 -4.9553,-3.50143 h -5.9347 v 0.62314 h 0.4748 c 1.4539,0 1.4836,0.20766 1.4836,0.89019 v 10.17797 c 0,0.71214 -0.03,0.91985 -1.4836,0.91985 h -0.4748 v 0.59348 c 0.6824,-0.0593 2.0178,-0.0593 2.7596,-0.0593 0.7418,0 2.077,0 2.7596,0.0593 v -0.59348 h -0.4452 c -1.4539,0 -1.4835,-0.20771 -1.4835,-0.91985 v -4.86644 h 2.166 c 0.2969,0 1.098,0 1.7508,0.65281 0.7122,0.68248 0.7122,1.27596 0.7122,2.58157 0,1.24629 0,2.01782 0.8012,2.75963 0.7714,0.68247 1.8101,0.80119 2.3739,0.80119 1.454,0 1.7804,-1.57272 1.7804,-2.10681 0,-0.11872 0,-0.32644 -0.2374,-0.32644 -0.2077,0 -0.2077,0.17799 -0.2374,0.29677 -0.089,1.36495 -0.7716,1.72105 -1.2464,1.72105 -0.9199,0 -1.0682,-0.97924 -1.3352,-2.78929 l -0.2374,-1.54299 c -0.3561,-1.21663 -1.276,-1.86944 -2.3146,-2.22554 z m 0,0"
       style="fill:#595959;fill-opacity:1;fill-rule:nonzero;stroke:none;stroke-width:1.75109"
       aria-label="AIR" /></g></svg>
