<?xml version="1.0" encoding="UTF-8" standalone="no"?>
<!-- Created with Inkscape (http://www.inkscape.org/) -->

<svg width="64" height="64" viewBox="0 0 16.933333 16.933333" version="1.1" id="svg10185" xml:space="preserve" xmlns="http://www.w3.org/2000/svg" xmlns:svg="http://www.w3.org/2000/svg"><defs id="defs10182" /><g id="layer1"><g id="g1049"><path id="path1044" style="fill:#ffffff;stroke-width:0.0142653" d="m 12.476768,4.1639737 c -0.187557,9.1e-5 -0.37405,0.04335 -0.545703,0.139009 -0.960628,0.628134 -1.122649,1.861596 -1.255737,2.907833 0.118175,0.414613 -0.501633,0.458853 -0.168465,0.767395 -0.5785573,0.227197 -1.2591047,0.269771 -1.861385,0.134876 0.013099,-0.228034 -0.00136,-0.449188 -0.1958537,-0.117306 0.0091,-0.287252 -0.077282,-0.348291 -0.3141927,-0.181901 C 7.7049913,7.2430217 7.2235782,6.7118707 6.7680732,6.1607507 6.2708974,5.6730697 5.6388702,5.2641577 4.9495795,5.1163697 4.27451,4.9278007 3.5987928,5.4371977 3.459748,6.0915047 c -0.1747482,0.815405 2.8e-5,1.705435 0.333313,2.466516 -0.2089462,0.379978 -0.694773,0.61774 -0.9797852,0.983919 -0.6730277,0.4618163 -1.4031156,0.9072233 -1.88205562,1.5890503 -0.0439676,0.261928 -0.73627905,0.937886 -0.24236246,0.849561 -0.0405225,0.05613 -0.17114336,0.508442 -0.12764079,0.767395 0.49787257,-0.319672 -0.004289,0.360885 0.19326985,0.702283 0.59869142,-0.28394 -0.24343782,0.924224 0.46250402,0.837674 -0.42502378,0.401165 0.2291601,0.39154 -0.1064534,0.722954 0.3457956,0.155458 -0.29458148,0.415904 0.042891,0.65474 -0.48193759,0.122531 0.062354,0.310081 0.3265951,0.221692 0.2342659,0.116055 1.2542444,-0.205189 0.9053711,0.103353 1.1620123,0.127581 2.3426052,0.0069 3.5052124,0.160197 0.7105593,0.09015 1.4287836,-0.0039 2.1347534,0.03411 0.7143789,0.121446 1.4459978,0.08431 2.1802286,0.112138 0.546995,-0.204003 0.955887,0.365447 1.524972,0.299207 0.15542,0.0129 0.312315,0.008 0.468188,0.0052 0.762806,0.01503 1.482281,-0.348289 2.250509,-0.217041 0.796218,0.22932 1.248862,-0.467218 1.786971,-0.871781 0.510304,-0.614618 -0.167369,-1.346302 -0.827857,-1.437122 -0.320782,-0.427804 -0.623153,-0.839807 -0.703833,-1.206128 0.688367,0.09212 -0.34115,-0.519419 0.1726,-0.491959 -0.419648,-0.23394 0.08968,-0.366299 0.05374,-0.605131 0.36771,-0.331125 -0.215428,-0.142722 -0.270268,-0.49351 0.445859,-0.178959 -0.0012,-0.308617 0.216008,-0.467672 -0.05135,-0.126615 -0.614899,-0.189057 -0.168465,-0.471806 -0.622057,0.05748 0.283365,-0.3799563 -0.192237,-0.3870563 4.87e-4,-0.661453 -0.113627,-1.412344 -0.380855,-2.047937 0.111008,-0.938522 0.136279,-1.953815 -0.287321,-2.824117 -0.233311,-0.528035 -0.808297,-0.916498 -1.370976,-0.916223 z" /><path style="fill:#000000;stroke-width:0.0142653" d="m 11.730521,16.596422 c -0.569085,0.06624 -0.97796,-0.503269 -1.524955,-0.299266 -0.7342341,-0.02783 -1.4658494,0.0094 -2.1802304,-0.112046 -0.7059719,-0.03805 -1.4243228,0.05598 -2.1348842,-0.03417 C 4.7278409,15.997668 3.5472487,16.118394 2.3852328,15.990813 2.7341073,15.682271 1.7141847,16.003075 1.4799179,15.88702 1.2156768,15.975409 0.67151692,15.788289 1.1534561,15.665758 0.81598165,15.426922 1.4563317,15.166156 1.1105349,15.010698 1.4461496,14.679284 0.79190655,14.689056 1.2169318,14.287891 0.51098765,14.374441 1.3531589,13.166222 0.75446555,13.450162 0.55690663,13.108764 1.0592587,12.428424 0.56138459,12.748096 0.5178819,12.489143 0.64836903,12.036702 0.68889161,11.980575 0.19497355,12.0689 0.88708915,11.392684 0.93105685,11.130756 1.4099984,10.448926 2.1405158,10.00366 2.8135456,9.5418411 3.0985587,9.1756624 3.5843681,8.9379697 3.7933149,8.5579886 3.460029,7.7969075 3.2848528,6.906751 3.4596016,6.0913434 3.5986467,5.4370365 4.2747605,4.9277811 4.9498321,5.1163503 5.6391249,5.2641383 6.2711288,5.6729451 6.7683061,6.1606268 7.2238126,6.7117497 7.7051241,7.2430626 8.1355656,7.8139231 8.3724771,7.6475335 8.458597,7.7085605 8.4494932,7.9958122 8.6439868,7.6639309 8.6587428,7.8851948 8.6456438,8.1132287 c 0.6022821,0.1348982 1.282632,0.092185 1.8611912,-0.1350173 -0.333168,-0.3085421 0.286575,-0.3526154 0.1684,-0.767228 0.133088,-1.0462404 0.29542,-2.2798503 1.256051,-2.9079844 0.686613,-0.3826323 1.605485,0.072997 1.916567,0.7770472 0.4236,0.8703049 0.398446,1.8858031 0.287438,2.8243284 0.267228,0.6355962 0.380877,1.3862574 0.38039,2.0477108 0.475602,0.0071 -0.429546,0.4444476 0.192511,0.3869716 -0.446434,0.282749 0.11709,0.345529 0.168444,0.472144 -0.217201,0.159055 0.229697,0.288545 -0.216162,0.467504 0.05484,0.350791 0.638077,0.162558 0.270367,0.493683 0.03594,0.238832 -0.473498,0.371236 -0.05385,0.605176 -0.51375,-0.02746 0.515917,0.58401 -0.17245,0.491892 0.08068,0.366321 0.38281,0.778127 0.703595,1.205934 0.660488,0.09082 1.338379,0.822548 0.828072,1.437169 -0.538109,0.404563 -0.990837,1.101294 -1.787058,0.871974 -0.768231,-0.131248 -1.487803,0.231767 -2.250612,0.216739 -0.155873,0.0028 -0.312602,0.0081 -0.468022,-0.0048 z m 0.221113,-0.219745 c 0.491921,0.0075 1.805481,-0.04664 1.42022,-0.77491 -0.234158,-0.29118 -0.708066,-0.653877 -0.500051,-1.116072 0.349385,-0.665527 1.195881,-0.579831 1.823241,-0.487793 0.610152,0.06628 -0.06984,-0.482089 -0.22621,-0.68608 -0.282918,-0.389319 -0.8192,-0.533622 -1.224956,-0.630984 -0.148675,-0.116354 -0.400051,-0.02156 -0.57188,-0.412084 -0.223758,-0.231791 -0.195895,-0.45168 -0.320568,-0.543536 0.01079,-0.265778 0.332438,0.264393 0.270782,-0.04314 0.40216,-0.06445 -0.42009,-0.533347 -0.52923,-0.810671 -0.38067,-0.679135 0.190482,1.064501 -0.215195,0.284729 -0.23375,-0.141287 -0.471375,-1.076004 -0.150911,-0.789244 -0.01933,-0.487793 0.07358,-0.289498 0.129721,0.06074 0.04691,-0.172211 0.258278,-0.8136687 0.251845,-0.214957 -0.126411,0.410777 0.608519,0.920976 0.286267,0.22367 -0.211596,-0.375805 0.245003,-0.962092 0.416262,-0.6929662 0.190537,-0.086952 -0.06419,0.3238682 0.280979,0.050489 C 13.464134,9.7066148 13.01656,9.649761 12.966209,9.5123698 13.180417,9.4067821 12.294885,9.4678274 12.690907,9.1262211 12.323231,9.1431543 12.852654,8.8808188 12.402278,8.935783 12.578639,8.6783681 12.195192,8.910658 12.224018,8.6597099 11.978824,8.5465285 11.765699,8.3728856 11.550775,8.4150262 11.423692,8.0974626 10.694135,8.3017755 11.29758,8.5760631 c 0.160857,0.3519281 0.353558,-0.184587 0.368108,0.1566752 0.206685,-0.1866035 0.105534,0.2097594 0.300711,-0.044142 -0.0017,0.1657933 -0.148324,0.8827055 -0.165742,0.3476637 -0.18351,0.4473164 -0.237393,-0.2246253 -0.292303,0.2859101 -0.0672,0.3560207 -0.184839,0.7307559 -0.206709,0.1363623 -0.123397,-0.3082334 -0.227656,-0.629435 -0.523639,-0.8107309 -0.599862,-0.6277531 0.244656,0.2813729 0.207338,0.6249257 0.190606,0.336139 0.418,1.1746268 -0.08588,0.494583 -0.09156,-0.034611 0.0327,0.4511828 -0.193919,0.076869 0.125733,0.4990438 -0.421906,-0.6259186 -0.34064,-0.172077 C 10.156217,9.4597139 9.3852985,9.1589396 10.14136,9.2742299 10.483503,9.444745 9.7074206,8.9598078 10.203182,9.1448503 10.52847,9.1318865 10.887696,9.3972295 10.491464,9.0328394 10.270046,8.8085505 9.7647658,8.3518008 9.7146547,8.6806045 9.392127,8.5079128 9.5349733,8.7070142 9.5012476,8.7924193 9.2601332,8.637872 8.8511054,8.3197404 9.2284821,8.7760818 9.3378809,9.4107538 8.260813,8.2112671 8.6861186,8.8667332 9.1130431,9.3474722 7.8737364,8.7677479 8.5250852,9.2059907 8.4191743,9.4490366 7.5420438,9.3915903 8.2111831,9.5261656 8.0740459,9.5669809 7.5134434,9.5892037 7.8630777,9.7070974 7.159105,9.7904304 8.6275212,9.8779412 7.8768337,9.9454234 7.5112165,9.8472254 6.8479688,10.461501 7.5400651,10.309578 c 0.6678685,0.06663 -1.0104115,0.361373 -0.2913159,0.492595 -0.4269281,0.265327 -0.2395958,0.175806 0.1274702,0.153069 -0.210169,0.163513 -0.57955,0.468437 -0.096497,0.188395 0.3147664,-0.184804 0.7275254,-0.176036 0.1352897,0.04256 -0.3624102,0.227009 -0.4716055,0.503864 -0.00196,0.136897 0.1644283,-0.07455 0.6648115,-0.318734 0.2671649,0.0207 0.2747831,-0.119013 0.7424013,-0.159708 0.2288761,0.106331 -0.441364,0.182465 1.1941722,-0.35842 0.4569229,0.06668 -0.5456166,0.3071 -0.3202657,0.975096 0.1386033,0.909827 0.4038786,0.133731 0.6291621,-0.683463 1.0835401,-0.88098 0.7578266,-0.250665 -0.5881852,0.09266 -0.5643008,0.427386 -0.087579,-0.313474 0.3435415,-0.546307 0.3211214,-0.648766 0.1754487,-0.0738 0.75549,-0.367149 0.1803504,-0.20817 -0.4455087,0.191903 -0.5196547,0.01642 -0.093329,-0.155738 0.3230444,-0.151683 0.7073726,0.01698 0.1970683,-0.25664 0.2402231,-0.169899 0.7712953,0.449377 0.4818463,-0.02954 0.291755,0.20878 0.474563,0.435999 0.175906,-0.02766 -0.131968,-0.453066 0.496924,0.810516 0.406129,0.285155 0.245689,0.119171 0.109935,0.937065 0.36345,0.556029 0.01718,0.626753 0.499887,0.155297 0.458395,-0.381294 0.106514,0.06149 0.155722,0.611676 0.282746,0.659871 0.03837,0.325849 0.253156,0.582595 0.354259,0.78024 -0.396957,0.035 -0.195119,0.381716 -0.562198,0.702987 -0.204138,0.432733 -0.450371,0.948531 -0.863645,1.385159 0.18421,-0.03581 0.415087,0.338094 0.04021,0.445853 -0.279463,0.308544 -4.2e-4,1.239043 0.588784,1.27945 0.198996,0.03299 0.396165,0.02103 0.596683,0.0167 z m 3.202579,-0.375474 c 0.64672,-0.264401 0.195139,-0.959418 0.177897,-1.443689 -0.120314,-0.586008 0.01693,0.535172 -0.174638,0.731016 0.01734,0.35251 -0.857773,0.689828 -0.0032,0.712673 z m -6.4076131,-0.02386 c 0.2483856,-0.09251 -0.2097328,-0.315748 -0.3917035,-0.149086 -0.6644825,-0.07433 0.2792408,0.242612 0.3917035,0.149086 z M 6.5165232,15.956552 C 6.7311843,15.8989 5.7894308,15.651966 6.299585,15.279209 6.6252761,14.555045 7.2863067,15.044755 7.0523703,15.671172 7.2948326,16.337503 7.2103404,14.808414 7.1452028,14.703211 6.990613,13.944517 5.8671423,14.930876 5.9393374,14.549433 6.1013601,14.282011 6.7323876,14.28692 6.1313546,14.10227 5.8233357,13.723983 4.8930817,13.979221 4.956419,13.462933 c 0.181656,-0.17897 -0.3563673,-0.473509 -0.1979214,-0.67057 0.00172,-0.143399 0.07716,-0.116681 0.088554,-0.331025 0.4243131,-0.1526 0.024659,-0.174547 0.020395,-0.297331 0.2692099,0.04358 -0.069583,-0.159398 0.089315,-0.245858 C 4.5002105,11.57188 4.5275395,10.969278 4.3982865,10.464333 4.3246979,9.9919024 4.2409166,9.505005 4.0044987,9.1017869 3.580176,9.259568 3.0823292,9.7574794 3.570696,9.7345155 2.744661,9.7963148 2.0840708,10.350957 1.5022387,10.887833 c 0.2986664,0.05729 -1.01899567,1.013516 -0.2184183,0.464246 0.2905541,-0.171354 0.8340166,-0.276689 0.209083,0.0491 -0.2197566,0.179761 -0.60230735,0.546175 -0.3904665,0.52932 -0.13635965,0.39946 -0.17221915,0.41306 0.1360312,0.210795 -0.01033,0.329659 0.3086908,-0.245397 0.5009109,-0.210237 0.1883409,0.02672 -0.81247835,0.633332 -0.7253979,1.087158 0.24554,-0.321857 0.4315432,-0.396468 0.702678,-0.645998 -0.1103309,0.239214 -0.74275985,1.059001 -0.1970445,0.757428 -0.1478378,0.427121 -0.1961521,0.575189 0.1789812,0.322127 -0.3752109,0.800905 0.4460872,-0.123908 0.75962,-0.158729 0.3582069,-0.204879 0.6619741,-0.498474 1.0701465,-0.583882 -0.14714,0.176081 -0.9937312,0.727993 -0.7993208,0.712132 0.5333467,-0.268083 -0.3853553,0.74453 -0.2836817,0.823755 0.2865157,-0.38536 0.9263158,-0.804778 0.6277068,-0.325626 0.2369657,-0.273695 0.5651498,-0.15492 0.1064215,0.169847 0.4754806,0.01996 -0.5523213,0.705743 -0.2227097,0.804343 0.072346,0.158695 -0.4869731,0.771948 0.064497,0.627886 -0.2887054,0.522784 0.3155623,0.375193 0.7518656,0.285604 0.3740198,-0.226056 0.8824375,-0.312605 0.3589064,-0.594639 -0.088044,-0.284957 -0.7399229,-0.03073 -0.2935719,-0.442402 0.1998024,-0.186645 0.4347956,-0.441997 0.2315118,0.02619 0.2853689,-0.156922 0.1533679,0.485618 0.4458993,0.01531 -0.00735,0.304321 0.2282459,0.26944 0.4932959,0.345021 0.1489159,-0.516073 0.1353064,0.31594 0.2501778,-0.159839 0.2650986,-0.157672 -0.1853688,0.79365 -0.1259694,0.921299 0.62562,0.282805 0.3133984,-0.898025 0.5771131,-0.791324 0.1442661,0.406891 0.031043,-0.44061 0.2278594,-0.177279 0.3622452,-0.429036 -0.1604397,0.895345 0.3822643,1.021956 l 0.060349,-0.0023 0.1355211,-0.01261 z M 3.9844181,14.623204 c 0.035183,-0.0508 0.017254,0.05215 0,0 z M 1.3167919,12.206969 c 7.581e-4,-0.06784 0.07444,0.0086 0,0 z M 7.443193,15.920415 C 7.39052,15.530246 8.0423528,15.124162 7.476542,14.902967 7.405369,15.107629 7.2187945,15.733534 7.443193,15.920415 Z m 2.81086,-0.05612 c -0.07099,-0.05971 0.01844,0.05679 0,0 z m 0.02317,-0.01807 c -0.04742,-0.03692 0.04521,0.07782 0,0 z m -0.0338,-0.0283 c -0.211246,-0.211338 -0.623179,-0.31767 -0.241263,-0.547008 -0.1604852,-0.0017 -0.4991455,-0.569233 -0.2287872,0.0408 -0.2608537,0.382062 0.2539072,0.394216 0.4700502,0.506209 z m -5.5671275,-0.0186 c 0.3034691,0.0059 0.4146078,-0.506822 0.084282,-0.137279 -0.058492,-0.457579 -0.2390037,-0.01653 -0.3245245,0.130935 0.08136,-0.01002 0.1606163,0.04758 0.2402431,0.0064 z m 4.493595,-0.120043 c 0.3286694,-0.138174 0.354965,-0.07281 0.084841,-0.190277 C 9.3760341,15.253352 8.685347,15.278136 9.1288012,15.045736 8.7547568,14.835868 9.4997135,14.756042 9.2280272,14.593721 9.7661098,14.502081 9.016709,14.510671 9.520809,14.318019 9.8432928,14.169693 9.0890355,14.340679 9.566717,14.049478 9.7610048,13.960818 8.9202436,13.529561 9.1197356,13.39635 8.9573985,13.12581 8.4902993,13.000278 8.4237439,12.83756 8.3592519,12.655645 7.5846156,13.123308 7.2985707,12.8713 c -0.3247695,0.125601 -0.5725772,0.463124 -0.075894,0.195625 0.3259098,-0.04556 -0.1209478,0.350364 0.2783094,0.223188 -0.3664261,0.260873 -0.9545799,0.122911 -1.3845848,0.423704 -0.4202351,0.256324 0.7157693,-0.101678 0.5980103,0.436779 0.1744039,0.535786 1.4017862,0.441015 1.3826172,0.589032 -0.4308259,0.216465 0.1530175,0.244784 0.4665937,0.406033 -0.2906361,0.0928 -0.3574031,0.135959 -0.1941187,0.221459 -0.8179054,0.195117 0.7049226,0.28085 0.8003863,0.312167 z M 13.944531,15.44052 c 0.455038,-0.334293 -0.3739,0.04327 -0.394664,-0.02577 0.103229,0.09837 0.276433,0.09381 0.394664,0.02577 z M 9.3323121,15.364 c -0.070473,-0.03041 0.02238,0.06818 0,0 z m 5.6017169,0.0025 c 0.245654,-0.201061 -0.160112,-0.642403 -0.07309,-0.08245 -0.06581,-0.035 0.07055,0.147464 0.07309,0.08245 z m 0.08558,-0.14833 c 0.04948,-0.06664 -0.01771,0.06245 0,0 z m 1.081576,0.04654 c 0.558388,-0.367445 -0.215319,-0.894369 -0.639443,-1.067891 -0.04377,0.30722 0.506987,1.398919 0.402919,0.650043 0.447863,0.04817 -0.0466,0.592531 0.236524,0.417848 z M 14.38974,15.158164 c -0.01636,-0.381074 0.295089,-0.30729 0.330108,-0.131951 0.106514,-0.305417 0.03262,-1.031154 -0.338142,-0.488597 -0.33545,-0.448871 -1.270546,0.614107 -0.46133,0.31732 0.297458,-0.102496 0.462079,0.17639 0.469364,0.303228 z m -4.372042,-0.634809 c 0.400046,-0.274812 0.68875,-0.68072 1.113704,-0.926253 -0.565069,0.01887 0.496313,-0.335738 0.02111,-0.405996 0.423882,-0.24336 -0.348723,0.07871 -0.19786,-0.387305 -0.106934,0.458738 -1.3234361,0.390575 -1.1632492,0.136068 -0.2102422,0.107139 -0.5372385,-0.460544 -0.8355366,-0.218102 0.1066875,0.205001 0.3382989,0.580946 0.8127336,0.531321 -0.1240197,0.258037 0.4102882,-0.01436 0.2644632,0.224468 0.736011,-0.245374 0.04132,0.743099 -0.1428042,0.874581 -0.0781,0.169256 -0.2104341,0.352137 0.1274412,0.171218 z M 6.0600737,13.051048 c 0.317169,-0.266293 -0.060237,0.196546 0.3398779,-0.133378 -0.043654,0.297735 0.4398427,-0.612151 0.018203,-0.09224 0.2234016,-0.407107 -0.6170105,0.421083 -0.3580805,0.225619 z m 8.2134703,-0.290132 c -0.02375,-0.377578 -0.101731,-0.627546 -0.118288,-0.09512 -0.0445,0.05584 0.231365,0.410474 0.118288,0.09512 z m -8.2656427,0.04503 c 0.4210194,-0.172751 0.1508911,-0.152792 -0.048954,0.01868 l 0.04895,-0.01861 z m 1.6997813,-0.114528 c 0.3559957,-0.100751 0.2402075,-0.03104 0.1196149,-0.187211 0.2230817,-0.09087 -0.1724146,-0.07584 -0.205767,-0.127678 -0.2317615,-0.02357 0.1665688,-0.211099 -0.204677,-0.133248 0.2610898,-0.427061 -0.9994441,0.792191 -0.2442231,0.254397 0.3315121,-0.175634 -0.2861584,0.524731 0.255994,0.116672 0.4228867,-0.114337 -0.1181251,0.326287 0.2790633,0.07709 z m 2.2801882,-0.07368 c 0.5820872,0.01365 0.5689472,-0.558552 0.1477022,-0.748036 0.410456,0.404307 -0.4024672,0.85818 -0.2995372,0.767014 l 0.15187,-0.01894 z M 8.074719,12.603178 c -0.056509,-0.02991 -0.013294,0.03224 0,0 z m 5.888352,-0.174012 c -0.01157,-0.236736 0.18363,-1.273377 -0.02931,-0.538124 -0.338774,0.232456 -0.460539,0.412439 -0.0373,0.682641 0.07047,0.0071 0.07744,-0.105792 0.06662,-0.144517 z m -12.98864835,0.06851 c -0.032549,-0.09935 -0.010126,0.09931 0,0 z M 6.207842,12.470226 c 0.2535843,-0.04526 0.5656885,-0.342607 0.6292273,-0.24728 -0.1894918,0.285342 0.6204963,-0.502508 0.095876,-0.182767 0.02421,-0.19452 -0.4194467,0.368357 -0.404797,0.04873 -0.1758157,-0.0389 -0.5518653,0.503046 -0.3203058,0.381318 z m 6.463976,-0.275694 c -0.01081,-0.09153 -0.04048,0.13014 0,0 z m -5.0925239,-0.09609 c 0.3142066,-0.201644 -0.1862393,0.08363 0,0 z m 2.2160347,-0.0038 c 0.117633,-0.253906 -0.1895874,0.05859 0,0 z m -2.0663492,-0.08183 c -0.036163,-0.02607 -0.056716,0.04595 0,0 z m 5.8854244,-0.305071 c 0.520941,-0.546775 -0.236513,0.34898 -0.450208,-0.168107 -0.04103,0.22563 0.31555,0.261319 0.450208,0.168107 z m -0.836823,0.0173 c -0.07453,-0.01509 -0.05065,0.04171 0,0 z m 1.23088,-0.257113 c -0.02749,0.0062 0.02057,0.0625 0,0 z m -0.813602,-0.228871 c -0.01936,-0.150474 -0.166837,0.225348 0,0 z M 6.3534216,11.08997 C 6.4598312,10.91993 6.2191421,10.768305 6.4376186,10.756728 6.2516773,10.567703 6.9050944,10.753028 6.4854656,10.48656 6.3404061,10.136082 6.8488286,10.70003 6.6706189,10.173367 6.5184803,9.6336804 7.1845297,10.045586 6.9158107,9.5447313 6.7969825,9.0630613 6.6411719,8.6894897 6.2944213,8.32877 5.9125898,7.9029094 6.0045198,7.2427042 5.6728873,6.8200475 5.4968118,6.4683271 4.9598349,5.9165314 5.0552923,6.6900316 5.0607997,7.0564626 5.5901514,8.3863402 4.8312016,7.6983558 4.1764327,7.0824674 4.7142781,8.3516671 4.9946135,8.5514274 5.2022479,9.0241228 5.855876,9.3738907 5.9298287,8.6584563 6.1670663,8.8595061 6.5780039,9.7587839 6.269906,10.096792 5.71897,9.5493352 6.1055546,10.954805 5.6277002,10.287732 5.3513322,9.9606704 5.2394244,9.532492 5.0182797,9.1805008 4.9502064,8.9847439 4.7758798,8.6251268 4.5906963,8.4184846 4.3249262,8.1763613 3.5250921,7.195176 3.9362723,8.1189528 4.1609106,8.557211 4.7992267,8.8499771 4.6207389,9.2667712 4.7363958,9.5774169 5.1055267,9.9462454 4.9465704,10.090191 5.4715893,10.561532 4.5051186,9.9324674 4.5140807,9.876404 c 0.117192,0.405618 0.038406,1.300364 0.5513547,1.016399 0.2824896,0.303989 0.8993251,0.317976 1.2408501,0.267059 l 0.047135,-0.0699 z m 7.6452954,-0.07242 c -0.254496,-0.381562 -0.474149,-0.908685 -0.917012,-0.750734 -0.08034,0.108492 0.368871,0.06318 -0.0768,0.124881 -0.416334,0.735014 0.647426,-0.148132 0.770349,0.539367 0.03628,0.07425 0.15372,0.222486 0.223462,0.08649 z M 13.421939,10.197368 C 13.30308,9.9691614 12.988925,9.7885632 13.049907,10.045989 c 0.124931,-0.05199 0.358382,0.136071 0.372032,0.151379 z m 0.626117,-0.2113686 c 0.104855,-0.4518055 0.185819,-0.9477419 0.149179,-1.3883487 -0.100891,-0.4280898 -0.652171,0.5297632 -0.48887,-0.094301 0.0516,-0.5569299 0.07922,-1.1250907 0.08454,-1.6804943 0.02453,-0.3099271 0.127715,-0.7730113 -0.133856,-0.1964174 -0.0949,0.2790688 -0.04605,1.2796852 -0.221995,1.1990476 -0.08381,-0.3744244 -0.04258,-1.2233609 -0.205996,-1.3468885 -0.107344,0.6055442 -0.651205,0.2133493 -0.296405,-0.1973753 0.265424,-0.9127345 -0.615127,0.4716446 -0.51897,0.8027757 0.03839,0.2589065 -0.38176,0.648275 0.07916,0.4101073 -0.445066,0.228846 -0.210326,0.8069364 0.155735,0.7826051 -0.257933,0.4165751 0.851421,0.022142 0.235415,0.4694872 0.238664,-0.098602 0.326653,-0.073178 0.124074,0.1314729 0.528317,-0.1128618 -0.267591,0.3510089 0.400238,0.2755938 0.05872,0.1010569 -0.254073,0.2191449 0.153508,0.2207176 -0.320519,0.2410194 0.454713,0.3587644 0.152852,0.4839077 0.08507,0.046912 0.278318,0.093426 0.331392,0.1281113 z M 7.3214923,8.281709 C 7.4009534,7.9643887 7.6844723,8.120962 7.5532918,7.6288151 7.429789,7.3823802 7.0700569,7.1257572 7.218839,7.5364262 6.9592773,7.1160198 6.3417718,6.9424031 6.1951899,6.6060842 5.8971076,5.9333051 6.0801109,7.0419849 6.411654,7.2161888 6.7297459,7.4539303 6.2566923,7.7712793 6.682264,7.9830417 6.6310012,8.3049464 7.1816884,8.4670823 7.3214923,8.281709 Z M 11.778648,7.554746 c -0.07102,-0.3680029 0.362218,-0.8927622 0.04153,-0.9767004 0.221316,-0.4250413 -0.325554,0.1272303 -0.307264,-0.3999427 -0.0301,-0.3857772 0.184211,-1.1147266 -0.08957,-0.3298761 -0.130206,0.5633195 -0.259254,1.4642639 0.21534,1.7892098 0.09821,0.010492 0.180951,0.2647526 0.139959,-0.082691 z m 0.144833,-1.245502 c -0.06241,0.017119 -0.02731,0.040094 0,0 z" id="path12512" /></g></g></svg>
