<?xml version="1.0" encoding="UTF-8" standalone="no"?>
<!-- Created with Inkscape (http://www.inkscape.org/) -->

<svg
   width="210mm"
   height="297mm"
   viewBox="0 0 210 297"
   version="1.1"
   id="svg5"
   inkscape:version="1.1.1 (c3084ef, 2021-09-22)"
   sodipodi:docname="abdomen.svg"
   xmlns:inkscape="http://www.inkscape.org/namespaces/inkscape"
   xmlns:sodipodi="http://sodipodi.sourceforge.net/DTD/sodipodi-0.dtd"
   xmlns="http://www.w3.org/2000/svg"
   xmlns:svg="http://www.w3.org/2000/svg">
  <sodipodi:namedview
     id="namedview7"
     pagecolor="#ffffff"
     bordercolor="#999999"
     borderopacity="1"
     inkscape:pageshadow="0"
     inkscape:pageopacity="0"
     inkscape:pagecheckerboard="0"
     inkscape:document-units="mm"
     showgrid="false"
     inkscape:zoom="1"
     inkscape:cx="329.5"
     inkscape:cy="-162.5"
     inkscape:window-width="3760"
     inkscape:window-height="2107"
     inkscape:window-x="80"
     inkscape:window-y="25"
     inkscape:window-maximized="0"
     inkscape:current-layer="layer1"
     inkscape:snap-global="false" />
  <defs
     id="defs2" />
  <g
     inkscape:label="Lager 1"
     inkscape:groupmode="layer"
     id="layer1">
    <path
       id="path2418"
       style="fill:#008000;stroke:#000000;stroke-width:2.94269px;stroke-linecap:butt;stroke-linejoin:miter;stroke-opacity:1"
       d="M 359.83984 -360.00195 L 359 -359.99219 L 359 -307.44922 L 362.18359 -300.70117 L 385.10547 -296.30859 L 389.51758 -283.99805 L 411.55469 -276.08789 L 410.67773 -264.66211 L 430.07031 -258.50586 L 431.83789 -244.43945 L 445.93945 -234.77148 L 444.17773 -223.33984 L 457.4043 -210.1543 L 453.875 -196.0918 L 465.33789 -185.54297 L 471.51172 -171.47656 L 471.51172 -153.01758 L 465.33789 -149.49805 L 469.74414 -138.94922 L 460.93164 -128.40039 L 467.98242 -115.21484 L 458.28711 -102.02734 L 454.75977 -93.240234 L 454.75977 -80.054688 L 445.0625 -74.779297 L 446.82422 -64.230469 L 435.36133 -47.525391 L 429.19141 -40.494141 L 414.20117 -42.251953 L 412.43945 -30.822266 L 405.38672 -22.910156 L 395.68555 -21.154297 L 388.63477 -16.759766 L 381.58203 -9.7226562 L 373.64844 -14.998047 L 363.94531 -5.3300781 L 359 -4.4589844 L 359 44.285156 L 392.25586 31.785156 L 446.28125 6.3164062 L 493.43359 -64.205078 L 511.11523 -123.94922 L 512.09961 -194.4707 L 493.43359 -241.48438 L 425.65234 -324.74219 L 359.83984 -360.00195 z "
       transform="scale(0.26458333)" />
    <path
       id="path2528"
       style="fill:#008000;stroke:#000000;stroke-width:2.94269px;stroke-linecap:butt;stroke-linejoin:miter;stroke-opacity:1"
       d="M 359 -359.99219 L 320.54492 -359.50195 L 282.23242 -359.02148 L 224.27734 -328.66211 L 176.14062 -264.99219 L 117.20117 -149.41992 L 96.572266 -97.503906 L 92.640625 -41.673828 L 98.535156 -12.291016 L 128.00586 20.03125 L 185.9668 55.292969 L 239.01172 69.984375 L 320.54492 56.291016 L 332.33203 54.310547 L 359 44.285156 L 359 -4.4589844 L 348.95898 -2.6914062 L 343.66797 3.4628906 L 321.62695 6.9746094 L 317.2207 11.373047 L 314.57422 14.011719 L 306.63867 7.8554688 L 298.70508 25.435547 L 274.01758 28.074219 L 260.79297 31.589844 L 249.33398 28.074219 L 235.22461 27.197266 L 215.82812 20.160156 L 206.13086 23.679688 L 201.72461 12.25 L 192.02148 7.8554688 L 190.25977 -6.2109375 L 175.27539 1.7011719 L 154.11523 -12.361328 L 146.17969 -25.546875 L 132.07031 -42.251953 L 140.00586 -56.318359 L 136.47852 -73.017578 L 140.89062 -84.449219 L 132.95508 -107.30273 L 144.41406 -117.85156 L 144.41406 -135.4375 L 154.11523 -145.10352 L 159.4043 -163.56445 L 174.39062 -172.35742 L 174.39062 -191.69531 L 187.61523 -204.00586 L 188.49805 -222.46484 L 203.48633 -225.10156 L 208.77539 -243.56445 L 212.30469 -252.34961 L 213.18164 -258.50586 L 228.17383 -265.53711 L 234.3418 -276.9668 L 246.6875 -280.48438 L 251.0957 -298.06641 L 266.08203 -301.58398 L 285.47852 -306.85742 L 291.65234 -319.16211 L 300.4668 -315.64453 L 315.45898 -324.4375 L 317.2207 -322.67969 L 327.79883 -312.13086 L 355.13281 -315.64453 L 359 -307.44922 L 359 -359.99219 z "
       transform="scale(0.26458333)" />
    <path
       id="path1694"
       style="fill:#ff8080;stroke:#000000;stroke-width:2.94269px;stroke-linecap:butt;stroke-linejoin:miter;stroke-opacity:1"
       d="M 6.1992188 -493.21094 L -96.945312 -487.33398 L -103.74609 -477.16211 L -76.345703 -481.25 L 16.609375 -482.15039 L 111.64062 -475.82812 L 198.90039 -460.20898 L 280.98242 -442.52344 L 293.67188 -433.22852 L 304.28906 -417.73828 L 229.71484 -371.26758 L 164.46289 -279.87109 L 96.103516 -154.39453 L 15.316406 -115.66992 L -57.703125 -111.02148 L -99.650391 -137.35742 L -144.70508 -117.21875 L -188.20508 -117.21875 L -216.17188 -97.082031 L -250.35156 -89.333984 L -217.72656 -27.371094 L -214.61914 53.179688 L -241.0293 79.513672 L -279.35352 112.82031 L -331.13867 152.32031 L -385.51562 196.46875 L -427.46289 238.0332 L -427.46289 238.03516 L -452.32031 290.1875 L -464.75 339.75781 L -481.83984 367.64258 L -509.80273 355.24805 L -556.41211 296.38477 L -581.78711 229 L -599.91211 149.22266 L -604.83203 70.734375 L -601.4668 0.51171875 L -584.63672 -92.691406 L -553.30664 -177.63281 L -519.90234 -240.88477 L -519.90234 -240.88672 L -483.39258 -296.91016 L -439.375 -343.64258 L -416.58789 -361.58594 L -393.79883 -379.52539 L -329.32617 -419.28711 L -309.39648 -426.7832 L -256.56445 -446.6543 L -169.82422 -467.30859 L -130.63086 -473.1543 L -123.60547 -474.20117 L -121.99414 -476.55664 L -121.50586 -482.43359 L -131.33008 -481.94531 L -201.07422 -468.72266 L -285.55273 -451.0918 L -372.98438 -411.91211 L -450.58594 -354.125 L -518.36719 -277.72656 L -564.54102 -200.34766 L -599.9043 -106.31836 L -615.61719 -19.148438 L -617.21289 34.837891 L -614.63867 84.675781 L -610.13281 135.63867 L -602.85156 179.68164 L -585.6582 245.79492 L -562.57227 299.17969 L -519.35156 356.96484 L -473.18359 384.39258 L -442.33789 393.93164 L -430.94141 395.16406 L -431.22852 385.12109 L -432.9043 326.59961 L -413.25781 264.89453 L -374.94727 206.12695 L -315.02344 160.09375 L -233.49219 127.77148 L -205.00586 87.615234 L -183.39258 62.144531 L -145.08203 41.576172 L -110.70117 39.619141 L -77.300781 58.230469 L -54.212891 74.880859 L -41.9375 79.775391 L -25.728516 75.861328 L -3.625 67.046875 L 35.669922 67.046875 L 86.748047 93.492188 L 144.70898 113.08008 L 220.3457 109.16016 L 261.60547 116.01758 L 312.6875 127.77148 L 357.87109 126.78906 L 375.55273 106.2207 L 367.69727 82.712891 L 334.29492 66.064453 L 247.85352 79.775391 L 190.87695 69.003906 L 127.02734 33.742188 L 89.693359 -8.3769531 L 37.632812 -33.839844 L -24.253906 -34.822266 L -80.248047 -23.068359 L -130.3457 8.2773438 L -182.4082 0.43945312 L -206.96875 -28.945312 L -211.87891 -63.224609 L -202.05859 -84.775391 L -156.86914 -108.28125 L -103.82422 -82.8125 L -46.845703 -69.101562 L 28.791016 -73.996094 L 96.335938 -94.117188 L 96.572266 -97.503906 L 117.20117 -149.41992 L 176.14258 -264.99219 L 224.27734 -328.66211 L 282.23438 -359.02148 L 320.54492 -359.50391 L 359.83984 -360.00195 L 425.65234 -324.74219 L 493.43359 -241.48438 L 512.09961 -194.4707 L 511.11523 -123.94922 L 493.43359 -64.205078 L 446.28125 6.3164062 L 392.25586 31.785156 L 375.01758 38.265625 L 402.1582 75.167969 L 441.03711 55.785156 L 478.62891 25.798828 L 519.64844 -52.443359 L 526.83398 -77.916016 L 528.86719 -81.503906 L 538.77734 -116.63672 L 549.27734 -135.16211 L 565.0918 -146.62305 L 580.96094 -135.88477 L 584.73438 -128.26953 L 581.84375 -143.54297 L 541.57031 -242.4668 L 468.87891 -343.35352 L 397.16602 -396.24414 L 295.00586 -448.1543 L 155.51172 -479.49414 L 6.1992188 -493.21094 z "
       transform="scale(0.26458333)" />
    <path
       id="path4935"
       style="fill:#552200;stroke:#000000;stroke-width:0.778587px;stroke-linecap:butt;stroke-linejoin:miter;stroke-opacity:1"
       d="m 40.366243,34.583556 -6.75713,0.517795 v 4.406553 l 2.339177,6.477742 3.118909,0.25965 -2.080276,3.369459 2.339177,3.627593 v 5.701803 l 3.898641,3.627593 1.819865,-2.072694 2.599598,-6.738907 -0.866533,-9.490355 -0.692922,0.420609 0.519312,3.887253 -3.118909,5.182493 -1.559455,-3.109799 0.519312,-3.627593 0.520831,-1.554899 -3.379329,-2.332354 -1.040133,-4.405048 3.63973,-0.5193 1.818355,4.924348 2.617878,-0.580043 -0.278691,-3.047551 -0.519311,-3.887253 z" />
    <path
       id="path4612"
       style="fill:#552200;stroke:#000000;stroke-width:0.778587px;stroke-linecap:butt;stroke-linejoin:miter;stroke-opacity:1"
       d="m 72.854377,41.320948 -7.536862,1.296755 -6.498229,3.887253 -5.197675,5.700288 -4.678363,5.961452 -3.638231,11.4021 1.038633,11.66175 4.159052,8.034147 9.356727,8.551951 10.916182,5.182496 8.577005,2.592 6.498229,0.25815 0.0762,-17.776578 -1.635605,5.597029 -9.877559,3.369449 -3.63822,-3.109799 2.858498,-11.143945 -3.63822,2.850138 -9.356737,6.219607 -5.977398,-3.627603 -2.339187,-6.997042 3.118909,-3.627603 6.237819,-1.814549 8.056173,-0.259651 -0.779722,-1.813043 -9.356727,-0.25966 -4.937265,-1.29524 -1.040143,-5.184008 2.078766,-5.700297 3.898642,-3.629099 9.617137,9.589046 0.519312,-2.591994 -4.157532,-12.179544 3.37781,-2.850149 5.718506,-1.037105 3.898632,4.146904 0.779732,7.774496 -2.078776,7.514847 2.339187,1.554899 1.818355,-6.997052 4.614393,-1.840374 0.064,-14.745724 z" />
    <path
       id="path2866"
       style="fill:#1a2020;stroke:#000000;stroke-width:2.94269px;stroke-linecap:butt;stroke-linejoin:miter;stroke-opacity:1"
       d="M 458.05273 -192.24609 L 174.39062 -179.39062 L 174.39062 -172.35742 L 159.4043 -163.56445 L 154.11523 -145.10352 L 144.41406 -135.4375 L 144.41406 -117.85156 L 132.95508 -107.30273 L 140.89062 -84.449219 L 136.47852 -73.017578 L 140.00586 -56.318359 L 132.07031 -42.251953 L 146.17969 -25.546875 L 154.11523 -12.361328 L 175.27539 1.7011719 L 190.25977 -6.2109375 L 192.02148 7.8554688 L 201.72461 12.25 L 206.13086 23.679688 L 215.82812 20.160156 L 235.22461 27.197266 L 249.33398 28.074219 L 260.79297 31.589844 L 274.01758 28.074219 L 298.70508 25.435547 L 306.63867 7.8554688 L 314.57422 14.011719 L 317.2207 11.373047 L 321.62695 6.9746094 L 343.66797 3.4628906 L 348.95898 -2.6914062 L 363.94531 -5.3300781 L 373.64844 -14.998047 L 381.58203 -9.7226562 L 388.63477 -16.759766 L 395.68555 -21.154297 L 405.38672 -22.910156 L 412.43945 -30.822266 L 414.20117 -42.251953 L 429.19141 -40.494141 L 435.36133 -47.525391 L 446.82422 -64.230469 L 445.0625 -74.779297 L 454.75977 -80.054688 L 454.75977 -93.240234 L 458.28711 -102.02734 L 467.98242 -115.21484 L 460.93164 -128.40039 L 469.74414 -138.94922 L 465.33789 -149.49805 L 471.51172 -153.01758 L 471.51172 -171.47656 L 465.33789 -185.54297 L 458.05273 -192.24609 z "
       transform="scale(0.26458333)" />
    <path
       id="path2226"
       style="fill:#ffe680;stroke:#000000;stroke-width:0.778587px;stroke-linecap:butt;stroke-linejoin:miter;stroke-opacity:1"
       d="m -41.505134,-28.649532 -5.598207,2.912397 -6.358118,3.307201 -2.598088,5.701802 1.299044,9.0697461 6.498229,7.77449666 0.960963,0.14424783 12.813717,1.92995161 13.255368,-8.2937968 14.8148233,-3.1098086 16.3742774,0.25966 10.0603093,4.921317 0.251281,-1.9618483 -1.215274,-0.7561969 -1.299044,-1.2967548 -0.389861,-2.0726938 1.193954,-0.850331 -1.088874,-1.207177 -0.624401,0.373536 -1.559455,0.129073 -1.474164,-1.960323 -45.091701,5.159709 0.0411,0.039484 0.520832,3.2403765 -2.080286,2.9792208 -3.638221,0.7774547 -3.898631,-0.1290723 -4.159052,-0.5178045 -2.777778,-1.583735 -1.769625,-1.0082591 -0.650282,-4.1469034 1.819875,-2.7210757 0.662462,-0.318877 0.0228,-2.953406 -2.244756,0.681784 h -3.118909 l -1.690425,-2.462921 0.910692,-2.590499 3.638221,-1.685477 h 2.552397 0.306101 l 0.204061,0.305197 4.922034,0.148814 0.202551,-1.360538 3.898631,-0.648372 3.50878,1.814549 0.254321,0.429722 4.669223,0.141217 10.803492,0.323434 -9.099357,-2.189622 z" />
    <path
       id="path6051"
       style="fill:#ffe680;stroke:#000000;stroke-width:0.778587px;stroke-linecap:butt;stroke-linejoin:miter;stroke-opacity:1"
       d="m -31.956527,-156.48992 -14.150831,0.54968 -19.849547,3.66555 -17.642851,5.68054 -17.642844,7.32959 -18.19416,10.26174 -18.0114,12.82792 -15.98897,15.57481 -14.51939,19.607828 -9.37195,17.775048 -7.3526,18.508482 -5.69718,24.737173 -4.0433,21.6228169 -2.02091,24.0068101 0.36702,21.805034 2.38944,18.874421 4.04331,17.4091 9.18922,22.722187 10.10904,14.47697 10.84308,11.36109 13.78382,8.97864 16.72302,7.51332 18.19567,4.58118 19.481001,3.11588 13.048248,0.18221 7.902363,-0.18221 h 21.870433 l 0.0609,-7.92179 -11.822315,-2.15773 -6.98404,-1.46531 -4.227592,-3.48182 -3.30775,-3.66555 -3.121949,-2.18962 2.823458,3.40286 4.893095,5.7504 -1.653865,1.64904 -4.043322,-0.7319 -5.881457,-1.46682 -9.373477,-2.19873 -10.843091,-3.29809 -7.16679,-2.5662 -12.31421,-5.13085 -6.98404,-4.94714 1.28685,-1.83278 5.14591,-0.54968 8.2709,0.73342 h 11.76138 l 8.270903,-0.73342 7.166791,-0.18373 0.834553,2.30958 1.554884,4.65406 3.035149,2.24884 -1.932566,-2.24884 -1.653875,-4.39745 0.368542,-2.7484 3.67477,-1.46683 7.168321,-0.91563 9.556228,-2.56619 8.637915,-4.39745 7.15461,-3.96318 0.105081,-13.593225 -4.687504,5.279685 -10.658811,7.87927 -18.011402,6.96363 -18.561164,1.64906 -15.621965,-1.83278 -10.47606,-3.29809 -19.11246,-10.99515 -16.5418,-22.172506 -7.71808,-22.723706 -4.5946,-24.920905 -0.36703,-27.303372 2.75646,-26.937423 7.35107,-23.271871 9.74049,-21.624343 13.04826,-20.155989 20.76786,-21.074665 32.162228,-16.30822 24.259881,-6.41396 18.025102,-2.96706 10.070979,-1.65816 19.799277,-2.06965 15.72400589,-0.59069 18.20632311,1.17529 20.047528,2.13343 22.915156,3.61089 25.913745,6.96364 19.848035,8.24522 19.29824,12.82792 13.04826,13.559824 13.04825,19.058153 9.18922,18.874411 6.79977,19.056628 3.66715,18.595029 0.56042,2.845592 2.0209,17.4090988 -0.73404,22.5384482 -3.26663,22.79356 -0.40966,2.860768 -9.37348,26.20401 -10.65882,15.026652 -14.88639,12.827916 -15.98899,6.77991 -18.01139,2.38247 -16.383421,-1.07963 0.916782,6.04042 0.764503,0.17007 0.551291,2.7484 -0.633532,1.57768 0.488862,3.21002 1.247253,-3.87206 2.389447,-2.74842 6.064198,0.54968 10.291807,0.73342 12.12993,-0.73342 11.21164,-0.18373 1.46959,1.65057 -6.24848,4.21371 -12.3142,5.86428 -16.907298,5.13087 -7.408932,2.06814 2.078756,13.6904 14.519384,-1.4653 19.481,-4.5812 18.37842,-6.77989 9.00494,-5.86429 15.07067,-11.72704 9.37348,-11.9123 7.90236,-15.208856 6.0642,-15.026652 4.04332,-16.857903 1.83815,-15.392601 0.73556,-20.890919 -0.18427,-16.675696 -1.47114,-17.4075943 -2.20515,-10.2617267 -2.20518,-10.261728 -6.06421,-21.44061 -6.79977,-17.775049 -9.74049,-17.957275 -11.94718,-16.491955 -13.78381,-14.111015 -16.17173,-13.74355 -21.87044,-13.19388 -20.583593,-8.61268 -22.238984,-6.41244 -20.76633,-2.74992 -23.341568,-0.36595 -26.8320678,0.36595 z" />
    <path
       id="path6049"
       style="fill:#ffe680;stroke:#000000;stroke-width:2.94269px;stroke-linecap:butt;stroke-linejoin:miter;stroke-opacity:1"
       d="M -2.0019531 -504.88477 L -95.771484 -501.42383 L -175.01758 -490.88672 L -210.38281 -486.1875 L -293.04297 -463.32812 L -367.36719 -432.16406 L -434.74609 -394.06836 L -492.39648 -341.43555 L -543.80273 -270.09961 L -579.91992 -204.30078 L -613.26367 -109.41797 L -628.53906 -45.697266 L -634.09961 56.802734 L -627.15234 143.375 L -610.48438 218.86719 L -584.08789 292.97461 L -550.74414 344.91992 L -504.20703 381.62695 L -450.72461 407.25195 L -373.61914 415.56055 L -330.55273 416.25586 L -265.95508 397.55859 L -216.63867 362.92773 L -181.28125 328.23047 L -180.6582 247.14258 L -188.30273 296.24023 L -216.79492 335.41602 L -280.64453 371.6582 L -330.25391 382.02734 L -379.85742 383.41211 L -398.03516 382.42969 L -416.20508 369.70117 L -420.13672 355.00781 L -417.18945 338.35352 L -408.34961 305.05664 L -391.64648 265.875 L -373.96289 233.55273 L -345.47852 201.23047 L -303.23633 181.64258 L -227.59766 174.78516 L -200.51562 184.54688 L -187.32422 201.23047 L -180.56055 234.08789 L -179.92188 150.31445 L -186.33984 148.82812 L -200.08984 132.17773 L -202.54883 111.60938 L -186.33984 81.738281 L -179.3457 75.183594 L -179.23047 59.912109 L -183.39258 62.144531 L -205.00586 87.615234 L -233.49219 127.77148 L -315.02344 160.09375 L -374.94727 206.12695 L -413.25781 264.89453 L -432.9043 326.59961 L -431.22852 385.12109 L -430.94141 395.16406 L -442.33789 393.93164 L -473.18359 384.39258 L -519.35156 356.96484 L -562.57227 299.17969 L -585.6582 245.79492 L -602.85156 179.68164 L -610.13281 135.63867 L -614.63867 84.675781 L -617.21289 34.837891 L -615.61719 -19.148438 L -599.9043 -106.31836 L -564.54102 -200.34766 L -518.36719 -277.72656 L -450.58594 -354.125 L -372.98438 -411.91211 L -285.55273 -451.0918 L -201.07422 -468.72266 L -175.15039 -473.63477 L -131.33203 -481.94531 L -121.50586 -482.43359 L -121.99414 -476.55664 L -123.60547 -474.20117 L -109.32422 -476.33008 L -103.74609 -477.16211 L -96.945312 -487.33398 L 6.1992188 -493.21094 L 155.51172 -479.49414 L 295.00586 -448.1543 L 397.16602 -396.24414 L 468.87891 -343.35352 L 541.57031 -242.4668 L 581.84375 -143.54297 L 586.31055 -125.08984 L 593.28711 -111.01367 L 613.96289 -21.054688 L 615.8418 68.904297 L 612.08398 158.86328 L 591.40625 237.57617 L 555.69336 306.91992 L 512.46289 336.90625 L 469.23047 333.1582 L 439.15625 301.29688 L 424.11914 252.57031 L 405.32422 192.59766 L 403.36328 188.1543 L 385.64258 191.98633 L 349.2168 191.57422 L 376.53711 212.00391 L 397.16602 234.53516 L 414.84766 269.79492 L 419.75781 324.64453 L 418.7793 363.82422 L 395.20312 384.39258 L 324.47656 400.06055 L 311.88086 399.56055 L 313.70703 411.57812 L 328.63672 415.5625 L 396.71094 414.86719 L 439.77734 410.02344 L 492.56445 388.55273 L 538.41016 353.92383 L 570.35938 310.97852 L 601.62109 241.03125 L 613.8457 194.57422 L 616.20508 185.62109 L 626.62305 132.29297 L 628.71289 63.035156 L 627.32031 -15.228516 L 621.86328 -53.759766 L 618.98633 -74.09375 L 602.31641 -129.50391 L 578.70117 -191.83594 L 548.13672 -258.32422 L 506.45898 -321.34961 L 446.71875 -378.14258 L 391.84766 -414.84961 L 316.82617 -452.93945 L 203.60742 -484.79688 L 90.384766 -500.72852 L -2.0019531 -504.88477 z "
       transform="scale(0.26458333)" />
    <path
       id="path5525"
       style="fill:#ffe680;stroke:#000000;stroke-width:2.94269px;stroke-linecap:butt;stroke-linejoin:miter;stroke-opacity:1"
       d="M -176.23828 -77.744141 L -173.07812 -73.021484 L -171.60547 -64.693359 L -175.53516 -56.859375 L -178.3457 -56.003906 L -178.43164 -44.841797 L -166.69531 -50.490234 L -131.82031 -45.105469 L -118.22461 -32.033203 L 52.201172 -51.533203 L 51.878906 -51.958984 L 53.841797 -58.816406 L 60.224609 -61.755859 L 67.101562 -58.328125 L 68.576172 -47.550781 L 66.025391 -46.025391 L 70.140625 -41.462891 L 72.507812 -43.142578 L 80.363281 -40.699219 L 85.273438 -34.822266 L 87.242188 -26.005859 L 86.257812 -20.617188 L 79.875 -20.617188 L 76.605469 -22.654297 L 75.65625 -15.240234 L 89.693359 -8.3769531 L 127.02734 33.742188 L 190.87695 69.003906 L 247.85352 79.775391 L 334.29492 66.064453 L 367.69727 82.712891 L 375.55273 106.2207 L 357.87109 126.78906 L 312.6875 127.77148 L 261.60352 116.01758 L 220.3457 109.16016 L 144.70898 113.08008 L 86.748047 93.492188 L 35.669922 67.046875 L 22.224609 67.046875 L 22.160156 74.529297 L 22.103516 81.244141 L 31.738281 81.244141 L 47.457031 88.589844 L 56.298828 96.917969 L 62.193359 105.48633 L 67.101562 118.95508 L 68.085938 134.62891 L 66.117188 147.35938 L 59.488281 155.19727 L 49.910156 164.01367 L 38.121094 170.13086 L 21.34375 172.99414 L 21.246094 184.86328 L 47.583984 188.14648 L 47.595703 188.14648 L 101.45898 188.75391 L 89.6875 157.23047 L 73.714844 122.59961 L 78.574219 109.44141 L 89.6875 110.12891 L 97.332031 121.21094 L 123.72266 172.4668 L 128.86914 189.07031 L 129.64453 189.07812 L 140.875 189.20312 L 139.79297 187.52148 L 147.65625 174.78711 L 135.86719 173.80664 L 127.02539 149.32227 L 127.02539 132.66797 L 152.56445 130.71094 L 173.19336 134.63086 L 175.15625 149.32227 L 188.91211 131.69336 L 204.62695 136.58789 L 224.27734 126.79102 L 240.97461 129.73047 L 253.74805 133.65039 L 252.76367 144.42188 L 231.15039 154.21875 L 215.43555 166.95312 L 196.76953 169.89062 L 186.94531 181.64453 L 187.62305 189.73633 L 209.3457 189.98438 L 222.30859 175.76758 L 246.86914 161.07617 L 275.35547 156.17578 L 325.45312 173.80469 L 349.21289 191.57422 L 385.64258 191.98633 L 403.36328 188.15234 L 384.64844 145.74414 L 384.00781 108.26172 L 395.92578 78.275391 L 402.15625 75.167969 L 375.01758 38.265625 L 332.33203 54.3125 L 239.01172 69.986328 L 185.9668 55.294922 L 128.00391 20.033203 L 98.535156 -12.289062 L 92.640625 -41.671875 L 94.609375 -69.605469 L 81.537109 -69.994141 L 79.873047 -65.673828 L 72.505859 -61.753906 L 65.138672 -66.648438 L 66.341797 -70.453125 L 3.3320312 -72.347656 L 3.3105469 -72.347656 L 3.2871094 -72.347656 L -46.845703 -69.099609 L -69.419922 -74.529297 L -69.431641 -74.537109 L -110.26367 -75.757812 L -121.46484 -76.097656 L -127.91016 -76.292969 L -122.48828 -67.144531 L -123.96289 -57.835938 L -136.24023 -55.390625 L -147.53906 -54.898438 L -154.90625 -58.816406 L -158.83203 -69.101562 L -157.63477 -77.181641 L -171.24609 -77.595703 L -176.23828 -77.744141 z "
       transform="scale(0.26458333)" />
    <path
       style="fill:#ffe680;stroke:#000000;stroke-width:0.778587px;stroke-linecap:butt;stroke-linejoin:miter;stroke-opacity:1"
       d="m 25.48898,-24.90199 -17.8712921,5.32371 -6.7418895,0.435794 16.6773286,0.501094 0.461431,-1.456198 2.208226,-0.517795 1.559455,1.554899 -0.208641,0.540568 3.45851,0.103258 z"
       id="path5266" />
    <path
       id="path3886"
       style="fill:#ffe680;stroke:#000000;stroke-width:0.778587px;stroke-linecap:butt;stroke-linejoin:miter;stroke-opacity:1"
       d="m -29.289909,10.482612 -9.096316,0.517794 -9.035397,4.851462 -0.0304,4.040614 4.647894,-4.35645 5.847957,-2.850149 11.306053,1.29525 3.898631,3.887243 2.729048,6.997052 -1.690415,7.385774 -8.577005,6.34867 -12.734537,2.462932 -5.579926,-1.292198 -0.0716,9.324839 15.797085,0.179156 7.641943,-9.323314 9.189206,-7.331115 4.043322,-0.91562 0.734032,2.198715 -10.876581,15.494334 13.2111779,0.15033 6.7160294,-1.488095 6.8408798,0.851867 0.0265,-3.14018 -0.4980114,0.08505 -2.5995775,-0.19438 -2.59960748,-0.194371 -2.14424622,-0.842744 -2.1442662,-0.841228 -2.7929881,-2.462932 -1.4955043,-2.979221 -1.0386131,-2.786365 v -4.081604 l 1.8838455,-3.238871 2.1442262,-2.980727 3.0534489,-2.397643 3.57424033,-1.360538 H 4.6943195 5.8486928 l 0.0318,-3.756665 h -6.83936982 l -5.84793698,2.332344 -4.288502,1.035599 -3.24836,-1.295249 -6.108367,-4.405048 z" />
    <path
       style="fill:#ffe680;stroke:#000000;stroke-width:0.778587px;stroke-linecap:butt;stroke-linejoin:miter;stroke-opacity:1"
       d="m -14.615196,117.54899 3.62146,3.85839 4.0326517,4.48554 2.8006281,6.86494 0.3228509,6.51265 -1.4695942,8.79642 0.367011,3.4803 -2.2051564,-1.64904 -6.0642171,-8.24522 -8.057684,-4.66014 5.299706,4.11046 5.062134,5.39811 0.452302,2.66489 -1.471125,0.91564 -3.123479,-0.36596 -4.411853,-0.91714 -4.961624,0.73342 h -7.718082 l -13.049778,-0.36596 -3.246829,-0.59219 -0.0609,7.92179 11.027362,-0.91715 h 7.718083 l 8.822185,-1.64904 9.740508,0.36746 9.5562281,1.64905 9.0064561,-0.36747 8.4536548,-1.28158 7.719602,-0.18374 13.966561,2.015 10.66033,0.73341 22.420215,0.36595 19.665277,-0.54968 -2.078766,-13.6904 -6.374888,1.77963 -9.189207,1.46682 -0.735562,-1.83277 7.351061,-5.86428 6.61702,-6.96364 0.406621,-1.2588 -0.488852,-3.21002 -1.940185,4.83629 -9.189207,8.97863 -6.248478,3.84777 -5.328645,1.83277 -9.557748,1.64905 -12.312696,0.73341 -7.351061,0.36595 -7.719602,-0.73341 -6.064208,0.18373 -4.963144,1.46684 -1.838146,-1.28311 1.838146,-3.84776 2.022415,-2.93215 0.714233,-1.06139 -3.470701,1.97702 -4.4118523,6.04801 -2.8843784,1.76142 -0.7949623,-2.66035 -0.7188121,-6.34107 -0.1142103,-3.7111 0.002,-4.43846 -0.676172,2.13495 -0.2604207,4.6647 0.7797322,6.99705 -1.2990437,3.88725 -4.93883432,1.29525 -2.85849828,-2.59201 v -3.1098 l 1.5594545,-8.03264 -0.7797322,-7.2567 -3.8986313,-8.03415 -6.4982388,-5.70029 z"
       id="path3523" />
    <path
       style="fill:#ffe680;stroke:#000000;stroke-width:0.778587px;stroke-linecap:butt;stroke-linejoin:miter;stroke-opacity:1"
       d="m 12.589972,49.780271 0.746222,0.09263 9.356728,6.479247 6.757139,7.774497 4.159052,9.329396 -0.779732,12.439204 -3.118909,5.959947 -0.260411,3.629099 2.858498,3.109799 3.118909,1.035601 2.339177,0.777439 8.837416,4.6647 v 3.1098 l -7.277961,0.25966 -6.496719,0.5178 -1.443714,0.9794 7.529242,-0.56638 h 4.976854 l -1.599045,0.94599 -2.205166,1.28158 -3.860561,4.76492 -0.187321,0.78504 3.679341,-4.08313 4.594603,-2.93214 4.411853,-0.73342 9.004936,5.3146 10.843092,4.94713 12.314205,2.01651 4.197122,0.9293 -0.916782,-6.04042 -3.097589,-0.20347 -16.540278,-5.13087 -12.681227,-9.52831 -10.658811,-11.912303 -2.389437,-8.245219 1.102583,-5.130863 1.838146,0.549681 5.512916,10.811419 4.963144,5.314586 8.820666,7.513329 12.865507,5.86276 9.097836,2.42802 -0.482761,-3.17966 -3.166119,-0.12603 -8.577005,-2.592 -10.916182,-5.182495 -9.356727,-8.551951 -4.159052,-8.034147 -1.038633,-11.66175 3.638231,-11.4021 4.678363,-5.961452 1.768095,-1.939065 -5.747456,-0.06531 0.0807,0.968774 -2.078766,2.590489 -2.599598,6.738917 -1.819865,2.072694 -3.898641,-3.627593 v -5.701803 l -2.051356,-3.182685 -3.178309,-0.0349 2.499097,8.067559 2.572187,10.44547 0.919833,5.496802 -2.206686,2.564684 -2.205167,-1.83126 -2.940738,-5.680545 -2.572188,-10.261737 -3.318409,-8.884489 z"
       id="path3521" />
    <path
       style="fill:#ffe680;stroke:#000000;stroke-width:0.778587px;stroke-linecap:butt;stroke-linejoin:miter;stroke-opacity:1"
       d="m -47.675942,49.095445 -0.0975,12.840071 0.290871,1.413683 -0.316761,2.040807 -0.16447,21.454271 2.223436,-2.182024 6.065738,-14.109506 6.248478,-5.130854 2.205156,1.283095 -1.286853,3.48182 -3.674771,7.695537 -6.617019,12.644185 -5.238795,5.900731 -0.103551,13.591699 1.116284,-0.61801 4.212362,0.97182 4.057012,2.14405 3.67629,4.0315 2.020896,7.14586 1.422394,1.95122 -1.973676,-8.36518 -2.389436,-4.58118 -5.945428,-3.89788 h -0.002 l -2.416847,0.15793 -2.080286,-1.0356 1.559455,-2.85166 6.758649,-3.88724 6.496719,-1.5549 2.339187,-2.072706 0.779722,-3.109798 -3.898631,-6.737392 -0.779732,-5.701803 0.520831,-9.069746 5.197675,-9.329396 4.938775,-6.479247 9.615637,-6.479258 4.9829349,-1.103919 -13.2142379,-0.15033 -0.700542,0.999146 -7.719603,10.261727 -9.556228,8.063002 -0.735572,-6.413958 3.30776,-7.329589 4.672263,-5.701803 z"
       id="path1733" />
    <path
       id="path5569"
       style="fill:#008000;stroke:#000000;stroke-width:0.791426px;stroke-linecap:butt;stroke-linejoin:miter;stroke-opacity:1"
       d="m -32.567209,-159.59821 -14.371651,0.5588 -20.155649,3.72932 -17.916981,5.77925 -17.91698,7.45866 -18.47588,10.44091 -18.29009,13.05114 -16.23721,15.84812 -14.74477,19.951003 -9.51816,18.084822 -7.46528,18.831905 -5.78552,25.171452 -4.10575,22.0009202 -2.05288,24.4243778 0.37311,22.187695 2.42599,19.205452 4.10575,17.71278 9.33237,23.118513 10.26438,14.73055 11.0106,11.56002 13.99854,9.13502 16.98345,7.64543 18.47587,4.66015 19.784067,3.17053 13.250798,0.18688 8.025713,-0.18688 h 22.208525 l 11.197922,-0.93232 h 7.839913 l 8.957726,-1.67789 9.891269,0.372 9.7054677,1.67944 9.1450465,-0.37355 0.0746,-2.35815 -0.0731,0.0118 -9.0064461,0.36748 -9.5562481,-1.64906 -9.740498,-0.36744 -8.822185,1.64902 h -7.718093 l -11.027352,0.91717 h -21.870433 l -7.902363,0.18218 -13.048248,-0.18218 -19.481001,-3.11587 -18.19566,-4.58119 -16.72303,-7.51333 -13.78381,-8.97864 -10.84309,-11.36109 -10.10904,-14.47697 -9.18922,-22.722181 -4.04331,-17.409099 -2.38944,-18.874431 -0.36701,-21.805044 2.0209,-24.0068005 4.0433,-21.6228175 5.69718,-24.737172 7.3526,-18.508482 9.37195,-17.775049 14.51939,-19.607834 15.98897,-15.57481 18.0114,-12.82791 18.19416,-10.26174 17.642844,-7.32959 17.642851,-5.68054 19.849547,-3.66556 14.150831,-0.54968 22.4217352,0.36594 26.8320778,-0.36594 0.0533,0.002 0.099,-3.1098 -27.2478085,0.37202 z"
       sodipodi:nodetypes="ccccccccccccccccccccccccccccccccccccccccccccccccccccccccccccccccccccccccc" />
    <path
       id="path6205"
       style="fill:#008000;stroke:#000000;stroke-width:0.791426px;stroke-linecap:butt;stroke-linejoin:miter;stroke-opacity:1"
       d="m 17.449556,-159.59821 -0.099,3.1098 23.288268,0.36444 20.76634,2.74992 22.238984,6.41244 20.583602,8.61268 21.87044,13.19388 16.17172,13.74355 13.7838,14.111016 11.94721,16.491954 9.74048,17.957275 6.79979,17.775059 6.0642,21.4406 4.41033,20.5234647 1.47115,17.4075843 0.18419,16.675696 -0.73554,20.890929 -1.83817,15.392591 -4.04332,16.857912 -6.06419,15.026653 -7.90235,15.208856 -9.3735,11.9123 -15.07067,11.72704 -9.00492,5.86427 -18.37844,6.77993 -19.48098,4.58117 -14.519403,1.46531 -19.665247,0.54969 -22.420225,-0.36595 -10.66034,-0.73342 -13.966541,-2.01501 -7.719612,0.18365 -8.3805646,1.27098 -0.0746,2.35815 8.5846146,-1.30589 7.838403,-0.18512 14.184331,2.04991 10.824801,0.74556 22.768976,0.37353 19.969858,-0.55876 14.744769,-1.49265 19.78254,-4.66014 18.66318,-6.89988 9.14505,-5.96603 15.30519,-11.93202 9.51817,-12.12031 8.02418,-15.47461 6.15864,-15.289342 4.10726,-17.153986 1.86558,-15.661374 0.74621,-21.255363 -0.18566,-16.967242 -1.49399,-17.7127912 -4.47885,-20.8818158 -6.15865,-21.814147 -6.90635,-18.086338 -9.89129,-18.271595 -12.13142,-16.780463 -13.99702,-14.357003 -16.42302,-13.98347 -22.21005,-13.42468 -20.903408,-8.76302 -22.581636,-6.52632 -21.090711,-2.797 z" />
    <path
       id="path3691"
       style="fill:#552200;stroke:#000000;stroke-width:0.778587px;stroke-linecap:butt;stroke-linejoin:miter;stroke-opacity:1"
       d="m -60.218599,46.245296 -20.012498,1.81456 -2.639187,19.56835 0.0396,0.126041 1.559454,1.296755 -0.26041,-9.589056 2.599597,-3.887244 6.75713,-1.295249 3.898641,1.813044 -0.258901,6.219597 -5.718506,9.589046 5.718506,-5.442142 7.536862,-5.959948 4.417953,5.700298 -1.559455,7.516352 -12.994957,0.777444 8.577005,4.664698 0.26041,3.367944 -3.63973,5.184008 -6.496729,2.850148 -8.057683,-5.182502 0.26041,4.922852 -5.718506,0.168537 -1.430004,10.609461 13.125918,-2.743851 16.893589,-9.589046 7.538372,-10.364995 2.339186,-15.031199 -2.080286,-10.106851 -3.4905,-4.414151 z" />
    <path
       id="path1307"
       style="fill:#800000;stroke:#000000;stroke-width:3.10268px;stroke-linecap:butt;stroke-linejoin:miter;stroke-opacity:1"
       d="M 16.609375 -482.15039 L -76.345703 -481.25 L -109.32422 -476.33008 L -130.63086 -473.1543 L -169.82422 -467.30859 L -256.56445 -446.6543 L -309.39648 -426.7832 L -329.32617 -419.28711 L -393.79883 -379.52539 L -416.58789 -361.58594 L -439.375 -343.64258 L -483.39258 -296.91016 L -519.90234 -240.88672 L -519.90234 -240.88477 L -553.30664 -177.63281 L -584.63672 -92.691406 L -601.4668 0.51171875 L -604.83203 70.734375 L -599.91211 149.22266 L -581.78711 229 L -556.41211 296.38477 L -509.80273 355.24805 L -481.83984 367.64258 L -464.75 339.75781 L -452.32031 290.1875 L -427.46289 238.03516 L -427.46289 238.0332 L -385.51562 196.46875 L -331.13867 152.32031 L -279.35352 112.82031 L -241.0293 79.513672 L -214.61914 53.179688 L -217.72656 -27.371094 L -250.35156 -89.333984 L -216.17188 -97.082031 L -188.20508 -117.21875 L -144.70508 -117.21875 L -99.650391 -137.35742 L -57.703125 -111.02148 L 15.316406 -115.66992 L 96.103516 -154.39453 L 164.46289 -279.87109 L 229.71484 -371.26758 L 304.28906 -417.73828 L 293.67188 -433.22852 L 280.98242 -442.52344 L 198.90039 -460.20898 L 111.64062 -475.82812 L 16.609375 -482.15039 z "
       transform="scale(0.26458333)" />
    <path
       style="fill:#ff0000;fill-opacity:1;stroke:#000000;stroke-width:0.993187px;stroke-linecap:butt;stroke-linejoin:miter;stroke-opacity:1"
       d="m 101.60231,28.644044 3.15296,-7.933863 11.93566,-5.950397 9.94638,-7.933864 11.43834,-21.818135 4.47586,-15.867725 2.77794,-4.901944 4.18456,-3.031918 4.19875,2.8407 3.26102,6.580765 5.47051,23.8015869 0.49731,23.8015901 -0.99461,23.8016 -5.47053,20.826396 -9.44906,18.347068 -11.43835,7.933876 -11.43835,-0.991765 -7.95708,-8.429739 -3.97858,-12.892507 -4.97317,-15.867727 -5.47051,-12.396669 z"
       id="path1422"
       sodipodi:nodetypes="cccccccccccccccccccccc" />
    <path
       style="fill:#ffeeee;stroke:#000000;stroke-width:0.778587px;stroke-linecap:butt;stroke-linejoin:miter;stroke-opacity:1"
       d="m -40.985313,-15.561965 -1.039643,-2.721076 0.519822,-3.498521 3.898631,-0.647874 3.50878,1.814051 1.689415,2.850647 -0.389871,2.461925 -3.24886,0.647874 -2.988958,0.129591 z"
       id="path2312" />
    <path
       style="fill:#ffeeee;stroke:#000000;stroke-width:0.778587px;stroke-linecap:butt;stroke-linejoin:miter;stroke-opacity:1"
       d="m -49.432367,-14.136636 2.988958,-0.907026 1.039633,-2.073202 -0.389861,-2.202763 -1.039633,-1.55491 h -2.859008 l -3.638731,1.684471 -0.909672,2.591505 1.689405,2.461925 z"
       id="path2540" />
    <path
       style="fill:#ffeeee;stroke:#000000;stroke-width:0.778587px;stroke-linecap:butt;stroke-linejoin:miter;stroke-opacity:1"
       d="m -40.335551,-1.5678609 -4.158542,-0.5183031 -4.548413,-2.5914955 -0.649772,-4.1464049 1.819365,-2.7210666 3.768691,-1.81406 9.226767,1.425328 3.63873,3.4985309 0.519812,3.2393695 -2.079266,2.9802279 -3.638731,0.7774447 z"
       id="path2608" />
    <path
       style="fill:#ffeeee;stroke:#000000;stroke-width:0.778587px;stroke-linecap:butt;stroke-linejoin:miter;stroke-opacity:1"
       d="m 18.014058,-20.097082 2.209216,-0.518303 1.559465,1.554899 -0.649782,1.68448 -1.949326,1.036597 -1.949295,-1.295758 z"
       id="path2643" />
    <path
       style="fill:#ffeeee;stroke:#000000;stroke-width:0.778587px;stroke-linecap:butt;stroke-linejoin:miter;stroke-opacity:1"
       d="m 18.144018,-12.581737 -0.389861,-2.850647 -1.819355,-0.907025 -1.689425,0.777444 -0.519821,1.814051 1.559464,2.073203 1.559435,-0.129581 z"
       id="path2711" />
    <path
       style="fill:#ffeeee;stroke:#000000;stroke-width:0.778587px;stroke-linecap:butt;stroke-linejoin:miter;stroke-opacity:1"
       d="m 17.364276,-10.119812 1.819355,-1.295758 2.079286,0.647884 1.299544,1.5548993 0.519822,2.332354 -0.259931,1.4253185 H 21.132927 L 19.053671,-6.750862 17.754127,-8.0466097 Z"
       id="path2746" />
    <path
       style="fill:#ffeeee;stroke:#000000;stroke-width:0.778587px;stroke-linecap:butt;stroke-linejoin:miter;stroke-opacity:1"
       d="m -36.956731,12.685385 11.306053,1.295748 3.898631,3.887243 2.729048,6.997052 -1.689405,7.385774 -8.577005,6.349178 -12.735547,2.461915 -7.277451,-1.68447 -3.638731,-4.405546 -0.649771,-5.442153 4.288502,-7.904067 6.497719,-6.090027 z"
       id="path2781" />
    <path
       style="fill:#ffeeee;stroke:#000000;stroke-width:0.778587px;stroke-linecap:butt;stroke-linejoin:miter;stroke-opacity:1"
       d="m -4.3381267,43.783372 -2.7940181,-2.461925 -1.4944843,-2.980228 -1.0396331,-2.785857 -10e-6,-4.081604 1.8843555,-3.23938 2.1442562,-2.980228 3.0539189,-2.397134 3.57374033,-1.360538 H 4.6937295 8.3974302 l 4.1585418,1.943631 2.339187,2.202774 1.559465,2.267563 1.299533,3.563312 0.259931,4.146395 -0.519821,3.36895 -1.754386,2.073202 -2.534117,2.332344 -3.118909,1.61969 -4.9382842,0.842235 -2.5990776,-0.194371 -2.59907748,-0.194381 -2.14423622,-0.842235 z"
       id="path2816"
       sodipodi:nodetypes="ccccccccccccccccccccccccc" />
    <path
       id="path4197"
       style="fill:#552200;stroke:#000000;stroke-width:0.778587px;stroke-linecap:butt;stroke-linejoin:miter;stroke-opacity:1"
       d="m 86.109745,45.985646 -0.064,14.745724 0.584802,-0.23232 4.417953,2.072694 1.040133,7.774497 -4.850444,6.527845 2.025465,0.721269 9.842529,1.043187 -0.779732,9.329396 -4.419463,4.406554 -7.797273,-4.924348 -0.18275,0.622568 -0.0762,17.776578 18.713465,-4.1454 6.23782,-5.442145 0.2589,-10.366501 -1.29904,-14.511898 -4.67837,-9.329396 -5.458095,-5.961453 z" />
    <path
       id="path4404"
       style="fill:#552200;stroke:#000000;stroke-width:0.778587px;stroke-linecap:butt;stroke-linejoin:miter;stroke-opacity:1"
       d="m 59.340118,33.546452 -5.199195,2.592004 -4.157542,-1.29525 -3.639731,4.664698 0.278691,3.047551 2.060486,-0.457052 4.419463,-3.627603 3.63823,-0.25965 -1.040143,2.592004 -3.63822,0.25965 -5.284486,3.206984 0.866533,9.490355 2.078766,-2.590489 -0.260411,-3.109798 2.599598,-3.109799 4.938774,-0.777455 4.157542,-3.369448 5.718507,-2.592004 0.26041,-2.850149 -3.379329,-1.037105 z" />
    <path
       style="fill:#aa4400;stroke:#000000;stroke-width:0.778587px;stroke-linecap:butt;stroke-linejoin:miter;stroke-opacity:1"
       d="m 89.259114,77.595355 0.749273,0.265733 -7.017551,0.51931 2.599598,9.329396 -4.678364,-8.811602 -3.898641,-1.037104 -2.512797,1.409125 -0.866523,3.515233 -2.858498,11.143945 3.63822,3.109799 9.877559,-3.369449 1.818355,-6.219597 7.797273,4.924348 4.419463,-4.406554 0.779732,-9.329396 z"
       id="path6126" />
    <path
       style="fill:#aa4400;stroke:#000000;stroke-width:0.778587px;stroke-linecap:butt;stroke-linejoin:miter;stroke-opacity:1"
       d="m 86.630577,60.49905 -5.199195,2.072694 -1.818355,6.997052 -2.339187,-1.554899 -0.551282,2.238209 1.589915,0.353795 0.779732,2.072694 3.639731,2.592004 4.506283,1.603487 4.850444,-6.527845 -1.040133,-7.774497 z"
       id="path4016" />
    <path
       style="fill:#aa4400;stroke:#000000;stroke-width:0.778587px;stroke-linecap:butt;stroke-linejoin:miter;stroke-opacity:1"
       d="m 43.485162,53.760651 3.118909,-5.183001 -0.519822,-3.887253 5.977898,-3.628102 3.63872,-0.259131 1.039643,-2.591496 -3.63872,0.259132 -4.418463,3.628101 -4.678364,1.036597 -1.819365,-4.92384 -3.63872,0.518293 1.039643,4.405547 3.378819,2.332354 -0.519821,1.554899 -0.519822,3.628102 z"
       id="path4369" />
    <path
       id="path4640"
       style="fill:#808000;stroke:#000000;stroke-width:2.94269px;stroke-linecap:butt;stroke-linejoin:miter;stroke-opacity:1"
       d="M -4.609375 181.64258 L -4.5664062 198.7832 L 0 198 L 50 205 L 80 228 L 103 258 L 112 286 L 109 314 L 101 331 L 83 339 L 53 340 L 27 329 L 11 328 L -4.2402344 330.73633 L -4.2128906 341.66602 L 10.125 339.33594 L 44.509766 353.04688 L 58.261719 379.49219 L 47.457031 408.875 L 7.1777344 426.50586 L -4 427.01172 L -3.625 577.3457 L 15.041016 572.44922 L 19.951172 557.75781 L 17.003906 531.3125 L 17.988281 513.68164 L 35.669922 457.85156 L 57.277344 440.22266 L 79.875 431.40625 L 99.519531 428.46875 L 124.08008 411.81445 L 148.63477 409.85742 L 176.14062 408.875 L 176.14062 397.12109 L 142.74023 379.49219 L 133.89844 376.55273 L 122.11133 372.63867 L 111.30664 360.88477 L 112.29102 347.16992 L 124.08008 324.64258 L 127.02734 277.62891 L 111.30664 242.36914 L 85.769531 212.98438 L 50.404297 188.49609 L -4.609375 181.64258 z "
       transform="scale(0.26458333)" />
    <path
       style="fill:#008000;fill-opacity:1;stroke:#000000;stroke-width:0.778587px;stroke-linecap:butt;stroke-linejoin:miter;stroke-opacity:1"
       d="m -39.123668,68.720399 9.556738,-8.062862 7.718903,-10.261818 11.578373,-16.492202 -0.735132,-2.198965 -4.043242,0.916239 -9.189176,7.329868 -12.313496,15.026223 -3.3081,7.329888 z"
       id="path4901" />
    <path
       id="path5068"
       style="fill:#008000;stroke:#000000;stroke-width:2.94269px;stroke-linecap:butt;stroke-linejoin:miter;stroke-opacity:1"
       d="M -2.5761719 -522.03125 L -62.009766 -519.79883 L -136.83984 -511.97852 L -243.03125 -494.49609 L -334.7207 -470.25586 L -456.27734 -408.61523 L -534.76953 -328.9668 L -584.08789 -252.7832 L -620.90234 -171.05859 L -648.68555 -83.099609 L -659.10547 18.710938 L -657.7168 121.90625 L -640.35156 216.09766 L -611.17773 301.97852 L -548.66211 385.78125 L -476.42188 427.33594 L -436.82812 439.80273 L -377.78711 446.72852 L -307.63086 440.49609 L -239.55859 414.17773 L -199.26953 384.39648 L -161.76172 342.14844 L -136.75586 294.35938 L -122.86328 265.27148 L -118 252.11133 L -126.33594 247.26367 L -149.95312 266.65625 L -172.875 319.98633 L -216.63672 362.92578 L -265.95312 397.55469 L -330.55273 416.25586 L -373.61914 415.5625 L -450.7207 407.25195 L -504.20703 381.625 L -550.74609 344.91797 L -584.08789 292.97461 L -610.48242 218.86719 L -627.15234 143.375 L -634.09961 56.802734 L -628.54297 -45.699219 L -613.26172 -109.41797 L -579.91992 -204.30273 L -543.79883 -270.09766 L -492.39844 -341.43359 L -434.74414 -394.07031 L -367.36719 -432.16211 L -293.04297 -463.33008 L -210.38477 -486.18555 L -95.773438 -501.42188 L -2 -504.88477 L 90.384766 -500.72852 L 203.60547 -484.79883 L 316.82812 -452.94141 L 391.84766 -414.84766 L 446.7207 -378.14062 L 506.45898 -321.34961 L 548.13477 -258.32422 L 578.69727 -191.83594 L 602.31445 -129.50391 L 618.98633 -74.095703 L 627.32031 -15.226562 L 628.71094 63.035156 L 626.62695 132.29492 L 616.20703 185.62305 L 601.62109 241.03125 L 570.36328 310.98242 L 538.41016 353.92188 L 492.56641 388.55078 L 439.77539 410.02148 L 396.70898 414.86914 L 328.63672 415.5625 L 279.31836 402.40234 L 230.69531 380.24023 L 197.35547 351.84375 L 178.59961 331.75977 L 157.76172 290.89648 L 150.81445 288.81836 L 146.64844 308.21094 L 155.67773 339.37891 L 195.96484 384.39648 L 243.89453 420.41016 L 306.4082 439.80273 L 380.03906 444.65039 L 448.11133 435.64648 L 508.54297 410.02148 L 564.80664 361.54102 L 605.09375 304.74805 L 640.51953 205.70898 L 654.41211 108.74609 L 657.18945 23.558594 L 649.54883 -42.236328 L 633.57227 -123.26953 L 607.87109 -195.29883 L 573.14062 -266.63477 L 523.82422 -338.66406 L 474.50586 -389.91406 L 401.57227 -438.39648 L 326.55273 -469.5625 L 228.61328 -495.88086 L 142.00391 -509.5293 L 66.234375 -517.58789 L -2.5761719 -522.03125 z "
       transform="scale(0.26458333)" />
    <path
       style="fill:#008000;stroke:#000000;stroke-width:0.778587px;stroke-linecap:butt;stroke-linejoin:miter;stroke-opacity:1"
       d="M 37.881616,76.599988 40.087042,74.034537 39.168099,68.537126 36.595132,58.092085 32.735681,45.631303 25.75191,32.07105 23.730295,29.1391 l -2.940549,-0.183233 -1.286484,3.48168 4.227033,9.162335 6.432418,17.225188 2.572968,10.261807 2.940548,5.680644 z"
       id="path5103" />
    <path
       id="path5169"
       style="fill:#008000;stroke:#000000;stroke-width:0.778587px;stroke-linecap:butt;stroke-linejoin:miter;stroke-opacity:1"
       d="m -32.408818,108.18164 -9.537968,0.61953 5.946958,3.89786 2.389426,4.58119 1.973686,8.3652 2.771698,3.80219 4.286963,4.97752 3.310809,2.56768 8.057684,4.66015 6.0642171,8.24522 2.2051464,1.64905 -0.367011,-3.48029 1.4696042,-8.79643 -0.3228409,-6.51265 -2.8006281,-6.86494 -4.0326617,-4.48555 -3.62146,-3.85837 -4.538264,-1.85102 -7.01754,-2.85164 z" />
    <path
       style="fill:#008000;stroke:#000000;stroke-width:0.778587px;stroke-linecap:butt;stroke-linejoin:miter;stroke-opacity:1"
       d="m -10.453434,149.16566 -0.452142,-2.66435 -5.061364,-5.39848 -8.611845,-6.6779 -4.285603,-4.97688 -4.194422,-5.75367 -2.021626,-7.14661 -3.67566,-4.03141 -4.057892,-2.14386 -4.212372,-0.97134 -8.270264,4.58115 -8.637815,4.39793 -9.556748,2.56546 -7.167561,0.91624 -3.67566,1.46596 -0.367572,2.7487 1.654045,4.39792 3.30811,3.84818 4.962154,3.4817 3.3081,3.66491 4.227032,3.4817 6.98376,1.46597 15.070254,2.74868 13.048628,0.36651 h 7.718902 l 4.962164,-0.73298 4.410803,0.91623 3.124319,0.36649 z"
       id="path5204"
       sodipodi:nodetypes="ccccccccccccccccccccccccccccc" />
    <path
       id="path5239"
       style="fill:#008000;stroke:#000000;stroke-width:0.778587px;stroke-linecap:butt;stroke-linejoin:miter;stroke-opacity:1"
       d="m -86.540485,123.51044 -7.166791,0.18365 -8.270904,0.73343 h -11.76139 l -8.2709,-0.73343 -5.1459,0.54968 -1.28685,1.83277 6.98405,4.94716 12.3142,5.13085 7.16679,2.56618 10.843092,3.29809 9.373477,2.19874 5.881457,1.46681 4.043312,0.7319 1.653875,-1.64902 -4.893095,-5.75041 -2.823458,-3.40286 -1.839675,-1.2907 -1.373664,-1.59892 -3.038189,-2.25037 -1.554884,-4.65406 z" />
    <path
       id="path5274"
       style="fill:#008000;stroke:#000000;stroke-width:0.778587px;stroke-linecap:butt;stroke-linejoin:miter;stroke-opacity:1"
       d="m 38.914899,109.3721 -7.529232,0.56637 -5.054525,3.42717 -5.197685,0.77743 -5.978907,2.33236 -5.7170068,4.6647 -4.0021716,12.63661 -0.002,4.43844 0.1143403,3.71111 0.7188021,6.34108 0.7949523,2.66034 2.8843784,-1.76143 4.4118723,-6.04801 3.470681,-1.977 1.548794,-2.30353 4.987534,-4.56749 5.311886,-4.07858 3.5438,-6.92264 1.752875,-4.93651 1.066013,-1.18287 0.187431,-0.78506 3.860571,-4.76492 2.205156,-1.28156 1.599075,-0.94601 z" />
    <path
       style="fill:#008000;stroke:#000000;stroke-width:0.778587px;stroke-linecap:butt;stroke-linejoin:miter;stroke-opacity:1"
       d="m 17.114075,142.20232 -2.021615,2.93193 -1.837806,3.84818 1.837806,1.28273 4.962164,-1.46597 6.064868,-0.18336 7.718902,0.73299 7.351321,-0.36651 12.313516,-0.73298 9.556748,-1.64924 5.329705,-1.83243 6.248648,-3.84821 9.189157,-8.97908 2.572997,-6.41363 -0.551351,-2.7487 -4.962165,-1.09948 -12.313505,-2.01571 -10.843232,-4.94767 -9.005386,-5.31414 -4.410803,0.73298 -4.594583,2.93196 -4.745764,5.26704 -1.753285,4.93632 -3.54386,6.92291 -5.311796,4.0785 -4.986684,4.56655 z"
       id="path5309"
       sodipodi:nodetypes="ccccccccccccccccccccccccccc" />
    <path
       style="fill:#008000;stroke:#000000;stroke-width:0.778587px;stroke-linecap:butt;stroke-linejoin:miter;stroke-opacity:1"
       d="m 72.616716,146.23374 -0.735132,-1.83247 7.351331,-5.86389 6.61622,-6.96337 1.654034,-5.1309 2.389197,-2.74873 6.064838,0.54975 10.291906,0.73298 12.1297,-0.73298 11.21079,-0.18336 1.47028,1.6492 -6.24864,4.21469 -12.31348,5.86389 -16.908107,5.1309 -13.78377,3.84821 z"
       id="path5344" />
    <path
       id="path959"
       style="fill:#808000;stroke:#000000;stroke-width:2.94269px;stroke-linecap:butt;stroke-linejoin:miter;stroke-opacity:1"
       d="M -4.609375 181.64258 L -48.814453 191.43359 L -85.158203 215.92383 L -103.82422 240.41211 L -123.46875 275.67188 L -125.4375 309.95117 L -122.49023 331.50195 L -107.75586 356.96484 L -110.70117 368.71875 L -119.54297 376.55273 L -144.09766 382.42969 L -169.64258 397.12109 L -175.53516 407.90039 L -167.67383 411.81445 L -122.49023 408.875 L -98.914062 426.50586 L -72.390625 437.2832 L -50.777344 446.09961 L -26.216797 467.64258 L -11.482422 498.00781 L -8.5351562 525.43555 L -14.429688 555.79492 L -14.429688 567.54883 L -3.625 577.3457 L -4 427.01172 L -14.429688 427.48633 L -42.921875 413.77734 L -63.550781 392.22656 L -58.634766 362.8418 L -32.111328 346.19336 L -4.2128906 341.66602 L -4.2402344 330.73633 L -28 335 L -71 348 L -96 346 L -111 322 L -110 288 L -95 254 L -67 225 L -35 204 L -4.5664062 198.7832 L -4.609375 181.64258 z "
       transform="scale(0.26458333)" />
    <path
       id="path4578"
       style="fill:#00ffff;fill-opacity:1;stroke:#000000;stroke-width:2.94269px;stroke-linecap:butt;stroke-linejoin:miter;stroke-opacity:1"
       d="M 10.126953 339.33594 L -16 343.57617 L -16 373.85742 L -15.292969 373.41406 L 2.8515625 370.4707 L 17.619141 376.35938 L 23.527344 387.71875 L 18.886719 400.3418 L 1.5859375 407.91406 L -7.6972656 408.33594 L -16 404.33984 L -16 426.73242 L -14.431641 427.48633 L 7.1796875 426.50781 L 47.455078 408.87695 L 58.261719 379.49414 L 44.507812 353.04883 L 10.126953 339.33594 z "
       transform="scale(0.26458333)" />
    <path
       id="path4252"
       style="fill:#552200;stroke:#000000;stroke-width:0.778587px;stroke-linecap:butt;stroke-linejoin:miter;stroke-opacity:1"
       d="m -80.231097,48.059856 -11.176592,5.182492 -7.536862,8.551952 -4.678359,8.551941 -4.41946,10.366501 -2.33919,8.810095 -0.77972,4.406554 1.04013,3.887253 4.80781,3.367946 4.80934,0.25965 13.124393,-0.36595 1.430004,-10.609461 -3.118909,0.09113 0.779732,-6.219597 -3.63822,7.774497 -3.11892,1.295249 -6.49822,-2.590499 2.599589,-5.184008 3.37781,-3.887243 -5.197669,2.074199 -2.33919,-1.296755 2.33919,-5.959937 4.159036,-1.037105 7.536862,2.0742 -3.37932,-4.924348 -3.898641,-4.405048 2.339186,-4.406554 5.978918,-3.887253 3.118909,1.037105 2.039176,6.611361 z" />
    <path
       id="path3522"
       style="fill:#aa4400;stroke:#000000;stroke-width:0.778587px;stroke-linecap:butt;stroke-linejoin:miter;stroke-opacity:1"
       d="m -72.174923,54.279453 -6.75713,1.295249 -2.599597,3.887244 0.26041,9.589056 0.0396,0.844259 2.559998,2.783334 4.678363,0.517795 0.779733,2.074209 2.858498,1.554899 -9.617148,1.03559 -0.667032,4.432377 0.147721,3.083975 8.057683,5.182502 6.496729,-2.850148 3.63973,-5.184008 -0.26041,-3.367944 -8.577005,-4.664698 12.994957,-0.777444 1.559455,-7.516352 -4.417953,-5.700298 -7.536862,5.959948 -5.718506,5.442142 5.718506,-9.589046 0.258901,-6.219597 z" />
    <path
       id="path5497"
       style="fill:#aa4400;stroke:#000000;stroke-width:0.778587px;stroke-linecap:butt;stroke-linejoin:miter;stroke-opacity:1"
       d="m -88.028369,59.97974 -5.978918,3.887254 -2.339186,4.406553 3.898641,4.405048 3.37932,4.924348 -7.536862,-2.0742 -4.159036,1.037105 -2.33919,5.959938 2.33919,1.296754 5.197669,-2.074199 -3.37781,3.887243 -2.599589,5.184008 6.49822,2.590499 3.11892,-1.295249 3.63822,-7.774497 -0.779732,6.219597 8.837415,-0.25965 -0.26041,-4.922852 -0.147721,-3.083975 -0.11269,0.751631 -3.898641,-1.5549 -2.598078,2.332344 -2.339187,-1.814549 -6.758649,2.850148 5.978927,-4.664698 1.559455,-2.590498 -1.559455,-3.887243 3.118909,1.813043 2.078766,0.259651 3.37932,-2.850149 0.258901,-3.369449 0.30001,0.326465 -0.0396,-0.844259 -1.559454,-1.296755 -2.078766,-6.737402 z" />
    <path
       style="fill:#00ffff;stroke:#000000;stroke-width:0.778587px;stroke-linecap:butt;stroke-linejoin:miter;stroke-opacity:1"
       d="m -96.345963,84.858638 6.757629,-2.850647 2.339187,1.814041 2.599098,-2.332344 3.898631,1.554909 0.779732,-5.183011 9.616638,-1.036606 -2.859008,-1.55488 -0.779723,-2.073212 -4.678363,-0.518303 -2.858998,-3.109789 -0.259931,3.36896 -3.37881,2.850648 -2.079276,-0.259162 -3.118909,-1.814051 1.559455,3.887263 -1.559455,2.591486 z"
       id="path3283" />
    <path
       style="fill:#aa4400;stroke:#000000;stroke-width:0.778587px;stroke-linecap:butt;stroke-linejoin:miter;stroke-opacity:1"
       d="m 74.674252,48.57765 -5.718506,1.037105 -3.37781,2.850149 4.157532,12.179544 -0.519312,2.591994 -9.617137,-9.589046 -3.898642,3.629099 -2.078766,5.700297 1.040143,5.184008 4.937265,1.29524 9.356727,0.25966 0.779722,1.813043 -8.056173,0.259651 -6.237819,1.814549 -3.118909,3.627603 2.339187,6.997042 5.977398,3.627603 9.356737,-6.219607 3.63822,-2.850138 0.866523,-3.515233 -1.646255,0.923228 -0.519312,-2.850148 -1.819865,-4.405048 2.339177,-2.851654 -2.858488,-5.700287 5.977397,5.700287 0.749272,0.165515 0.551282,-2.238209 2.078776,-7.514847 -0.779732,-7.774496 z"
       id="path5738" />
    <path
       style="fill:#00ffff;stroke:#000000;stroke-width:0.778587px;stroke-linecap:butt;stroke-linejoin:miter;stroke-opacity:1"
       d="m 85.590444,87.709295 -2.599108,-9.329406 7.017551,-0.518303 -7.277441,-2.591486 -3.638751,-2.591515 -0.779722,-2.073183 -2.339177,-0.518303 -5.977907,-5.701304 2.859008,5.701304 -2.339187,2.850657 1.819365,4.405527 0.519822,2.850657 4.158542,-2.332354 3.898641,1.036606 z"
       id="path3318" />
    <path
       id="path3045"
       style="fill:#00ffff;fill-opacity:1;stroke:#000000;stroke-width:2.94269px;stroke-linecap:butt;stroke-linejoin:miter;stroke-opacity:1"
       d="M -16 343.57617 L -32.113281 346.19141 L -58.636719 362.8418 L -63.548828 392.22656 L -42.919922 413.77539 L -16 426.73242 L -16 404.33984 L -19.933594 402.44531 L -28.794922 393.18945 L -26.685547 380.56641 L -16 373.85742 L -16 343.57617 z "
       transform="scale(0.26458333)" />
    <path
       style="fill:#ffff00;stroke:#000000;stroke-width:0.334442px;stroke-linecap:butt;stroke-linejoin:miter;stroke-opacity:1"
       d="m 0.41950287,107.9274 4.57739263,-2.00372 1.2280862,-3.33953 -1.5630241,-3.005588 -3.90752966,-1.558445 -4.80069054,0.77922 -3.014386,1.892403 -0.5582143,3.33954 2.3445188,2.44899 3.2376751,1.55845 z"
       id="path2872" />
    <path
       style="fill:#ffff44;stroke:#000000;stroke-width:0.264583px;stroke-linecap:butt;stroke-linejoin:miter;stroke-opacity:1;fill-opacity:1"
       d="M 2.9104166,86.783332 -7.4083332,88.635416 -18.785416,92.074999 -25.4,91.545832 l -3.96875,-6.35 0.264584,-8.995833 3.96875,-8.995833 7.408333,-7.672917 8.4666664,-5.55625 L 0,52.387499 l 13.229167,1.852084 7.937499,6.085416 6.085417,7.9375 2.38125,7.408333 -0.79375,7.408334 -2.116667,4.497916 -4.7625,2.116667 -7.9375,0.264583 -6.8791661,-2.910416 z"
       id="path3452" />
  </g>
</svg>
