<svg xmlns="http://www.w3.org/2000/svg" viewBox="0 0 800 400" width="800px" height="400px"><defs /><g /><polyline stroke="#cc340c" fill="none" points="53.42,256.44144144144144 60.26,245.8783783783784 67.1,257.9504504504505 73.94,260.9684684684685 80.78,262.47747747747746 87.62,277.5675675675676 94.46000000000001,282.0945945945946 101.3,300.2027027027027 108.14,283.6036036036036 114.98,297.18468468468467 121.82,289.63963963963965 128.66,307.7477477477478 135.5,315.2927927927928 142.34,309.2567567567568 149.18,312.27477477477476 156.01999999999998,315.2927927927928 162.86,310.76576576576576 169.7,319.8198198198198 176.54,333.4009009009009 183.38,350.0 190.22,334.9099099099099 197.06,316.8018018018018 203.9,313.7837837837838 210.74,331.8918918918919 217.57999999999998,316.8018018018018 224.42,301.7117117117117 231.26,285.1126126126126 238.1,289.63963963963965 244.94,307.7477477477478 251.78,300.2027027027027 258.62,298.6936936936937 265.46000000000004,310.76576576576576 272.29999999999995,318.31081081081084 279.14,327.36486486486484 285.98,316.8018018018018 292.82,334.9099099099099 299.65999999999997,318.31081081081084 306.5,315.2927927927928 313.34,297.18468468468467 320.18,298.6936936936937 327.02,304.72972972972974 333.86,307.7477477477478 340.7,306.23873873873873 347.54,297.18468468468467 354.38,279.0765765765766 361.21999999999997,265.4954954954955 368.06,260.9684684684685 374.9,251.9144144144144 381.74,245.8783783783784 388.58,262.47747747747746 395.42,279.0765765765766 402.26,283.6036036036036 409.09999999999997,279.0765765765766 415.94,263.9864864864865 422.78,256.44144144144144 429.62,253.42342342342343 436.46,238.33333333333334 443.3,254.93243243243245 450.14,260.9684684684685 456.98,245.8783783783784 463.82,259.4594594594595 470.65999999999997,259.4594594594595 477.5,277.5675675675676 484.34,295.6756756756757 491.18,279.0765765765766 498.02,279.0765765765766 504.86,263.9864864864865 511.7,247.38738738738738 518.54,238.33333333333334 525.38,224.75225225225228 532.22,214.1891891891892 539.06,224.75225225225228 545.9,221.73423423423424 552.74,226.26126126126127 559.5799999999999,233.8063063063063 566.42,223.24324324324326 573.26,221.73423423423424 580.1,203.62612612612614 586.9399999999999,203.62612612612614 593.78,200.60810810810813 600.62,203.62612612612614 607.46,203.62612612612614 614.3,209.66216216216216 621.14,212.6801801801802 627.98,226.26126126126127 634.8199999999999,241.35135135135135 641.66,250.40540540540542 648.5,244.3693693693694 655.34,259.4594594594595 662.18,263.9864864864865 669.02,271.5315315315315 675.86,280.5855855855856 682.6999999999999,267.0045045045045 689.54,283.6036036036036 696.38,288.13063063063066 703.22,298.6936936936937 710.06,298.6936936936937 716.9,286.6216216216216 723.74,279.0765765765766 730.58,286.6216216216216" /><polyline stroke="#a4cc0c" fill="none" points="53.42,61.77927927927931 60.26,55.743243243243285 67.1,51.21621621621625 73.94,34.61711711711712 80.78,51.21621621621625 87.62,66.30630630630634 94.46000000000001,69.32432432432432 101.3,84.41441441441441 108.14,91.95945945945948 114.98,78.37837837837839 121.82,70.83333333333337 128.66,55.743243243243285 135.5,39.14414414414415 142.34,40.6531531531532 149.18,51.21621621621625 156.01999999999998,43.67117117117118 162.86,33.10810810810813 169.7,27.072072072072103 176.54,21.03603603603608 183.38,25.563063063063055 190.22,24.054054054054063 197.06,36.12612612612617 203.9,42.16216216216219 210.74,39.14414414414415 217.57999999999998,40.6531531531532 224.42,40.6531531531532 231.26,31.599099099099135 238.1,21.03603603603608 244.94,22.54504504504507 251.78,25.563063063063055 258.62,22.54504504504507 265.46000000000004,43.67117117117118 272.29999999999995,36.12612612612617 279.14,49.707207207207205 285.98,54.234234234234236 292.82,61.77927927927931 299.65999999999997,57.252252252252276 306.5,46.68918918918922 313.34,64.79729729729729 320.18,67.81531531531533 327.02,79.88738738738738 333.86,72.34234234234236 340.7,78.37837837837839 347.54,94.97747747747749 354.38,90.45045045045049 361.21999999999997,72.34234234234236 368.06,57.252252252252276 374.9,73.85135135135135 381.74,91.95945945945948 388.58,104.03153153153156 395.42,104.03153153153156 402.26,114.59459459459461 409.09999999999997,123.64864864864867 415.94,123.64864864864867 422.78,107.04954954954957 429.62,88.94144144144144 436.46,70.83333333333337 443.3,72.34234234234236 450.14,70.83333333333337 456.98,63.2882882882883 463.82,75.3603603603604 470.65999999999997,93.46846846846847 477.5,82.90540540540542 484.34,99.50450450450452 491.18,84.41441441441441 498.02,93.46846846846847 504.86,78.37837837837839 511.7,79.88738738738738 518.54,90.45045045045049 525.38,97.9954954954955 532.22,84.41441441441441 539.06,88.94144144144144 545.9,101.01351351351352 552.74,87.43243243243245 559.5799999999999,72.34234234234236 566.42,60.270270270270316 573.26,42.16216216216219 580.1,27.072072072072103 586.9399999999999,33.10810810810813 593.78,34.61711711711712 600.62,21.03603603603608 607.46,25.563063063063055 614.3,40.6531531531532 621.14,58.76126126126127 627.98,61.77927927927931 634.8199999999999,63.2882882882883 641.66,72.34234234234236 648.5,70.83333333333337 655.34,85.92342342342346 662.18,101.01351351351352 669.02,96.48648648648651 675.86,114.59459459459461 682.6999999999999,110.06756756756758 689.54,93.46846846846847 696.38,76.8693693693694 703.22,87.43243243243245 710.06,85.92342342342346 716.9,84.41441441441441 723.74,81.39639639639643 730.58,69.32432432432432" /><polyline stroke="#0ccc34" fill="none" points="53.42,36.12612612612617 60.26,36.12612612612617 67.1,54.234234234234236 73.94,40.6531531531532 80.78,30.090090090090087 87.62,37.63513513513516 94.46000000000001,22.54504504504507 101.3,27.072072072072103 108.14,24.054054054054063 114.98,16.50900900900905 121.82,15.0 128.66,30.090090090090087 135.5,28.581081081081095 142.34,24.054054054054063 149.18,28.581081081081095 156.01999999999998,15.0 162.86,48.19819819819821 169.7,40.6531531531532 176.54,48.19819819819821 183.38,33.10810810810813 190.22,22.54504504504507 197.06,27.072072072072103 203.9,30.090090090090087 210.74,40.6531531531532 217.57999999999998,27.072072072072103 224.42,34.61711711711712 231.26,19.52702702702703 238.1,43.67117117117118 244.94,30.090090090090087 251.78,22.54504504504507 258.62,46.68918918918922 265.46000000000004,42.16216216216219 272.29999999999995,52.725225225225245 279.14,64.79729729729729 285.98,79.88738738738738 292.82,88.94144144144144 299.65999999999997,84.41441441441441 306.5,78.37837837837839 313.34,75.3603603603604 320.18,81.39639639639643 327.02,64.79729729729729 333.86,49.707207207207205 340.7,51.21621621621625 347.54,64.79729729729729 354.38,76.8693693693694 361.21999999999997,88.94144144144144 368.06,101.01351351351352 374.9,113.08558558558559 381.74,125.15765765765767 388.58,129.6846846846847 395.42,114.59459459459461 402.26,125.15765765765767 409.09999999999997,108.55855855855856 415.94,91.95945945945948 422.78,84.41441441441441 429.62,97.9954954954955 436.46,97.9954954954955 443.3,101.01351351351352 450.14,90.45045045045049 456.98,97.9954954954955 463.82,84.41441441441441 470.65999999999997,87.43243243243245 477.5,97.9954954954955 484.34,94.97747747747749 491.18,78.37837837837839 498.02,85.92342342342346 504.86,101.01351351351352 511.7,91.95945945945948 518.54,102.52252252252254 525.38,111.5765765765766 532.22,125.15765765765767 539.06,128.17567567567568 545.9,134.21171171171173 552.74,138.73873873873876 559.5799999999999,140.24774774774775 566.42,126.66666666666669 573.26,144.77477477477478 580.1,149.30180180180182 586.9399999999999,153.82882882882885 593.78,162.88288288288288 600.62,162.88288288288288 607.46,168.91891891891893 614.3,165.90090090090092 621.14,185.51801801801804 627.98,203.62612612612614 634.8199999999999,202.11711711711712 641.66,214.1891891891892 648.5,209.66216216216216 655.34,199.0990990990991 662.18,182.5 669.02,199.0990990990991 675.86,182.5 682.6999999999999,180.990990990991 689.54,180.990990990991 696.38,191.55405405405406 703.22,187.02702702702703 710.06,190.04504504504504 716.9,177.972972972973 723.74,167.4099099099099 730.58,161.3738738738739" /><polyline stroke="#0ca4cc" fill="none" points="53.42,70.83333333333337 60.26,66.30630630630634 67.1,67.81531531531533 73.94,76.8693693693694 80.78,78.37837837837839 87.62,81.39639639639643 94.46000000000001,88.94144144144144 101.3,104.03153153153156 108.14,113.08558558558559 114.98,104.03153153153156 121.82,114.59459459459461 128.66,113.08558558558559 135.5,113.08558558558559 142.34,101.01351351351352 149.18,116.10360360360363 156.01999999999998,129.6846846846847 162.86,134.21171171171173 169.7,120.63063063063063 176.54,114.59459459459461 183.38,99.50450450450452 190.22,113.08558558558559 197.06,107.04954954954957 203.9,116.10360360360363 210.74,123.64864864864867 217.57999999999998,129.6846846846847 224.42,122.13963963963965 231.26,107.04954954954957 238.1,91.95945945945948 244.94,76.8693693693694 251.78,87.43243243243245 258.62,82.90540540540542 265.46000000000004,75.3603603603604 272.29999999999995,75.3603603603604 279.14,79.88738738738738 285.98,90.45045045045049 292.82,102.52252252252254 299.65999999999997,120.63063063063063 306.5,104.03153153153156 313.34,102.52252252252254 320.18,110.06756756756758 327.02,123.64864864864867 333.86,123.64864864864867 340.7,117.61261261261262 347.54,122.13963963963965 354.38,111.5765765765766 361.21999999999997,94.97747747747749 368.06,97.9954954954955 374.9,117.61261261261262 381.74,117.61261261261262 388.58,120.63063063063063 395.42,105.54054054054055 402.26,93.46846846846847 409.09999999999997,107.04954954954957 415.94,125.15765765765767 422.78,120.63063063063063 429.62,117.61261261261262 436.46,131.19369369369372 443.3,138.73873873873876 450.14,156.84684684684686 456.98,152.31981981981983 463.82,170.42792792792793 470.65999999999997,158.35585585585588 477.5,144.77477477477478 484.34,134.21171171171173 491.18,137.22972972972974 498.02,135.72072072072072 504.86,117.61261261261262 511.7,120.63063063063063 518.54,107.04954954954957 525.38,99.50450450450452 532.22,116.10360360360363 539.06,126.66666666666669 545.9,135.72072072072072 552.74,135.72072072072072 559.5799999999999,137.22972972972974 566.42,129.6846846846847 573.26,141.75675675675677 580.1,149.30180180180182 586.9399999999999,147.7927927927928 593.78,137.22972972972974 600.62,135.72072072072072 607.46,129.6846846846847 614.3,120.63063063063063 621.14,138.73873873873876 627.98,140.24774774774775 634.8199999999999,132.7027027027027 641.66,120.63063063063063 648.5,120.63063063063063 655.34,129.6846846846847 662.18,125.15765765765767 669.02,119.12162162162164 675.86,113.08558558558559 682.6999999999999,122.13963963963965 689.54,129.6846846846847 696.38,128.17567567567568 703.22,122.13963963963965 710.06,132.7027027027027 716.9,147.7927927927928 723.74,156.84684684684686 730.58,162.88288288288288" /><polyline stroke="#340ccc" fill="none" points="53.42,263.9864864864865 60.26,270.02252252252254 67.1,260.9684684684685 73.94,256.44144144144144 80.78,254.93243243243245 87.62,248.8963963963964 94.46000000000001,251.9144144144144 101.3,257.9504504504505 108.14,263.9864864864865 114.98,253.42342342342343 121.82,250.40540540540542 128.66,241.35135135135135 135.5,248.8963963963964 142.34,265.4954954954955 149.18,273.0405405405405 156.01999999999998,280.5855855855856 162.86,277.5675675675676 169.7,279.0765765765766 176.54,267.0045045045045 183.38,280.5855855855856 190.22,279.0765765765766 197.06,270.02252252252254 203.9,253.42342342342343 210.74,238.33333333333334 217.57999999999998,253.42342342342343 224.42,271.5315315315315 231.26,268.51351351351354 238.1,282.0945945945946 244.94,280.5855855855856 251.78,277.5675675675676 258.62,274.54954954954957 265.46000000000004,289.63963963963965 272.29999999999995,303.2207207207207 279.14,295.6756756756757 285.98,313.7837837837838 292.82,315.2927927927928 299.65999999999997,313.7837837837838 306.5,331.8918918918919 313.34,325.85585585585585 320.18,313.7837837837838 327.02,312.27477477477476 333.86,321.3288288288288 340.7,319.8198198198198 347.54,316.8018018018018 354.38,316.8018018018018 361.21999999999997,306.23873873873873 368.06,289.63963963963965 374.9,277.5675675675676 381.74,291.14864864864865 388.58,282.0945945945946 395.42,292.65765765765764 402.26,292.65765765765764 409.09999999999997,283.6036036036036 415.94,274.54954954954957 422.78,263.9864864864865 429.62,267.0045045045045 436.46,253.42342342342343 443.3,248.8963963963964 450.14,238.33333333333334 456.98,245.8783783783784 463.82,232.2972972972973 470.65999999999997,242.86036036036035 477.5,253.42342342342343 484.34,267.0045045045045 491.18,260.9684684684685 498.02,248.8963963963964 504.86,262.47747747747746 511.7,265.4954954954955 518.54,283.6036036036036 525.38,268.51351351351354 532.22,265.4954954954955 539.06,254.93243243243245 545.9,253.42342342342343 552.74,268.51351351351354 559.5799999999999,265.4954954954955 566.42,282.0945945945946 573.26,297.18468468468467 580.1,285.1126126126126 586.9399999999999,291.14864864864865 593.78,301.7117117117117 600.62,300.2027027027027 607.46,297.18468468468467 614.3,285.1126126126126 621.14,277.5675675675676 627.98,273.0405405405405 634.8199999999999,256.44144144144144 641.66,244.3693693693694 648.5,230.7882882882883 655.34,217.2072072072072 662.18,230.7882882882883 669.02,227.77027027027026 675.86,230.7882882882883 682.6999999999999,214.1891891891892 689.54,218.71621621621622 696.38,220.22522522522524 703.22,214.1891891891892 710.06,203.62612612612614 716.9,202.11711711711712 723.74,205.13513513513516 730.58,212.6801801801802" /><polyline stroke="#cc0ca4" fill="none" points="53.42,177.972972972973 60.26,174.95495495495496 67.1,165.90090090090092 73.94,162.88288288288288 80.78,165.90090090090092 87.62,161.3738738738739 94.46000000000001,171.93693693693695 101.3,180.990990990991 108.14,180.990990990991 114.98,168.91891891891893 121.82,153.82882882882885 128.66,146.2837837837838 135.5,150.81081081081084 142.34,165.90090090090092 149.18,171.93693693693695 156.01999999999998,187.02702702702703 162.86,185.51801801801804 169.7,196.0810810810811 176.54,197.5900900900901 183.38,187.02702702702703 190.22,202.11711711711712 197.06,217.2072072072072 203.9,205.13513513513516 210.74,218.71621621621622 217.57999999999998,220.22522522522524 224.42,212.6801801801802 231.26,227.77027027027026 238.1,232.2972972972973 244.94,250.40540540540542 251.78,242.86036036036035 258.62,242.86036036036035 265.46000000000004,238.33333333333334 272.29999999999995,227.77027027027026 279.14,211.17117117117118 285.98,200.60810810810813 292.82,197.5900900900901 299.65999999999997,212.6801801801802 306.5,196.0810810810811 313.34,197.5900900900901 320.18,187.02702702702703 327.02,184.00900900900902 333.86,190.04504504504504 340.7,191.55405405405406 347.54,208.15315315315317 354.38,212.6801801801802 361.21999999999997,226.26126126126127 368.06,215.6981981981982 374.9,206.64414414414415 381.74,197.5900900900901 388.58,193.06306306306308 395.42,202.11711711711712 402.26,215.6981981981982 409.09999999999997,199.0990990990991 415.94,190.04504504504504 422.78,180.990990990991 429.62,184.00900900900902 436.46,179.481981981982 443.3,173.44594594594597 450.14,165.90090090090092 456.98,170.42792792792793 463.82,177.972972972973 470.65999999999997,170.42792792792793 477.5,182.5 484.34,196.0810810810811 491.18,212.6801801801802 498.02,209.66216216216216 504.86,197.5900900900901 511.7,197.5900900900901 518.54,188.53603603603605 525.38,180.990990990991 532.22,193.06306306306308 539.06,182.5 545.9,165.90090090090092 552.74,161.3738738738739 559.5799999999999,152.31981981981983 566.42,155.33783783783784 573.26,146.2837837837838 580.1,140.24774774774775 586.9399999999999,135.72072072072072 593.78,125.15765765765767 600.62,135.72072072072072 607.46,150.81081081081084 614.3,137.22972972972974 621.14,147.7927927927928 627.98,140.24774774774775 634.8199999999999,150.81081081081084 641.66,140.24774774774775 648.5,126.66666666666669 655.34,134.21171171171173 662.18,141.75675675675677 669.02,126.66666666666669 675.86,144.77477477477478 682.6999999999999,155.33783783783784 689.54,153.82882882882885 696.38,156.84684684684686 703.22,141.75675675675677 710.06,146.2837837837838 716.9,138.73873873873876 723.74,123.64864864864867 730.58,122.13963963963965" /><text x="735.58" y="290.6216216216216" font-family="Roboto" font-size="16" fill="#cc340c" anchor="start">bicycle</text><text x="735.58" y="73.32432432432432" font-family="Roboto" font-size="16" fill="#a4cc0c" anchor="start">apple</text><text x="735.58" y="158.1283783783784" font-family="Roboto" font-size="16" fill="#0ccc34" anchor="start">ham</text><text x="735.58" y="174.1283783783784" font-family="Roboto" font-size="16" fill="#0ca4cc" anchor="start">spoon</text><text x="735.58" y="216.6801801801802" font-family="Roboto" font-size="16" fill="#340ccc" anchor="start">boat</text><text x="735.58" y="126.13963963963965" font-family="Roboto" font-size="16" fill="#cc0ca4" anchor="start">starship</text></svg>