<?xml version="1.0" encoding="UTF-8"?>
<!-- Automatically generated by FeynGraph -->
<svg xmlns="http://www.w3.org/2000/svg" width="900" height="325" viewBox="0 0 900 325">
<g>
<g transform = "translate(0, 0)">
<text x="30.00630201066539" y="125.42597593408419" font-size="15">0</text>
<text x="30.00000000000001" y="224.57402406591578" font-size="15">1</text>
<text x="269.99997581076974" y="125.42597655862049" font-size="15">2</text>
<text x="270" y="224.5740234413795" font-size="15">3</text>
<line x1="30.00630201066539" y1="125.42597593408419" x2="65.80371961255035" y2="175.02064962789177" stroke="black" stroke-width="2"/>
<line x1="30.00000000000001" y1="224.57402406591578" x2="65.80371961255035" y2="175.02064962789177" stroke="black" stroke-width="2"/>
<line x1="269.99997581076974" y1="125.42597655862049" x2="234.18001760904002" y2="175.01205209112135" stroke="black" stroke-width="2"/>
<line x1="270" y1="224.5740234413795" x2="234.18001760904002" y2="175.01205209112135" stroke="black" stroke-width="2"/>
<path d="M 65.80371961255035 175.02064962789177 C 94.0629749903711 160.59097195660974, 94.0629749903711 160.59097195660974, 122.56227035408918 174.54056965609715" stroke="black" stroke-width="2" fill="transparent"/>
<path d="M 65.80371961255035 175.02064962789177 C 94.30301497626843 188.97024732737916, 94.30301497626843 188.97024732737916, 122.56227035408918 174.54056965609715" stroke="black" stroke-width="2" fill="transparent"/>
<path d="M 122.56227035408918 174.54056965609715 C 149.99380849783293 160.82349629592295, 149.99380849783293 160.82349629592295, 177.42639007221854 174.5384827948134" stroke="black" stroke-width="2" fill="transparent"/>
<path d="M 122.56227035408918 174.54056965609715 C 149.9948519284748 188.2555561549876, 149.9948519284748 188.2555561549876, 177.42639007221854 174.5384827948134" stroke="black" stroke-width="2" fill="transparent"/>
<path d="M 177.42639007221854 174.5384827948134 C 205.92159616470624 160.58686055876203, 205.92159616470624 160.58686055876203, 234.18001760904002 175.01205209112135" stroke="black" stroke-width="2" fill="transparent"/>
<path d="M 177.42639007221854 174.5384827948134 C 205.68481151655226 188.96367432717275, 205.68481151655226 188.96367432717275, 234.18001760904002 175.01205209112135" stroke="black" stroke-width="2" fill="transparent"/>
<text x="150" y="20" font-size="15">T0</text>
</g>
<g transform = "translate(300, 0)">
<text x="30.000000000000004" y="111.30700833824955" font-size="15">0</text>
<text x="29.999999999999982" y="238.69299166175048" font-size="15">1</text>
<text x="270" y="79.4488383547883" font-size="15">2</text>
<text x="270" y="270.5511616452117" font-size="15">3</text>
<line x1="30.000000000000004" y1="111.30700833824955" x2="80.8360502940163" y2="175.05821634307887" stroke="black" stroke-width="2"/>
<line x1="29.999999999999982" y1="238.69299166175048" x2="80.8360502940163" y2="175.05821634307887" stroke="black" stroke-width="2"/>
<line x1="270" y1="79.4488383547883" x2="219.7957091319162" y2="140.029238047647" stroke="black" stroke-width="2"/>
<line x1="270" y1="270.5511616452117" x2="220.09415425733565" y2="209.614072728692" stroke="black" stroke-width="2"/>
<path d="M 80.8360502940163 175.05821634307887 C 119.19106868860095 155.80906599858687, 119.19106868860095 155.80906599858687, 157.60340000094533 174.9435905075594" stroke="black" stroke-width="2" fill="transparent"/>
<path d="M 80.8360502940163 175.05821634307887 C 119.2483816063607 194.19274085205137, 119.2483816063607 194.19274085205137, 157.60340000094533 174.9435905075594" stroke="black" stroke-width="2" fill="transparent"/>
<line x1="157.60340000094533" y1="174.9435905075594" x2="219.7957091319162" y2="140.029238047647" stroke="black" stroke-width="2"/>
<line x1="157.60340000094533" y1="174.9435905075594" x2="220.09415425733565" y2="209.614072728692" stroke="black" stroke-width="2"/>
<path d="M 219.7957091319162 140.029238047647 C 237.34114036488717 174.74704410681463, 237.34114036488717 174.74704410681463, 220.09415425733565 209.614072728692" stroke="black" stroke-width="2" fill="transparent"/>
<path d="M 219.7957091319162 140.029238047647 C 202.54872302436465 174.89626666952435, 202.54872302436465 174.89626666952435, 220.09415425733565 209.614072728692" stroke="black" stroke-width="2" fill="transparent"/>
<text x="150" y="20" font-size="15">T1</text>
</g>
<g transform = "translate(600, 0)">
<text x="29.99999999999999" y="112.33616158737514" font-size="15">0</text>
<text x="30.00152175537791" y="237.66383841262487" font-size="15">1</text>
<text x="270" y="112.33616100726447" font-size="15">2</text>
<text x="269.9988893478946" y="237.66383899273555" font-size="15">3</text>
<line x1="29.99999999999999" y1="112.33616158737514" x2="81.3602509114227" y2="174.99590416484796" stroke="black" stroke-width="2"/>
<line x1="30.00152175537791" y1="237.66383841262487" x2="81.3602509114227" y2="174.99590416484796" stroke="black" stroke-width="2"/>
<line x1="270" y1="112.33616100726447" x2="218.63425353626306" y2="174.97590511377115" stroke="black" stroke-width="2"/>
<line x1="269.9988893478946" y1="237.66383899273555" x2="218.63425353626306" y2="174.97590511377115" stroke="black" stroke-width="2"/>
<line x1="81.3602509114227" y1="174.99590416484796" x2="149.9899992701173" y2="149.40990995456323" stroke="black" stroke-width="2"/>
<line x1="81.3602509114227" y1="174.99590416484796" x2="150.0057879430143" y2="199.89415264004234" stroke="black" stroke-width="2"/>
<path d="M 149.9899992701173 149.40990995456323 C 162.61895427793556 174.6480841290785, 162.61895427793556 174.6480841290785, 150.0057879430143 199.89415264004234" stroke="black" stroke-width="2" fill="transparent"/>
<path d="M 149.9899992701173 149.40990995456323 C 137.376832935196 174.65597846552703, 137.376832935196 174.65597846552703, 150.0057879430143 199.89415264004234" stroke="black" stroke-width="2" fill="transparent"/>
<line x1="149.9899992701173" y1="149.40990995456323" x2="218.63425353626306" y2="174.97590511377115" stroke="black" stroke-width="2"/>
<line x1="150.0057879430143" y1="199.89415264004234" x2="218.63425353626306" y2="174.97590511377115" stroke="black" stroke-width="2"/>
<text x="150" y="20" font-size="15">T2</text>
</g>
</g>
</svg>
