<?xml version="1.0" encoding="UTF-8"?>
<!-- Automatically generated by FeynGraph -->
<svg xmlns="http://www.w3.org/2000/svg" width="900" height="325" viewBox="0 0 900 325">
<g>
<g transform = "translate(0, 0)">
<text x="30.00009978084745" y="90.77526622079768" font-size="15">u(0)</text>
<line x1="30.00009978084745" y1="90.77526622079768" x2="97.2146435390387" y2="174.97798606672063" stroke="black" stroke-width="2"/>
<polygon points="56.58039192465459 132.08823804146115, 66.72666747643832 136.78431006255238, 64.39575976224107 125.84964640847068" fill="black"/>
<text x="30.000000000000018" y="259.2247337792023" font-size="15">u~(1)</text>
<line x1="97.2146435390387" y1="174.97798606672063" x2="30.000000000000018" y2="259.2247337792023" stroke="black" stroke-width="2"/>
<polygon points="62.81714789401059 210.074580771283, 60.48901913143451 221.0098364365551, 70.63410092119786 216.3111860474527" fill="black"/>
<text x="270" y="90.77526695857706" font-size="15">g(2)</text>
<path d="M 270 90.77526695857706 C 278.15259285400225 101.92752182089285, 272.9994186385016 108.36727480553768, 260.3310070224441 102.85829069925141 C 247.66259540638663 97.34930659296515, 254.67895815829655 88.58118793766121, 262.8315510122988 99.733442799977 C 269.7338718713737 112.44812161192998, 264.5806976558731 118.88787459657479, 251.9122860398156 113.37889049028855 C 239.24387442375811 107.86990638400232, 246.260237175668 99.10178772869837, 254.4128300296703 110.25404259101414 C 261.31515088874517 122.96872140296713, 256.1619766732445 129.40847438761196, 243.49356505718706 123.89949028132568 C 230.82515344112957 118.39050617503942, 237.8415161930395 109.62238751973548, 245.99410904704175 120.77464238205127 C 252.89642990611668 133.48932119400425, 247.74325569061602 139.92907417864907, 235.07484407455854 134.42009007236283 C 222.40643245850106 128.91110596607658, 229.42279521041095 120.14298731077264, 237.57538806441323 131.2952421730884 C 244.47770892348814 144.00992098504142, 239.32453470798748 150.44967396968622, 226.65612309193 144.94068986339997 C 213.98771147587252 139.43170575711372, 221.00407422778244 130.66358710180975, 229.1566670817847 141.81584196412555 C 236.0589879408596 154.53052077607856, 230.90581372535894 160.97027376072336, 218.23740210930146 155.4612896544371 C 205.56899049324397 149.95230554815086, 212.5853532451539 141.1841868928469, 220.73794609915615 152.3364417551627 C 227.64026695823105 165.0511205671157, 222.4870927427304 171.4908735517605, 209.8186811266729 165.98188944547425 C 197.15026951061543 160.472905339188, 204.16663226252535 151.70478668388404, 212.3192251165276 162.85704154619984 C 219.22154597560254 175.57172035815282, 214.06837176010188 182.01147334279764, 202.65023213897175 174.9400652868742" stroke="black" stroke-width="2" fill="transparent"/>
<text x="269.995554810414" y="259.22473304142295" font-size="15">g(3)</text>
<path d="M 269.995554810414 259.22473304142295 C 257.32314498088226 264.7245137524662, 252.1665086455369 258.2708305118939, 260.3272000014555 247.12450038262668 C 268.48789135737405 235.97817025335945, 275.4999887810436 244.75401805053883, 262.8275789515119 250.25379876158203 C 248.90497964695197 254.18893028314753, 243.74834331160665 247.7352470425753, 251.90903466752525 236.58891691330808 C 260.0697260234439 225.44258678404086, 267.0818234471133 234.21843458122027, 254.4094136175816 239.71821529226344 C 240.4868143130217 243.65334681382896, 235.33017797767639 237.19966357325671, 243.49086933359496 226.0533334439895 C 251.65156068951353 214.90700331472226, 258.66365811318303 223.68285111190164, 245.99124828365132 229.18263182294484 C 232.06864897909142 233.11776334451034, 226.9120126437461 226.66408010393812, 235.0727039996647 215.5177499746709 C 243.2333953555833 204.37141984540366, 250.24549277925277 213.14726764258307, 237.57308294972106 218.64704835362625 C 223.65048364516116 222.58217987519177, 218.49384730981583 216.12849663461952, 226.6545386657344 204.9821665053523 C 234.81523002165298 193.83583637608507, 241.82732744532248 202.61168417326445, 229.15491761579077 208.11146488430765 C 215.23231831123087 212.04659640587317, 210.07568197588554 205.59291316530093, 218.23637333180412 194.4465830360337 C 226.3970646877227 183.30025290676647, 233.4091621113922 192.07610070394585, 220.73675228186048 197.57588141498906 C 206.81415297730058 201.51101293655458, 201.65751664195525 195.05732969598233, 209.81820799787383 183.9109995667151 C 217.9788993537924 172.76466943744788, 224.9909967774619 181.54051723462726, 212.31858694793019 187.04029794567046 C 198.3959876433703 190.97542946723595, 193.23935130802496 184.52174622666374, 202.65023213897175 174.9400652868742" stroke="black" stroke-width="2" fill="transparent"/>
<path d="M 97.2146435390387 174.97798606672063 C 100.82367975916021 161.64335385135655, 108.73275703532121 161.64050928642206, 112.35138414163144 174.972542013004 C 115.97001124794167 188.30457473958592, 104.8277638663077 188.30858214083975, 108.43680008642922 174.97394992547567 C 114.00312833415184 161.63861375387575, 121.91220561031285 161.63576918894125, 125.53083271662308 174.96780191552318 C 129.1494598229333 188.2998346421051, 118.00721244129934 188.30384204335894, 121.61624866142085 174.96920982799486 C 127.18257690914348 161.63387365639494, 135.0916541853045 161.63102909146045, 138.7102812916147 174.96306181804238 C 142.32890839792492 188.2950945446243, 131.18666101629097 188.29910194587814, 134.79569723641248 174.96446973051405 C 140.3620254841351 161.62913355891413, 148.27110276029612 161.62628899397964, 151.88972986660633 174.95832172056157 C 155.50835697291654 188.2903544471435, 144.3661095912826 188.29436184839733, 147.9751458114041 174.95972963303325 C 153.54147405912673 161.62439346143333, 161.45055133528774 161.62154889649884, 165.06917844159796 174.95358162308077 C 168.68780554790817 188.2856143496627, 157.54555816627422 188.28962175091652, 161.15459438639573 174.95498953555244 C 166.72092263411835 161.61965336395252, 174.62999991027937 161.61680879901803, 178.24862701658958 174.94884152559996 C 181.8672541228998 188.2808742521819, 170.72500674126584 188.28488165343572, 174.33404296138735 174.95024943807164 C 179.90037120910998 161.61491326647172, 187.80944848527102 161.61206870153723, 191.42807559158123 174.94410142811915 C 195.04670269789145 188.27613415470108, 183.9044553162575 188.2801415559549, 187.513491536379 174.94550934059083 C 193.07981978410163 161.6101731689909, 200.98889706026264 161.60732860405642, 202.65023213897175 174.9400652868742" stroke="black" stroke-width="2" fill="transparent"/>
<text x="150" y="20" font-size="15">D0</text>
</g>
<g transform = "translate(300, 0)">
<text x="65.79957093954584" y="55" font-size="15">u(0)</text>
<line x1="65.79957093954584" y1="55" x2="149.97968898053966" y2="122.21972771549551" stroke="black" stroke-width="2"/>
<polygon points="100.86251748075598 89.39706789956412, 111.79678822059435 91.72981807648296, 107.1024259182264 81.58275137846097" fill="black"/>
<text x="65.79957093954569" y="295" font-size="15">u~(1)</text>
<line x1="149.94260647463784" y1="227.64295846509538" x2="65.79957093954569" y2="295" stroke="black" stroke-width="2"/>
<polygon points="108.64978780542431 254.29341920760083, 103.96770914545208 264.4461596958549, 114.89914873203864 262.1001783308802" fill="black"/>
<text x="234.20042906045433" y="55.000000000000156" font-size="15">g(2)</text>
<path d="M 234.20042906045433 55.000000000000156 C 239.69336286493117 67.67537916501176, 233.25129390142982 72.8170357360667, 222.1093741057057 64.65032391166477 C 210.9674543099816 56.48361208726284, 219.7433651907474 49.47922885219777, 225.23629899522425 62.15460801720938 C 229.16577035494183 76.07784512944868, 222.72370139144053 81.21950170050361, 211.58178159571642 73.0527898761017 C 200.43986179999231 64.88607805169978, 209.21577268075808 57.88169481663469, 214.70870648523493 70.5570739816463 C 218.6381778449525 84.4803110938856, 212.1961088814512 89.62196766494053, 201.0541890857271 81.45525584053861 C 189.912269290003 73.2885440161367, 198.68818017076876 66.2841607810716, 204.1811139752456 78.95953994608321 C 208.1105853349632 92.88277705832252, 201.6685163714618 98.02443362937746, 190.52659657573773 89.85772180497553 C 179.38467678001365 81.6910099805736, 188.1605876607794 74.68662674550852, 193.65352146525626 87.36200591052012 C 197.58299282497384 101.28524302275943, 191.1409238614725 106.42689959381438, 179.99900406574838 98.26018776941245 C 168.85708427002427 90.09347594501052, 177.63299515079007 83.08909270994545, 183.12592895526691 95.76447187495705 C 187.0554003149845 109.68770898719636, 180.6133313514832 114.82936555825128, 169.4714115557591 106.66265373384937 C 158.32949176003498 98.49594190944745, 167.10540264080075 91.49155867438236, 172.5983364452776 104.16693783939397 C 176.52780780499518 118.09017495163327, 170.08573884149385 123.23183152268821, 158.94381904576974 115.0651196982863 C 147.80189925004564 106.89840787388438, 156.5778101308114 99.89402463881929, 162.07074393528825 112.5694038038309 C 166.00021529500586 126.4926409160702, 159.55814633150447 131.63429748712514, 149.97968898053966 122.21972771549551" stroke="black" stroke-width="2" fill="transparent"/>
<text x="234.20042906045418" y="294.99999999999983" font-size="15">g(3)</text>
<path d="M 234.20042906045418 294.99999999999983 C 223.05213890634906 303.1580135693105, 216.60122570223234 298.001051102292, 222.10405039783637 285.3299627857099 C 227.6068750934404 272.65887446912774, 236.38064223072305 279.67276326125295, 225.23235207661793 287.83077683056365 C 212.51991108312205 294.73838337744746, 206.06899787900525 289.581420910429, 211.57182257460929 276.9103325938468 C 217.07464727021332 264.2392442772646, 225.848414407496 271.25313306938983, 214.7001242533909 279.4111466387006 C 201.98768325989496 286.3187531855844, 195.53677005577825 281.1617907185659, 201.03959475138228 268.49070240198375 C 206.54241944698632 255.81961408540158, 215.316186584269 262.8335028775268, 204.16789643016386 270.9915164468375 C 191.45545543666796 277.8991229937214, 185.00454223255124 272.742160526703, 190.50736692815525 260.0710722101208 C 196.01019162375925 247.3999838935386, 204.7839587610419 254.4138726856637, 193.6356686069368 262.57188625497446 C 180.9232276134409 269.4794928018583, 174.47231440932413 264.3225303348398, 179.97513910492816 251.65144201825768 C 185.4779638005322 238.9803537016755, 194.2517309378149 245.9942424938007, 183.10344078370977 254.1522560631114 C 170.39099979021387 261.05986260999526, 163.94008658609715 255.90290014297682, 169.44291128170116 243.23181182639465 C 174.94573597730516 230.56072350981248, 183.7195031145878 237.57461230193763, 172.5712129604827 245.73262587124836 C 159.8587719669868 252.6402324181322, 153.4078587628701 247.48326995111375, 158.91068345847413 234.81218163453158 C 164.41350815407816 222.1410933179494, 173.1872752913608 229.15498211007457, 162.03898513725568 237.3129956793853 C 149.3265441437598 244.22060222626916, 142.875630939643 239.0636397592507, 149.94260647463784 227.64295846509538" stroke="black" stroke-width="2" fill="transparent"/>
<line x1="149.97968898053966" y1="122.21972771549551" x2="149.94260647463784" y2="227.64295846509538" stroke="black" stroke-width="2"/>
<polygon points="144.96290678131956 169.92958465520107, 149.95938898317615 179.93134278097725, 154.96290616268314 169.93310214402626" fill="black"/>
<text x="150" y="20" font-size="15">D1</text>
</g>
<g transform = "translate(600, 0)">
<text x="65.87053426887692" y="55" font-size="15">u(0)</text>
<line x1="65.87053426887692" y1="55" x2="149.88384128225567" y2="122.27831462638538" stroke="black" stroke-width="2"/>
<polygon points="100.8489859787798 89.41657580001102, 111.77999791736872 91.7645489681768, 107.09976928874798 81.6109555164062" fill="black"/>
<text x="65.87241617352018" y="295" font-size="15">u~(1)</text>
<line x1="149.84747415215864" y1="227.59133040640396" x2="65.87241617352018" y2="295" stroke="black" stroke-width="2"/>
<polygon points="108.62916172315043 254.26656100114724, 103.96078478165656 264.4256090240738, 114.88904936489415 262.064881763513" fill="black"/>
<text x="234.1294657311231" y="294.7152727774769" font-size="15">g(2)</text>
<path d="M 234.1294657311231 294.7152727774769 C 222.99612258341566 302.8936729335325, 216.54998860435725 297.7598368954847, 222.02961727443702 285.07870018006304 C 227.50924594451678 272.3975634646414, 236.29215944077555 279.3924596260669, 225.1588162930681 287.5708597821225 C 212.46087363604516 294.50318013714843, 206.01473965698673 289.3693440991006, 211.49436832706644 276.68820738367896 C 216.97399699714614 264.0070706682573, 225.75691049340492 271.0019668296828, 214.62356734569752 279.18036698573843 C 201.92562468867453 286.1126873407643, 195.47949070961613 280.97885130271646, 200.9591193796959 268.2977145872948 C 206.43874804977565 255.61657787187318, 215.22166154603443 262.6114740332987, 204.08831839832698 270.7898741893543 C 191.390375741304 277.7221945443802, 184.94424176224555 272.5883585063323, 190.42387043232532 259.9072217909107 C 195.90349910240508 247.22608507548904, 204.68641259866382 254.22098123691453, 193.5530694509564 262.39938139297016 C 180.85512679393344 269.3317017479961, 174.40899281487503 264.19786570994825, 179.88862148495477 251.51672899452657 C 185.3682501550345 238.83559227910493, 194.15116365129327 245.83048844053042, 183.01782050358585 254.00888859658605 C 170.3198778465629 260.94120895161194, 163.87374386750446 255.8073729135641, 169.35337253758422 243.12623619814246 C 174.83300120766398 230.44509948272082, 183.61591470392273 237.4399956441463, 172.4825715562153 245.61839580020194 C 159.78462889919234 252.55071615522783, 153.33849492013388 247.41688011717997, 158.81812359021365 234.73574340175833 C 164.2977522602934 222.05460668633668, 173.08066575655215 229.04950284776217, 161.94732260884473 237.2279030038178 C 149.24937995182177 244.1602233588437, 142.80324597276336 239.02638732079586, 149.84747415215864 227.59133040640396" stroke="black" stroke-width="2" fill="transparent"/>
<text x="234.12730924919856" y="55.28472722252303" font-size="15">g(3)</text>
<path d="M 234.12730924919856 55.28472722252303 C 239.59775049374878 67.96982995553623, 233.16040733154887 73.0890483613445, 222.03299139114606 64.90258555702881 C 210.90557545074324 56.71612275271313, 219.69031887096511 49.73016300596965, 225.16076011551533 62.41526573898284 C 229.0673169978809 76.34402838101902, 222.629973835681 81.4632467868273, 211.5025578952782 73.27678398251162 C 200.37514195487537 65.09032117819594, 209.15988537509725 58.10436143145244, 214.63032661964746 70.78946416446563 C 218.53688350201304 84.7182268065018, 212.0995403398132 89.83744521231007, 200.97212439941038 81.6509824079944 C 189.84470845900756 73.46451960367874, 198.6294518792294 66.47855985693523, 204.09989312377962 79.16366258994842 C 208.0064500061452 93.0924252319846, 201.5691068439453 98.21164363779289, 190.44169090354248 90.02518083347721 C 179.31427496313967 81.83871802916153, 188.09901838336154 74.85275828241802, 193.56945962791175 87.53786101543122 C 197.47601651027733 101.46662365746741, 191.03867334807742 106.58584206327569, 179.9112574076746 98.39937925896 C 168.7838414672718 90.2129164546443, 177.56858488749367 83.22695670790083, 183.0390261320439 95.91205944091402 C 186.94558301440946 109.84082208295018, 180.5082398522096 114.96004048875845, 169.3808239118068 106.77357768444278 C 158.253407971404 98.58711488012712, 167.03815139162583 91.60115513338361, 172.50859263617605 104.2862578663968 C 176.41514951854163 118.21502050843299, 169.97780635634172 123.33423891424127, 158.8503904159389 115.14777610992559 C 147.7229744755361 106.9613133056099, 156.50771789575796 99.9753535588664, 161.97815914030818 112.6604562918796 C 165.88471602267376 126.58921893391579, 159.44737286047385 131.70843733972407, 149.88384128225567 122.27831462638538" stroke="black" stroke-width="2" fill="transparent"/>
<line x1="149.88384128225567" y1="122.27831462638538" x2="149.84747415215864" y2="227.59133040640396" stroke="black" stroke-width="2"/>
<polygon points="144.8673846360919 169.93309619375376, 149.8639310964443 179.93482221827273, 154.86738403984805 169.93654943527943" fill="black"/>
<text x="150" y="20" font-size="15">D2</text>
</g>
</g>
</svg>
