<svg viewBox="0 0 127 120" fill="none" xmlns="http://www.w3.org/2000/svg">
<path d="M32.4923 0L0 19.3548V58.0645L32.4923 77.4194L32.4923 61.9355L12.9969 50.3226V27.0968L32.4923 15.4839L32.4923 0Z" fill="url(#paint0_linear_71_193)"/>
<path d="M97.4769 0L64.9846 19.3548V58.0645L97.4769 77.4194V61.9354L77.9814 50.3226V27.0968L97.4768 15.4839L97.4769 0Z" fill="url(#paint1_linear_71_193)"/>
<path d="M64.9847 42.5806L97.4769 61.9354L97.4769 100.645L64.9847 120V104.516L84.4801 92.9032V69.6774L64.9846 58.0645L64.9847 42.5806Z" fill="url(#paint2_linear_71_193)"/>
<path d="M64.9847 42.5806L32.4923 61.9355L32.4923 100.645L64.9847 120V104.516L45.4891 92.9032V69.6774L64.9846 58.0645L64.9847 42.5806Z" fill="url(#paint3_linear_71_193)"/>
<g filter="url(#filter0_d_71_193)">
<path d="M32.4923 15.4839L51.9979 27.0968V50.3226L32.4923 61.9355L12.9868 50.3226V27.0968L32.4923 15.4839Z" fill="black"/>
<g filter="url(#filter1_f_71_193)">
<path d="M32.3419 15.6238L51.911 27.2869L32.3419 38.8496L12.7725 27.2869L32.3419 15.6238Z" fill="#D9D9D9" fill-opacity="0.3"/>
</g>
</g>
<g filter="url(#filter2_d_71_193)">
<path d="M97.4769 15.4839L116.982 27.0968V50.3226L97.4769 61.9355L77.9714 50.3226V27.0968L97.4769 15.4839Z" fill="black"/>
<g filter="url(#filter3_f_71_193)">
<path d="M97.3265 15.6238L116.896 27.2869L97.3265 38.8496L77.7571 27.2869L97.3265 15.6238Z" fill="#D9D9D9" fill-opacity="0.3"/>
</g>
</g>
<g filter="url(#filter4_d_71_193)">
<path d="M64.9845 58.0645L84.4901 69.6774V92.9032L64.9845 104.516L45.4789 92.9032V69.6774L64.9845 58.0645Z" fill="black"/>
<g filter="url(#filter5_f_71_193)">
<path d="M64.8341 58.2044L84.4032 69.8675L64.8341 81.4302L45.2647 69.8675L64.8341 58.2044Z" fill="#D9D9D9" fill-opacity="0.3"/>
</g>
</g>
<defs>
<filter id="filter0_d_71_193" x="7.77246" y="13.4839" width="51.2253" height="58.4516" filterUnits="userSpaceOnUse" color-interpolation-filters="sRGB">
<feFlood flood-opacity="0" result="BackgroundImageFix"/>
<feColorMatrix in="SourceAlpha" type="matrix" values="0 0 0 0 0 0 0 0 0 0 0 0 0 0 0 0 0 0 127 0" result="hardAlpha"/>
<feOffset dx="1" dy="4"/>
<feGaussianBlur stdDeviation="3"/>
<feComposite in2="hardAlpha" operator="out"/>
<feColorMatrix type="matrix" values="0 0 0 0 0 0 0 0 0 0 0 0 0 0 0 0 0 0 0.25 0"/>
<feBlend mode="normal" in2="BackgroundImageFix" result="effect1_dropShadow_71_193"/>
<feBlend mode="normal" in="SourceGraphic" in2="effect1_dropShadow_71_193" result="shape"/>
</filter>
<filter id="filter1_f_71_193" x="2.77246" y="5.62378" width="59.1384" height="43.2258" filterUnits="userSpaceOnUse" color-interpolation-filters="sRGB">
<feFlood flood-opacity="0" result="BackgroundImageFix"/>
<feBlend mode="normal" in="SourceGraphic" in2="BackgroundImageFix" result="shape"/>
<feGaussianBlur stdDeviation="5" result="effect1_foregroundBlur_71_193"/>
</filter>
<filter id="filter2_d_71_193" x="72.7571" y="13.4839" width="51.2253" height="58.4516" filterUnits="userSpaceOnUse" color-interpolation-filters="sRGB">
<feFlood flood-opacity="0" result="BackgroundImageFix"/>
<feColorMatrix in="SourceAlpha" type="matrix" values="0 0 0 0 0 0 0 0 0 0 0 0 0 0 0 0 0 0 127 0" result="hardAlpha"/>
<feOffset dx="1" dy="4"/>
<feGaussianBlur stdDeviation="3"/>
<feComposite in2="hardAlpha" operator="out"/>
<feColorMatrix type="matrix" values="0 0 0 0 0 0 0 0 0 0 0 0 0 0 0 0 0 0 0.25 0"/>
<feBlend mode="normal" in2="BackgroundImageFix" result="effect1_dropShadow_71_193"/>
<feBlend mode="normal" in="SourceGraphic" in2="effect1_dropShadow_71_193" result="shape"/>
</filter>
<filter id="filter3_f_71_193" x="67.7571" y="5.62378" width="59.1384" height="43.2258" filterUnits="userSpaceOnUse" color-interpolation-filters="sRGB">
<feFlood flood-opacity="0" result="BackgroundImageFix"/>
<feBlend mode="normal" in="SourceGraphic" in2="BackgroundImageFix" result="shape"/>
<feGaussianBlur stdDeviation="5" result="effect1_foregroundBlur_71_193"/>
</filter>
<filter id="filter4_d_71_193" x="40.2646" y="56.0645" width="51.2253" height="58.4516" filterUnits="userSpaceOnUse" color-interpolation-filters="sRGB">
<feFlood flood-opacity="0" result="BackgroundImageFix"/>
<feColorMatrix in="SourceAlpha" type="matrix" values="0 0 0 0 0 0 0 0 0 0 0 0 0 0 0 0 0 0 127 0" result="hardAlpha"/>
<feOffset dx="1" dy="4"/>
<feGaussianBlur stdDeviation="3"/>
<feComposite in2="hardAlpha" operator="out"/>
<feColorMatrix type="matrix" values="0 0 0 0 0 0 0 0 0 0 0 0 0 0 0 0 0 0 0.25 0"/>
<feBlend mode="normal" in2="BackgroundImageFix" result="effect1_dropShadow_71_193"/>
<feBlend mode="normal" in="SourceGraphic" in2="effect1_dropShadow_71_193" result="shape"/>
</filter>
<filter id="filter5_f_71_193" x="35.2646" y="48.2044" width="59.1384" height="43.2258" filterUnits="userSpaceOnUse" color-interpolation-filters="sRGB">
<feFlood flood-opacity="0" result="BackgroundImageFix"/>
<feBlend mode="normal" in="SourceGraphic" in2="BackgroundImageFix" result="shape"/>
<feGaussianBlur stdDeviation="5" result="effect1_foregroundBlur_71_193"/>
</filter>
<linearGradient id="paint0_linear_71_193" x1="43.2" y1="53.4194" x2="58.1758" y2="59.4903" gradientUnits="userSpaceOnUse">
<stop stop-color="#C93827"/>
<stop offset="1" stop-color="#F8A73B"/>
</linearGradient>
<linearGradient id="paint1_linear_71_193" x1="43.2" y1="53.4194" x2="58.1758" y2="59.4903" gradientUnits="userSpaceOnUse">
<stop stop-color="#C93827"/>
<stop offset="1" stop-color="#F8A73B"/>
</linearGradient>
<linearGradient id="paint2_linear_71_193" x1="43.2" y1="53.4194" x2="58.1758" y2="59.4903" gradientUnits="userSpaceOnUse">
<stop stop-color="#C93827"/>
<stop offset="1" stop-color="#F8A73B"/>
</linearGradient>
<linearGradient id="paint3_linear_71_193" x1="43.2" y1="53.4194" x2="58.1758" y2="59.4903" gradientUnits="userSpaceOnUse">
<stop stop-color="#C93827"/>
<stop offset="1" stop-color="#F8A73B"/>
</linearGradient>
</defs>
</svg>
