<?xml version="1.0" encoding="UTF-8" standalone="no"?>
<!-- Created with Inkscape (http://www.inkscape.org/) -->

<svg
   width="60mm"
   height="60mm"
   viewBox="0 0 59.999998 60.000002"
   version="1.1"
   id="svg8"
   inkscape:version="1.4.2 (1:1.4.2+202505120738+ebf0e940d0)"
   sodipodi:docname="pyCFS_logo_no_text.svg"
   inkscape:export-filename="pyCFS_logo_small_square.png"
   inkscape:export-xdpi="300"
   inkscape:export-ydpi="300"
   xmlns:inkscape="http://www.inkscape.org/namespaces/inkscape"
   xmlns:sodipodi="http://sodipodi.sourceforge.net/DTD/sodipodi-0.dtd"
   xmlns:xlink="http://www.w3.org/1999/xlink"
   xmlns="http://www.w3.org/2000/svg"
   xmlns:svg="http://www.w3.org/2000/svg"
   xmlns:rdf="http://www.w3.org/1999/02/22-rdf-syntax-ns#"
   xmlns:cc="http://creativecommons.org/ns#"
   xmlns:dc="http://purl.org/dc/elements/1.1/">
  <defs
     id="defs2">
    <inkscape:path-effect
       effect="powerclip"
       message=""
       id="path-effect51"
       is_visible="true"
       lpeversion="1"
       inverse="true"
       flatten="false"
       hide_clip="false" />
    <inkscape:path-effect
       effect="powerclip"
       message=""
       id="path-effect50"
       is_visible="true"
       lpeversion="1"
       inverse="true"
       flatten="false"
       hide_clip="false" />
    <linearGradient
       id="linearGradient2795">
      <stop
         id="stop2797"
         offset="0"
         style="stop-color:#b8b8b8;stop-opacity:0.49803922;" />
      <stop
         id="stop2799"
         offset="1"
         style="stop-color:#7f7f7f;stop-opacity:0;" />
    </linearGradient>
    <linearGradient
       id="linearGradient2787">
      <stop
         id="stop2789"
         offset="0"
         style="stop-color:#7f7f7f;stop-opacity:0.5;" />
      <stop
         id="stop2791"
         offset="1"
         style="stop-color:#7f7f7f;stop-opacity:0;" />
    </linearGradient>
    <linearGradient
       id="linearGradient3676">
      <stop
         id="stop3678"
         offset="0"
         style="stop-color:#b2b2b2;stop-opacity:0.5;" />
      <stop
         id="stop3680"
         offset="1"
         style="stop-color:#b3b3b3;stop-opacity:0;" />
    </linearGradient>
    <linearGradient
       id="linearGradient3236">
      <stop
         id="stop3244"
         offset="0"
         style="stop-color:#f4f4f4;stop-opacity:1" />
      <stop
         id="stop3240"
         offset="1"
         style="stop-color:white;stop-opacity:1" />
    </linearGradient>
    <linearGradient
       id="linearGradient4671">
      <stop
         id="stop4673"
         offset="0"
         style="stop-color:#ffd43b;stop-opacity:1;" />
      <stop
         id="stop4675"
         offset="1"
         style="stop-color:#ffe873;stop-opacity:1" />
    </linearGradient>
    <linearGradient
       id="linearGradient4689">
      <stop
         id="stop4691"
         offset="0"
         style="stop-color:#5a9fd4;stop-opacity:1;" />
      <stop
         id="stop4693"
         offset="1"
         style="stop-color:#306998;stop-opacity:1;" />
    </linearGradient>
    <linearGradient
       gradientTransform="translate(100.2702,99.61116)"
       gradientUnits="userSpaceOnUse"
       xlink:href="#linearGradient4671"
       id="linearGradient2987"
       y2="144.75717"
       x2="-65.308502"
       y1="144.75717"
       x1="224.23996" />
    <linearGradient
       gradientTransform="translate(100.2702,99.61116)"
       gradientUnits="userSpaceOnUse"
       xlink:href="#linearGradient4689"
       id="linearGradient2990"
       y2="76.313133"
       x2="26.670298"
       y1="77.475983"
       x1="172.94208" />
    <linearGradient
       y2="144.75717"
       x2="-65.308502"
       y1="144.75717"
       x1="224.23996"
       gradientTransform="matrix(0.562541,0,0,0.567972,-11.5974,-7.60954)"
       gradientUnits="userSpaceOnUse"
       id="linearGradient2255"
       xlink:href="#linearGradient4671"
       inkscape:collect="always" />
    <linearGradient
       y2="76.313133"
       x2="26.670298"
       y1="76.176224"
       x1="172.94208"
       gradientTransform="matrix(0.562541,0,0,0.567972,-11.5974,-7.60954)"
       gradientUnits="userSpaceOnUse"
       id="linearGradient2258"
       xlink:href="#linearGradient4689"
       inkscape:collect="always" />
    <radialGradient
       gradientUnits="userSpaceOnUse"
       gradientTransform="matrix(1,0,0,0.177966,0,108.7434)"
       r="29.036913"
       fy="132.28575"
       fx="61.518883"
       cy="132.28575"
       cx="61.518883"
       id="radialGradient2801"
       xlink:href="#linearGradient2795"
       inkscape:collect="always" />
    <linearGradient
       y2="137.27299"
       x2="112.03144"
       y1="192.35176"
       x1="150.96111"
       gradientTransform="matrix(0.15015907,0,0,0.15160876,-39.799527,193.88792)"
       gradientUnits="userSpaceOnUse"
       id="linearGradient1475"
       xlink:href="#linearGradient4671"
       inkscape:collect="always" />
    <linearGradient
       y2="114.39767"
       x2="135.66525"
       y1="20.603781"
       x1="26.648937"
       gradientTransform="matrix(0.15015907,0,0,0.15160876,-39.799527,193.88792)"
       gradientUnits="userSpaceOnUse"
       id="linearGradient1478"
       xlink:href="#linearGradient4689"
       inkscape:collect="always" />
    <linearGradient
       id="linearGradient1186">
      <stop
         style="stop-color:#ffbb5c;stop-opacity:1"
         offset="0"
         id="stop1184" />
      <stop
         style="stop-color:#fe6848;stop-opacity:1;"
         offset="1"
         id="stop1182" />
    </linearGradient>
    <linearGradient
       id="orange">
      <stop
         id="stop1598"
         offset="0"
         style="stop-color:#ffbe4a;stop-opacity:1;" />
      <stop
         id="stop1600"
         offset="1"
         style="stop-color:#ffbe4a;stop-opacity:0;" />
    </linearGradient>
    <linearGradient
       id="red">
      <stop
         style="stop-color:#fe6848;stop-opacity:1;"
         offset="0"
         id="stop1564" />
      <stop
         style="stop-color:#fe6848;stop-opacity:0;"
         offset="1"
         id="stop1566" />
    </linearGradient>
    <linearGradient
       gradientTransform="matrix(-1,0,0,1,303.68833,-7.6294247)"
       gradientUnits="userSpaceOnUse"
       y2="-22.124479"
       x2="216.50819"
       y1="-22.124479"
       x1="99.833817"
       id="linearGradient1562"
       xlink:href="#orange" />
    <linearGradient
       gradientTransform="translate(-58.337182,-33.681119)"
       gradientUnits="userSpaceOnUse"
       y2="3.9272156"
       x2="262.19168"
       y1="3.9272156"
       x1="145.51732"
       id="linearGradient1604"
       xlink:href="#orange" />
    <linearGradient
       gradientTransform="matrix(-1,0,0,1,229.15089,155.80733)"
       gradientUnits="userSpaceOnUse"
       y2="-22.124479"
       x2="216.50819"
       y1="-22.124479"
       x1="99.833817"
       id="linearGradient1562-7"
       xlink:href="#red" />
    <linearGradient
       gradientTransform="translate(-87.191115,155.80733)"
       gradientUnits="userSpaceOnUse"
       y2="-22.124479"
       x2="216.50819"
       y1="-22.124479"
       x1="99.833817"
       id="linearGradient1562-6"
       xlink:href="#orange" />
    <mask
       id="mask979"
       maskUnits="userSpaceOnUse">
      <path
         id="path981"
         d="m 70.136887,105.46558 c 0.48374,-7.1e-4 1.34706,0.32308 1.89766,0.8062 0.60316,0.52925 1.08639,1.35036 1.2149,2.06472 0.19092,1.0612 0.74834,1.57957 5.30541,4.93355 4.55267,3.35074 5.24406,3.85713 5.63273,4.06661 0.50663,-0.37551 1.41878,-0.69754 1.9077,-0.56957 0.48893,0.12796 1.1796,0.27739 1.69082,1.26898 0.4409,1.22685 0.37548,1.78745 0.3715,1.98724 -0.003,0.13573 1.20181,1.01318 6.48819,4.5985 3.187558,2.16187 5.923033,3.98019 6.078523,4.04149 0.1555,0.0613 2.16789,-1.62253 4.47205,-3.74204 3.90876,-3.59553 4.69191,-4.09926 4.66884,-4.16713 -0.62888,-1.85052 -0.15482,-2.65244 0.16667,-3.16409 0.32148,-0.51165 1.10424,-1.15783 1.73902,-1.43441 0.89588,-0.39035 1.3946,-0.41909 2.22899,-0.13193 0.59122,0.20347 1.39755,0.72927 1.79324,1.16848 0.39569,0.43921 0.80322,1.33732 0.90565,1.99561 0.12008,0.77156 -0.003,1.57804 -0.3474,2.27203 -0.29362,0.5921 -0.9887,1.32222 -1.54624,1.62288 -0.57433,0.3097 -2.14347,0.41999 -3.1708,-0.0314 -0.75565,0.74987 -0.60789,0.57416 -4.49414,4.08546 -2.43068,2.19616 -3.51451,3.20407 -4.12665,3.88025 0.12074,0.21236 2.48067,3.50101 4.9801,7.01711 2.49942,3.5161 4.91485,6.64491 5.36766,6.95429 0.56569,0.38651 0.82332,0.87511 0.82332,1.56006 0,0.54826 -0.23373,1.2384 -0.51808,1.53493 -0.28436,0.29652 -0.93204,0.54026 -1.43981,0.54026 -0.50779,0 -1.07009,-0.19341 -1.25106,-0.42928 -0.18096,-0.23587 -0.43683,-0.79327 -0.56828,-1.23967 -0.13146,-0.4464 -2.16904,-3.5346 -4.52828,-6.86215 -2.35922,-3.32756 -4.7354,-6.75238 -4.97006,-7.01712 -0.52837,0.32655 -1.012405,0.80819 -5.482113,5.08851 -4.39248,4.20636 -5.08811,4.91327 -5.38172,5.24975 0.53535,1.1542 0.56149,1.75471 0.6667,2.35579 0.10521,0.60107 0.0228,1.60289 -0.18475,2.22386 l -0.37753,1.12869 3.21699,3.16408 c 1.9915,1.9594 3.49117,3.17037 3.9399,3.18084 0.398628,0.009 1.087208,0.18836 1.528158,0.39787 0.44095,0.20951 0.9658,0.75892 1.166705,1.21873 0.20091,0.45981 0.36547,1.1477 0.36547,1.53074 0,0.38302 -0.432925,1.14878 -0.961875,1.70036 -0.57983,0.60457 -1.30903,1.00304 -1.8354,1.00304 -0.526368,0 -1.255638,-0.39847 -1.835408,-1.00304 -0.52894,-0.55158 -0.96189,-1.36622 -0.96189,-1.81134 0,-0.58386 -0.91331,-1.6958 -3.28123,-3.98914 -2.83423,-2.74496 -3.02989,-2.90638 -3.2692,-3.06358 -0.35427,0.19772 -1.96882,0.60309 -2.78323,0.60309 -0.81441,0 -1.87814,-0.15726 -2.36354,-0.34971 -0.4854,-0.19245 -1.27067,-0.78412 -1.74705,-1.31505 l -0.8675,-0.96535 -3.78327,1.08261 c -2.08097,0.59579 -5.30009,1.51591 -7.15487,2.04378 -2.38272,0.67813 -3.37362,1.11219 -3.37362,1.47839 0,0.28507 -0.29791,1.02209 -0.66267,1.63754 -0.36477,0.61544 -1.19915,1.38285 -1.85348,1.70664 -0.76909,0.38058 -1.59254,0.5208 -2.33141,0.39577 -0.62863,-0.10636 -1.49705,-0.43443 -1.92778,-0.72873 -0.43072,-0.2943 -1.04046,-0.94564 -1.35547,-1.44697 -0.31501,-0.50134 -0.5836,-1.58373 -0.59841,-2.40605 -0.0266,-1.47554 -0.0656,-1.52357 -2.91979,-3.69179 l -2.89166,-2.19664 -1.36551,0.74757 c -1.02087,0.55968 -1.93911,0.74967 -3.63668,0.74967 h -2.27116 l -2.41776,3.77135 c -1.94626,3.03619 -2.41776,4.02545 -2.41776,5.07595 0,0.92793 -0.23296,1.5475 -0.80726,2.14638 -0.49726,0.51853 -1.18555,0.84181 -1.79122,0.8418 -0.56054,0 -1.37295,-0.34904 -1.88963,-0.81248 -0.69045,-0.61932 -0.90766,-1.12025 -0.90766,-2.10241 0,-0.98216 0.21721,-1.48519 0.90766,-2.10451 0.49867,-0.44729 1.15733,-0.81675 1.46391,-0.82086 0.34351,-0.005 1.52722,-1.5411 3.08645,-4.00589 l 2.53021,-3.99961 -0.60444,-0.88577 c -0.33239,-0.48679 -0.77464,-1.54719 -0.98397,-2.35789 -0.20934,-0.81069 -0.33604,-1.80196 -0.28113,-2.20083 0.0877,-0.6372 -0.55357,-1.00911 -5.28935,-3.07195 -4.10542,-1.78826 -5.4962,-2.25651 -5.83153,-1.9663 -0.24215,0.20956 -0.9625,0.39576 -1.60046,0.41462 -0.69655,0.0206 -1.520241,-0.24689 -2.064327,-0.668 -0.498303,-0.38568 -1.032121,-1.22552 -1.184781,-1.86788 -0.170487,-0.71733 -0.143688,-1.52557 0.06828,-2.09403 0.189827,-0.50905 0.740445,-1.1948 1.222935,-1.52446 0.482479,-0.32966 1.408713,-0.58465 2.060313,-0.56539 0.88545,0.0262 1.41552,0.3044 2.09847,1.10146 0.50259,0.58656 0.91369,1.2771 0.91369,1.53493 0,0.2795 2.07824,1.38737 5.14476,2.74109 2.82877,1.24878 5.32296,2.26994 5.54236,2.26994 0.2194,0 0.67943,-0.33096 1.02414,-0.73501 0.34471,-0.40404 1.22002,-1.01871 1.94384,-1.36531 0.72382,-0.3466 1.90881,-0.62607 2.63262,-0.62193 0.72382,0.004 1.9068,0.22784 2.63062,0.49838 l 1.31731,0.4921 3.69492,-3.85093 c 3.66084,-3.81553 3.09671,-3.29092 3.86158,-4.0017 l -0.57633,-2.46887 -6.54842,-3.41746 c -6.17295,-3.22162 -6.58938,-3.38767 -7.26533,-2.89396 -0.39434,0.28803 -1.28916,0.52351 -1.99003,0.52351 -0.70086,0 -1.69635,-0.25889 -2.21092,-0.57586 -0.51457,-0.31697 -1.18836,-1.06719 -1.49804,-1.66685 -0.40322,-0.78077 -0.50827,-1.51747 -0.36949,-2.59661 0.14059,-1.09333 0.46982,-1.76443 1.19883,-2.44373 0.55264,-0.51496 1.4042,-1.0409 1.89164,-1.16848 0.50638,-0.13253 1.44589,-0.0242 2.19285,0.25129 0.719,0.26513 1.59464,0.88714 1.94585,1.38206 0.35121,0.49492 0.73657,1.40228 0.85746,2.01865 0.20691,1.055 0.59653,1.32365 6.64281,4.57756 l 6.92594,3.90538 1.00807,-0.82505 c 0.65352,-0.32339 0.82132,-0.45194 1.69484,-0.41253 0.14775,0.007 0.96945,-1.94465 2.56837,-5.44658 1.27079,-2.78329 2.48206,-5.59282 2.47398,-5.87586 -0.40283,-0.79429 -0.37168,-0.7261 -0.46387,-1.46164 -0.11611,-0.61085 -0.0574,-1.36693 0.0582,-1.84694 0.11553,-0.48001 0.68788,-1.17666 1.27113,-1.54749 0.58325,-0.37084 1.43801,-0.60447 1.92175,-0.60518 z m 1.96794,6.18368 c -1.03692,0.66382 -1.71641,0.47943 -2.02015,0.55283 -0.0652,0.0158 -0.55166,1.26233 -2.46595,5.56385 -1.89727,4.26327 -2.28641,5.41356 -1.99807,5.8968 0.19703,0.33022 0.43393,0.59757 0.52613,0.59262 0.0922,-0.005 3.61841,-0.9166 7.83762,-2.02494 4.21923,-1.10833 7.76488,-2.11031 7.87779,-2.22805 -0.0306,-0.20503 -0.0324,-0.20903 0.0181,-0.51304 -0.26066,-0.2666 -7.2441,-5.92146 -9.77545,-7.84007 z m 11.38193,11.48788 c -0.23614,-0.0945 -4.16651,0.7959 -8.73324,1.97886 -4.56673,1.18297 -8.38867,2.23939 -8.49428,2.34951 -0.1056,0.11012 0.29187,0.63133 0.88357,1.158 0.59169,0.52668 4.19373,3.67341 8.0043,6.99199 6.62644,5.77088 6.96736,6.01715 7.84767,5.67065 l 0.92172,-0.36227 v -8.80752 c 0,-6.92832 -0.0919,-8.84408 -0.42974,-8.97922 z m 3.63668,0.10471 c -0.13572,-0.003 -0.24699,3.99457 -0.24699,8.88499 0,6.80593 0.0969,8.92494 0.41166,9.03785 0.22619,0.0811 0.87091,-0.2534 1.43378,-0.74338 0.56286,-0.48998 3.03954,-2.81576 5.5022,-5.17017 l 4.476068,-4.28021 -5.664858,-3.8614 c -3.11602,-2.1237 -5.77615,-3.86422 -5.91186,-3.86768 z m -23.1675,7.09459 c -0.35161,0.1407 -0.43977,2.003 -0.43977,9.29333 v 9.11533 l 1.0663,0.92557 c 0.58547,0.50969 1.21406,0.87186 1.39764,0.80411 0.18359,-0.0678 3.28097,-0.96798 6.88378,-2.0019 3.60282,-1.03393 6.93448,-1.99543 6.95608,-2.20083 0.0655,-0.62289 0.274,-1.72088 0.68075,-2.09195 -0.68599,-0.52947 -0.79074,-0.6186 -8.23725,-7.13437 -4.47673,-3.91718 -8.05736,-6.8094 -8.30753,-6.70929 z m -3.43385,0.1026 c -0.11855,0 -1.92725,1.70381 -4.01822,3.78602 l -3.80134,3.78601 0.51006,1.27318 c 0.3577,0.89272 0.46204,1.92104 0.34539,3.43631 l -0.16667,2.16314 2.84147,2.19664 c 2.03755,1.57498 3.02841,2.14209 3.50012,1.9998 0.36191,-0.10916 0.67922,-0.21917 0.70485,-0.2429 0.0256,-0.0237 0.10316,-4.17238 0.17269,-9.22004 0.0695,-5.04766 0.0302,-9.17816 -0.0884,-9.17816 z"
         style="opacity:1;fill:#ffffff;fill-opacity:1;fill-rule:nonzero;stroke:none;stroke-width:0.4;stroke-miterlimit:4;stroke-dasharray:none;stroke-dashoffset:0;stroke-opacity:1" />
    </mask>
    <mask
       id="mask979-7"
       maskUnits="userSpaceOnUse">
      <path
         id="path981-0"
         d="m 70.136887,105.46558 c 0.48374,-7.1e-4 1.34706,0.32308 1.89766,0.8062 0.60316,0.52925 1.08639,1.35036 1.2149,2.06472 0.19092,1.0612 0.74834,1.57957 5.30541,4.93355 4.55267,3.35074 5.24406,3.85713 5.63273,4.06661 0.50663,-0.37551 1.41878,-0.69754 1.9077,-0.56957 0.48893,0.12796 1.1796,0.27739 1.69082,1.26898 0.4409,1.22685 0.37548,1.78745 0.3715,1.98724 -0.003,0.13573 1.20181,1.01318 6.48819,4.5985 3.187558,2.16187 5.923033,3.98019 6.078523,4.04149 0.1555,0.0613 2.16789,-1.62253 4.47205,-3.74204 3.90876,-3.59553 4.69191,-4.09926 4.66884,-4.16713 -0.62888,-1.85052 -0.15482,-2.65244 0.16667,-3.16409 0.32148,-0.51165 1.10424,-1.15783 1.73902,-1.43441 0.89588,-0.39035 1.3946,-0.41909 2.22899,-0.13193 0.59122,0.20347 1.39755,0.72927 1.79324,1.16848 0.39569,0.43921 0.80322,1.33732 0.90565,1.99561 0.12008,0.77156 -0.003,1.57804 -0.3474,2.27203 -0.29362,0.5921 -0.9887,1.32222 -1.54624,1.62288 -0.57433,0.3097 -2.14347,0.41999 -3.1708,-0.0314 -0.75565,0.74987 -0.60789,0.57416 -4.49414,4.08546 -2.43068,2.19616 -3.51451,3.20407 -4.12665,3.88025 0.12074,0.21236 2.48067,3.50101 4.9801,7.01711 2.49942,3.5161 4.91485,6.64491 5.36766,6.95429 0.56569,0.38651 0.82332,0.87511 0.82332,1.56006 0,0.54826 -0.23373,1.2384 -0.51808,1.53493 -0.28436,0.29652 -0.93204,0.54026 -1.43981,0.54026 -0.50779,0 -1.07009,-0.19341 -1.25106,-0.42928 -0.18096,-0.23587 -0.43683,-0.79327 -0.56828,-1.23967 -0.13146,-0.4464 -2.16904,-3.5346 -4.52828,-6.86215 -2.35922,-3.32756 -4.7354,-6.75238 -4.97006,-7.01712 -0.52837,0.32655 -1.012405,0.80819 -5.482113,5.08851 -4.39248,4.20636 -5.08811,4.91327 -5.38172,5.24975 0.53535,1.1542 0.56149,1.75471 0.6667,2.35579 0.10521,0.60107 0.0228,1.60289 -0.18475,2.22386 l -0.37753,1.12869 3.21699,3.16408 c 1.9915,1.9594 3.49117,3.17037 3.9399,3.18084 0.398628,0.009 1.087208,0.18836 1.528158,0.39787 0.44095,0.20951 0.9658,0.75892 1.166705,1.21873 0.20091,0.45981 0.36547,1.1477 0.36547,1.53074 0,0.38302 -0.432925,1.14878 -0.961875,1.70036 -0.57983,0.60457 -1.30903,1.00304 -1.8354,1.00304 -0.526368,0 -1.255638,-0.39847 -1.835408,-1.00304 -0.52894,-0.55158 -0.96189,-1.36622 -0.96189,-1.81134 0,-0.58386 -0.91331,-1.6958 -3.28123,-3.98914 -2.83423,-2.74496 -3.02989,-2.90638 -3.2692,-3.06358 -0.35427,0.19772 -1.96882,0.60309 -2.78323,0.60309 -0.81441,0 -1.87814,-0.15726 -2.36354,-0.34971 -0.4854,-0.19245 -1.27067,-0.78412 -1.74705,-1.31505 l -0.8675,-0.96535 -3.78327,1.08261 c -2.08097,0.59579 -5.30009,1.51591 -7.15487,2.04378 -2.38272,0.67813 -3.37362,1.11219 -3.37362,1.47839 0,0.28507 -0.29791,1.02209 -0.66267,1.63754 -0.36477,0.61544 -1.19915,1.38285 -1.85348,1.70664 -0.76909,0.38058 -1.59254,0.5208 -2.33141,0.39577 -0.62863,-0.10636 -1.49705,-0.43443 -1.92778,-0.72873 -0.43072,-0.2943 -1.04046,-0.94564 -1.35547,-1.44697 -0.31501,-0.50134 -0.5836,-1.58373 -0.59841,-2.40605 -0.0266,-1.47554 -0.0656,-1.52357 -2.91979,-3.69179 l -2.89166,-2.19664 -1.36551,0.74757 c -1.02087,0.55968 -1.93911,0.74967 -3.63668,0.74967 h -2.27116 l -2.41776,3.77135 c -1.94626,3.03619 -2.41776,4.02545 -2.41776,5.07595 0,0.92793 -0.23296,1.5475 -0.80726,2.14638 -0.49726,0.51853 -1.18555,0.84181 -1.79122,0.8418 -0.56054,0 -1.37295,-0.34904 -1.88963,-0.81248 -0.69045,-0.61932 -0.90766,-1.12025 -0.90766,-2.10241 0,-0.98216 0.21721,-1.48519 0.90766,-2.10451 0.49867,-0.44729 1.15733,-0.81675 1.46391,-0.82086 0.34351,-0.005 1.52722,-1.5411 3.08645,-4.00589 l 2.53021,-3.99961 -0.60444,-0.88577 c -0.33239,-0.48679 -0.77464,-1.54719 -0.98397,-2.35789 -0.20934,-0.81069 -0.33604,-1.80196 -0.28113,-2.20083 0.0877,-0.6372 -0.55357,-1.00911 -5.28935,-3.07195 -4.10542,-1.78826 -5.4962,-2.25651 -5.83153,-1.9663 -0.24215,0.20956 -0.9625,0.39576 -1.60046,0.41462 -0.69655,0.0206 -1.520241,-0.24689 -2.064327,-0.668 -0.498303,-0.38568 -1.032121,-1.22552 -1.184781,-1.86788 -0.170487,-0.71733 -0.143688,-1.52557 0.06828,-2.09403 0.189827,-0.50905 0.740445,-1.1948 1.222935,-1.52446 0.482479,-0.32966 1.408713,-0.58465 2.060313,-0.56539 0.88545,0.0262 1.41552,0.3044 2.09847,1.10146 0.50259,0.58656 0.91369,1.2771 0.91369,1.53493 0,0.2795 2.07824,1.38737 5.14476,2.74109 2.82877,1.24878 5.32296,2.26994 5.54236,2.26994 0.2194,0 0.67943,-0.33096 1.02414,-0.73501 0.34471,-0.40404 1.22002,-1.01871 1.94384,-1.36531 0.72382,-0.3466 1.90881,-0.62607 2.63262,-0.62193 0.72382,0.004 1.9068,0.22784 2.63062,0.49838 l 1.31731,0.4921 3.69492,-3.85093 c 3.66084,-3.81553 3.09671,-3.29092 3.86158,-4.0017 l -0.57633,-2.46887 -6.54842,-3.41746 c -6.17295,-3.22162 -6.58938,-3.38767 -7.26533,-2.89396 -0.39434,0.28803 -1.28916,0.52351 -1.99003,0.52351 -0.70086,0 -1.69635,-0.25889 -2.21092,-0.57586 -0.51457,-0.31697 -1.18836,-1.06719 -1.49804,-1.66685 -0.40322,-0.78077 -0.50827,-1.51747 -0.36949,-2.59661 0.14059,-1.09333 0.46982,-1.76443 1.19883,-2.44373 0.55264,-0.51496 1.4042,-1.0409 1.89164,-1.16848 0.50638,-0.13253 1.44589,-0.0242 2.19285,0.25129 0.719,0.26513 1.59464,0.88714 1.94585,1.38206 0.35121,0.49492 0.73657,1.40228 0.85746,2.01865 0.20691,1.055 0.59653,1.32365 6.64281,4.57756 l 6.92594,3.90538 1.00807,-0.82505 c 0.65352,-0.32339 0.82132,-0.45194 1.69484,-0.41253 0.14775,0.007 0.96945,-1.94465 2.56837,-5.44658 1.27079,-2.78329 2.48206,-5.59282 2.47398,-5.87586 -0.40283,-0.79429 -0.37168,-0.7261 -0.46387,-1.46164 -0.11611,-0.61085 -0.0574,-1.36693 0.0582,-1.84694 0.11553,-0.48001 0.68788,-1.17666 1.27113,-1.54749 0.58325,-0.37084 1.43801,-0.60447 1.92175,-0.60518 z m 1.96794,6.18368 c -1.03692,0.66382 -1.71641,0.47943 -2.02015,0.55283 -0.0652,0.0158 -0.55166,1.26233 -2.46595,5.56385 -1.89727,4.26327 -2.28641,5.41356 -1.99807,5.8968 0.19703,0.33022 0.43393,0.59757 0.52613,0.59262 0.0922,-0.005 3.61841,-0.9166 7.83762,-2.02494 4.21923,-1.10833 7.76488,-2.11031 7.87779,-2.22805 -0.0306,-0.20503 -0.0324,-0.20903 0.0181,-0.51304 -0.26066,-0.2666 -7.2441,-5.92146 -9.77545,-7.84007 z m 11.38193,11.48788 c -0.23614,-0.0945 -4.16651,0.7959 -8.73324,1.97886 -4.56673,1.18297 -8.38867,2.23939 -8.49428,2.34951 -0.1056,0.11012 0.29187,0.63133 0.88357,1.158 0.59169,0.52668 4.19373,3.67341 8.0043,6.99199 6.62644,5.77088 6.96736,6.01715 7.84767,5.67065 l 0.92172,-0.36227 v -8.80752 c 0,-6.92832 -0.0919,-8.84408 -0.42974,-8.97922 z m 3.63668,0.10471 c -0.13572,-0.003 -0.24699,3.99457 -0.24699,8.88499 0,6.80593 0.0969,8.92494 0.41166,9.03785 0.22619,0.0811 0.87091,-0.2534 1.43378,-0.74338 0.56286,-0.48998 3.03954,-2.81576 5.5022,-5.17017 l 4.476068,-4.28021 -5.664858,-3.8614 c -3.11602,-2.1237 -5.77615,-3.86422 -5.91186,-3.86768 z m -23.1675,7.09459 c -0.35161,0.1407 -0.43977,2.003 -0.43977,9.29333 v 9.11533 l 1.0663,0.92557 c 0.58547,0.50969 1.21406,0.87186 1.39764,0.80411 0.18359,-0.0678 3.28097,-0.96798 6.88378,-2.0019 3.60282,-1.03393 6.93448,-1.99543 6.95608,-2.20083 0.0655,-0.62289 0.274,-1.72088 0.68075,-2.09195 -0.68599,-0.52947 -0.79074,-0.6186 -8.23725,-7.13437 -4.47673,-3.91718 -8.05736,-6.8094 -8.30753,-6.70929 z m -3.43385,0.1026 c -0.11855,0 -1.92725,1.70381 -4.01822,3.78602 l -3.80134,3.78601 0.51006,1.27318 c 0.3577,0.89272 0.46204,1.92104 0.34539,3.43631 l -0.16667,2.16314 2.84147,2.19664 c 2.03755,1.57498 3.02841,2.14209 3.50012,1.9998 0.36191,-0.10916 0.67922,-0.21917 0.70485,-0.2429 0.0256,-0.0237 0.10316,-4.17238 0.17269,-9.22004 0.0695,-5.04766 0.0302,-9.17816 -0.0884,-9.17816 z"
         style="opacity:1;fill:#ffffff;fill-opacity:1;fill-rule:nonzero;stroke:none;stroke-width:0.4;stroke-miterlimit:4;stroke-dasharray:none;stroke-dashoffset:0;stroke-opacity:1" />
    </mask>
    <linearGradient
       gradientTransform="matrix(0.60873576,0,0,0.60873576,-55.337223,234.99895)"
       gradientUnits="userSpaceOnUse"
       y2="-40.790768"
       x2="84.659096"
       y1="-41.300648"
       x1="-16.598711"
       id="linearGradient1180"
       xlink:href="#linearGradient1186"
       inkscape:collect="always" />
    <linearGradient
       inkscape:collect="always"
       xlink:href="#linearGradient4671"
       id="linearGradient37"
       gradientUnits="userSpaceOnUse"
       gradientTransform="matrix(0.15015907,0,0,0.15160876,-41.495146,182.95776)"
       x1="150.96111"
       y1="192.35176"
       x2="112.03144"
       y2="137.27299" />
    <linearGradient
       inkscape:collect="always"
       xlink:href="#linearGradient4689"
       id="linearGradient43"
       gradientUnits="userSpaceOnUse"
       gradientTransform="matrix(0.15015907,0,0,0.15160876,-41.495146,182.95776)"
       x1="26.648937"
       y1="20.603781"
       x2="135.66525"
       y2="114.39767" />
    <clipPath
       clipPathUnits="userSpaceOnUse"
       id="clipPath49">
      <g
         id="g50"
         style="display:none">
        <rect
           style="display:inline;fill:#000000;fill-opacity:1;stroke:#6c8ebf;stroke-width:0.1;stroke-linecap:round;stroke-linejoin:bevel;stroke-dasharray:none"
           id="rect49"
           width="7.5089679"
           height="10.271332"
           x="-37.723186"
           y="196.19479"
           d="m -37.723186,196.19479 h 7.508967 v 10.27134 h -7.508967 z" />
        <rect
           style="display:inline;fill:#000000;fill-opacity:1;stroke:#6c8ebf;stroke-width:0.103041;stroke-linecap:round;stroke-linejoin:bevel;stroke-dasharray:none"
           id="rect50"
           width="10.13316"
           height="8.2977104"
           x="-25.200928"
           y="192.8217"
           d="m -25.200928,192.8217 h 10.13316 v 8.29771 h -10.13316 z" />
      </g>
      <path
         id="lpe_path-effect50"
         class="powerclip"
         d="m -42.493566,181.08147 h 31.96668 v 32.18046 h -31.96668 z m 4.77038,15.11332 v 10.27134 h 7.508967 v -10.27134 z m 12.522258,-3.37309 v 8.29771 h 10.13316 v -8.29771 z" />
    </clipPath>
    <filter
       id="mask-powermask-path-effect51_inverse"
       inkscape:label="filtermask-powermask-path-effect51"
       style="color-interpolation-filters:sRGB"
       height="100"
       width="100"
       x="-50"
       y="-50">
      <feColorMatrix
         id="mask-powermask-path-effect51_primitive1"
         values="1"
         type="saturate"
         result="fbSourceGraphic" />
      <feColorMatrix
         id="mask-powermask-path-effect51_primitive2"
         values="-1 0 0 0 1 0 -1 0 0 1 0 0 -1 0 1 0 0 0 1 0 "
         in="fbSourceGraphic" />
    </filter>
    <clipPath
       clipPathUnits="userSpaceOnUse"
       id="clipPath51">
      <rect
         style="display:none;fill:#000000;fill-opacity:1;stroke:#6c8ebf;stroke-width:0.1;stroke-linecap:round;stroke-linejoin:bevel;stroke-dasharray:none"
         id="rect51"
         width="9.7801332"
         height="10.299849"
         x="-17.008928"
         y="198.50838"
         d="m -17.008928,198.50838 h 9.7801329 v 10.29985 h -9.7801329 z" />
      <path
         id="lpe_path-effect51"
         style="display:inline;fill:#000000;fill-opacity:1;stroke:#6c8ebf;stroke-width:0.1;stroke-linecap:round;stroke-linejoin:bevel;stroke-dasharray:none"
         class="powerclip"
         d="m -34.832666,188.73093 h 32.0113998 v 32.35054 H -34.832666 Z m 17.823738,9.77745 v 10.29985 h 9.7801329 v -10.29985 z" />
    </clipPath>
  </defs>
  <sodipodi:namedview
     id="base"
     pagecolor="#ffffff"
     bordercolor="#666666"
     borderopacity="1.0"
     inkscape:pageopacity="0.0"
     inkscape:pageshadow="2"
     inkscape:zoom="2.8"
     inkscape:cx="82.857143"
     inkscape:cy="133.57143"
     inkscape:document-units="mm"
     inkscape:current-layer="layer1"
     showgrid="false"
     inkscape:window-width="1920"
     inkscape:window-height="995"
     inkscape:window-x="0"
     inkscape:window-y="0"
     inkscape:window-maximized="1"
     inkscape:showpageshadow="2"
     inkscape:pagecheckerboard="0"
     inkscape:deskcolor="#d1d1d1"
     showguides="true">
    <inkscape:page
       x="0"
       y="0"
       width="60"
       height="60.000004"
       id="page1"
       margin="0"
       bleed="0" />
    <sodipodi:guide
       position="-60.476188,30.045388"
       orientation="0,-1"
       id="guide1"
       inkscape:locked="false" />
    <sodipodi:guide
       position="29.954612,78.61533"
       orientation="1,0"
       id="guide2"
       inkscape:locked="false" />
  </sodipodi:namedview>
  <metadata
     id="metadata5">
    <rdf:RDF>
      <cc:Work
         rdf:about="">
        <dc:format>image/svg+xml</dc:format>
        <dc:type
           rdf:resource="http://purl.org/dc/dcmitype/StillImage" />
      </cc:Work>
    </rdf:RDF>
  </metadata>
  <g
     inkscape:label="Ebene 1"
     inkscape:groupmode="layer"
     id="layer1"
     style="display:none"
     transform="translate(56.104722,-202.27945)">
    <text
       xml:space="preserve"
       style="font-style:normal;font-variant:normal;font-weight:bold;font-stretch:normal;font-size:10.6114px;line-height:1.25;font-family:Verdana;-inkscape-font-specification:'Verdana, Bold';font-variant-ligatures:none;font-variant-caps:normal;font-variant-numeric:normal;font-variant-east-asian:normal;text-align:center;text-anchor:middle;stroke-width:0.0155977"
       x="-26.15011"
       y="256.78424"
       id="text51"><tspan
         sodipodi:role="line"
         id="tspan51"
         style="font-style:normal;font-variant:normal;font-weight:bold;font-stretch:normal;font-size:10.6114px;font-family:Verdana;-inkscape-font-specification:'Verdana, Bold';font-variant-ligatures:none;font-variant-caps:normal;font-variant-numeric:normal;font-variant-east-asian:normal;stroke-width:0.0155977"
         x="-26.15011"
         y="256.78424">pyCFS</tspan></text>
  </g>
  <g
     inkscape:groupmode="layer"
     id="layer3"
     inkscape:label="Ebene 3"
     style="display:inline"
     transform="translate(63.855532,-182.60996)">
    <path
       inkscape:connector-curvature="0"
       style="fill:url(#linearGradient1475);fill-opacity:1;stroke-width:0.26693"
       d="m -12.93872,204.66109 v 3.17813 c 0,2.46397 -2.088966,4.53781 -4.471078,4.53781 h -7.148719 c -1.958153,0 -3.57853,1.67592 -3.57853,3.63693 v 6.81505 c 0,1.9396 1.686621,3.08046 3.57853,3.63692 2.265523,0.66616 4.438042,0.78655 7.148719,0 1.801819,-0.52168 3.578531,-1.57157 3.578531,-3.63692 v -2.72769 h -7.14872 v -0.90923 h 7.14872 3.57853 c 2.0800417,0 2.8551506,-1.45087 3.5785282,-3.62858 0.7472251,-2.24191 0.7154311,-4.39788 0,-7.27384 -0.5140484,-2.07069 -1.4958413,-3.62858 -3.5785282,-3.62858 z m -4.020633,17.2587 c 0.741926,0 1.342992,0.6079 1.342992,1.35967 -1e-6,0.75443 -0.601066,1.36802 -1.342992,1.36802 -0.739276,0 -1.342992,-0.61359 -1.342992,-1.36802 0,-0.75177 0.603715,-1.35967 1.342992,-1.35967 z"
       id="path1950" />
    <path
       inkscape:connector-curvature="0"
       style="display:inline;fill:url(#linearGradient1478);fill-opacity:1;stroke-width:0.26693"
       d="m -21.138476,197.01187 c -1.223514,0.006 -2.391943,0.11004 -3.420041,0.29196 -3.028645,0.53506 -3.57853,1.65499 -3.57853,3.72034 v 2.72769 h 7.15706 v 0.90923 h -7.15706 -2.685983 c -2.080041,0 -3.901384,1.25022 -4.471078,3.62858 -0.657133,2.72615 -0.68628,4.4273 0,7.27384 0.50875,2.11885 1.723713,3.62858 3.803753,3.62858 h 2.460761 v -3.26989 c 0,-2.36231 2.043921,-4.44606 4.471077,-4.44606 h 7.148719 c 1.98995,0 3.578531,-1.63845 3.578531,-3.63692 v -6.81505 c 0,-1.93961 -1.636276,-3.39662 -3.578531,-3.72034 -1.229476,-0.20466 -2.505164,-0.29764 -3.728678,-0.29196 z m -3.870485,2.19384 c 0.739276,0 1.342992,0.61357 1.342992,1.36802 -1e-6,0.75175 -0.603716,1.35967 -1.342992,1.35967 -0.741925,0 -1.342991,-0.60792 -1.342991,-1.35967 0,-0.75445 0.601066,-1.36802 1.342991,-1.36802 z"
       id="path1948" />
  </g>
  <g
     inkscape:groupmode="layer"
     id="layer2"
     inkscape:label="Ebene 2"
     style="display:inline"
     transform="translate(63.855532,-182.60996)">
    <path
       inkscape:connector-curvature="0"
       style="opacity:1;fill:url(#linearGradient1180);fill-opacity:1;fill-rule:nonzero;stroke:none;stroke-width:1.6909;stroke-miterlimit:4;stroke-dasharray:none;stroke-dashoffset:0;stroke-opacity:1"
       d="m -34.160108,193.54012 c 0.294473,-4e-4 0.820005,0.19671 1.155172,0.49077 0.367167,0.32217 0.661328,0.822 0.739555,1.25687 0.11621,0.64599 0.455543,0.96154 3.22959,3.00324 2.771373,2.03972 3.192247,2.34797 3.428846,2.47547 0.3084,-0.22846 0.86366,-0.4246 1.161283,-0.3467 0.29763,0.078 0.718066,0.16888 1.029262,0.77248 0.268394,0.74682 0.228578,1.08809 0.22614,1.20969 -0.0018,0.0824 0.731584,0.61676 3.949593,2.79928 1.94038,1.31601 3.605563,2.4229 3.700214,2.46018 0.09465,0.0373 1.319674,-0.98767 2.722306,-2.2779 2.379395,-2.18872 2.8561263,-2.49536 2.8420823,-2.53668 -0.3828223,-1.12648 -0.09423,-1.61464 0.101469,-1.92611 0.195699,-0.31145 0.672196,-0.70481 1.058609,-0.87317 0.5453544,-0.23762 0.8489436,-0.25511 1.3568653,-0.0802 0.3598953,0.12378 0.8507406,0.44393 1.0916104,0.7113 0.2408719,0.26737 0.4889497,0.81406 0.5513036,1.21478 0.0731,0.46968 -0.00181,0.96063 -0.2114842,1.38307 -0.1787434,0.36045 -0.6018574,0.80488 -0.9412539,0.98791 -0.3496146,0.18842 -1.3048052,0.25567 -1.9301812,-0.0184 -0.45999,0.45648 -0.370043,0.34953 -2.7357423,2.48698 -1.479643,1.33689 -2.139409,1.95041 -2.512048,2.36206 0.0735,0.12928 1.51008,2.13118 3.031572,4.27155 1.5214863,2.14038 2.9918477,4.04498 3.2674889,4.23333 0.3443552,0.23527 0.5011844,0.5327 0.5011844,0.94964 0,0.33377 -0.1422762,0.75386 -0.3153744,0.93438 -0.1731068,0.18062 -0.5673654,0.32887 -0.8764626,0.32887 -0.30911,0 -0.651403,-0.1178 -0.761567,-0.26131 -0.110149,-0.14357 -0.265914,-0.48288 -0.34593,-0.75462 -0.08002,-0.27175 -1.3203803,-2.15166 -2.7565283,-4.17725 -1.436142,-2.02561 -2.882614,-4.11041 -3.025463,-4.27157 -0.321634,0.19881 -0.616287,0.49197 -3.33716,3.09756 -2.673857,2.56055 -3.097312,2.99089 -3.276041,3.19568 0.325884,0.70263 0.341795,1.06818 0.405842,1.43409 0.06406,0.36588 0.0138,0.97573 -0.112461,1.35373 l -0.229819,0.68708 1.958296,1.9261 c 1.212296,1.19274 2.125199,1.92991 2.398356,1.93628 0.242661,0.004 0.661826,0.11458 0.930248,0.24221 0.268421,0.12745 0.587915,0.46196 0.710217,0.74186 0.122307,0.27991 0.222481,0.69867 0.222481,0.93182 0,0.23315 -0.263539,0.6993 -0.58553,1.03508 -0.352964,0.36802 -0.796856,0.61057 -1.117275,0.61057 -0.320419,0 -0.764353,-0.24255 -1.117281,-0.61057 -0.321982,-0.33578 -0.585534,-0.83168 -0.585534,-1.10262 0,-0.35542 -0.555963,-1.0323 -1.997399,-2.42833 -1.725297,-1.67096 -1.844406,-1.76922 -1.99008,-1.86491 -0.215648,0.12033 -1.198492,0.36709 -1.694252,0.36709 -0.495762,0 -1.143291,-0.0957 -1.438771,-0.21279 -0.295479,-0.11711 -0.773502,-0.47732 -1.063493,-0.80053 l -0.528077,-0.58763 -2.303009,0.65902 c -1.266765,0.36268 -3.226356,0.92278 -4.355428,1.24412 -1.450442,0.4128 -2.053639,0.67704 -2.053639,0.89996 0,0.17347 -0.181344,0.62216 -0.403394,0.99682 -0.222043,0.37464 -0.729961,0.84179 -1.128276,1.0389 -0.468173,0.23166 -0.969436,0.31704 -1.419213,0.24092 -0.38267,-0.0648 -0.911312,-0.26447 -1.173508,-0.44361 -0.262196,-0.17922 -0.633369,-0.57564 -0.825124,-0.88083 -0.191766,-0.30517 -0.355258,-0.96407 -0.364277,-1.46466 -0.01612,-0.89819 -0.03994,-0.92744 -1.777376,-2.2473 l -1.760262,-1.33719 -0.831234,0.45508 c -0.62144,0.3407 -1.180406,0.45635 -2.213775,0.45635 h -1.382538 l -1.471775,2.29575 c -1.184755,1.84825 -1.471775,2.45045 -1.471775,3.08991 0,0.56488 -0.141817,0.94204 -0.491409,1.3066 -0.3027,0.31566 -0.72169,0.51242 -1.090384,0.51242 -0.341217,0 -0.835762,-0.21234 -1.150282,-0.49458 -0.420305,-0.377 -0.552526,-0.68194 -0.552526,-1.27983 0,-0.59787 0.132223,-0.90407 0.552526,-1.28107 0.303559,-0.27228 0.704511,-0.49719 0.891132,-0.4997 0.209113,-0.002 0.929679,-0.93811 1.878837,-2.43852 l 1.540231,-2.4347 -0.367946,-0.53921 c -0.202327,-0.29633 -0.471551,-0.94183 -0.598977,-1.43533 -0.127438,-0.49351 -0.204559,-1.09692 -0.171128,-1.33971 0.05338,-0.38791 -0.336975,-0.6143 -3.219813,-1.87001 -2.499118,-1.08858 -3.345734,-1.37363 -3.549861,-1.19696 -0.147408,0.12769 -0.585911,0.24091 -0.974258,0.25238 -0.424016,0.0116 -0.925427,-0.15024 -1.256633,-0.40663 -0.303333,-0.23476 -0.628289,-0.74601 -0.721218,-1.13704 -0.103785,-0.43666 -0.08747,-0.92867 0.04158,-1.27473 0.115543,-0.30985 0.450734,-0.72731 0.744443,-0.92797 0.293702,-0.20062 0.857534,-0.3559 1.254188,-0.34416 0.539006,0.016 0.861677,0.1852 1.277412,0.67049 0.305943,0.35705 0.556195,0.77739 0.556195,0.93437 0,0.17002 1.265101,0.8445 3.131799,1.66859 1.721976,0.76016 3.240274,1.38177 3.373837,1.38177 0.133557,0 0.413589,-0.20155 0.623425,-0.44741 0.20985,-0.24596 0.742675,-0.62013 1.183288,-0.83111 0.440614,-0.21098 1.16196,-0.38112 1.602571,-0.37861 0.440614,0.002 1.160737,0.13874 1.60135,0.30341 l 0.801899,0.29955 2.249223,-2.34419 c 2.228489,-2.32267 1.885082,-2.00332 2.350685,-2.436 l -0.350832,-1.50289 -3.986261,-2.08032 c -3.757694,-1.96112 -4.011188,-2.06218 -4.42266,-1.76166 -0.240054,0.17531 -0.784758,0.31869 -1.211403,0.31869 -0.426643,0 -1.032631,-0.1576 -1.34587,-0.35056 -0.313235,-0.19303 -0.723398,-0.64965 -0.911912,-1.01467 -0.245452,-0.47528 -0.309401,-0.92372 -0.224918,-1.58062 0.08557,-0.66556 0.285998,-1.0741 0.729775,-1.48762 0.336413,-0.31346 0.854786,-0.63362 1.151504,-0.71128 0.308255,-0.0807 0.880164,-0.0138 1.334866,0.15298 0.437685,0.16129 0.970718,0.54004 1.184509,0.84132 0.213808,0.30128 0.448379,0.85361 0.521967,1.22882 0.125965,0.64222 0.36313,0.80576 4.043715,2.78653 l 4.21607,2.37735 0.613647,-0.50224 c 0.397823,-0.19696 0.499969,-0.27511 1.031711,-0.25114 0.08994,0.004 0.590139,-1.18376 1.563454,-3.31552 0.773578,-1.69428 1.510923,-3.40454 1.506004,-3.57686 -0.245215,-0.4835 -0.226255,-0.44198 -0.282377,-0.88973 -0.07069,-0.37185 -0.03493,-0.83211 0.03547,-1.1243 0.07034,-0.2922 0.418739,-0.71629 0.773783,-0.942 0.355042,-0.22571 0.87537,-0.36797 1.16984,-0.3684 z m 1.197957,3.76426 c -0.631213,0.40407 -1.04484,0.29182 -1.229741,0.3365 -0.03968,0.01 -0.335814,0.76844 -1.501114,3.38691 -1.15493,2.59522 -1.391816,3.29543 -1.216289,3.58959 0.119938,0.20109 0.264147,0.36378 0.32027,0.36078 0.05614,-0.002 2.202655,-0.55799 4.771042,-1.23267 2.568392,-0.67467 4.726756,-1.28462 4.795488,-1.35629 -0.01865,-0.12469 -0.01978,-0.12722 0.0111,-0.3123 -0.158682,-0.1622 -4.409739,-3.6046 -5.950664,-4.77252 z m 6.928586,6.99305 c -0.14375,-0.0575 -2.536305,0.48451 -5.316235,1.20461 -2.779933,0.72011 -5.106482,1.36319 -5.170772,1.43023 -0.06428,0.0668 0.177664,0.38433 0.537859,0.70494 0.360182,0.3206 2.552875,2.23612 4.872504,4.25626 4.03375,3.51294 4.241282,3.66285 4.777156,3.45191 l 0.561086,-0.2204 v -5.36144 c 0,-4.21752 -0.05593,-5.38372 -0.261598,-5.46599 z m 2.213776,0.0636 c -0.08262,-0.002 -0.150353,2.43166 -0.150353,5.40862 0,4.14303 0.05899,5.43293 0.250594,5.50167 0.137698,0.0495 0.530153,-0.15415 0.872792,-0.45252 0.342633,-0.29828 1.850276,-1.71406 3.349385,-3.14727 l 2.724743,-2.60552 -3.448402,-2.35059 c -1.896833,-1.29275 -3.516149,-2.35228 -3.598759,-2.35439 z m -14.10288,4.31874 c -0.214038,0.0855 -0.267707,1.21929 -0.267707,5.65718 v 5.54881 l 0.649097,0.56344 c 0.356396,0.31027 0.739038,0.53072 0.850793,0.48949 0.111747,-0.0411 1.997244,-0.58924 4.190402,-1.21862 2.193165,-0.6294 4.221262,-1.21469 4.234411,-1.33972 0.03987,-0.37918 0.166802,-1.04758 0.414395,-1.27346 -0.417584,-0.32229 -0.481349,-0.37655 -5.014305,-4.34293 -2.725142,-2.38453 -4.9048,-4.14514 -5.057086,-4.08419 z m -2.090313,0.0626 c -0.07214,0 -1.173183,1.03717 -2.44603,2.30466 l -2.314013,2.30469 0.310491,0.77503 c 0.217742,0.54343 0.28126,1.16941 0.210264,2.0918 l -0.101468,1.3168 1.729702,1.33717 c 1.240333,0.95873 1.843502,1.30396 2.130649,1.21734 0.220319,-0.0665 0.413463,-0.13344 0.429064,-0.14794 0.01564,-0.0138 0.0628,-2.53988 0.105124,-5.61257 0.04231,-3.07268 0.0184,-5.58705 -0.0538,-5.58705 z"
       id="rect1211"
       sodipodi:nodetypes="sssscsccssscssssccscscsssssssscscsccccssscsssscssccccscscccccccsccscscsccccccccsccscsccscscscccccccssssssscssccccscccsssscsscsccsscscssccsccscsccccsscccsscsssccccccsscss" />
  </g>
  <g
     inkscape:groupmode="layer"
     id="layer4"
     inkscape:label="Ebene 4"
     transform="translate(63.855532,-182.60996)">
    <path
       inkscape:connector-curvature="0"
       style="display:inline;fill:url(#linearGradient37);fill-opacity:1;stroke-width:0.26693"
       d="m -14.634339,193.73093 v 3.17813 c 0,2.46397 -2.088966,4.53781 -4.471078,4.53781 h -7.148719 c -1.958153,0 -3.57853,1.67592 -3.57853,3.63693 v 6.81505 c 0,1.9396 1.686621,3.08046 3.57853,3.63692 2.265523,0.66616 4.438042,0.78655 7.148719,0 1.801819,-0.52168 3.578531,-1.57157 3.578531,-3.63692 v -2.72769 h -7.14872 v -0.90923 h 7.14872 3.578531 c 2.080042,0 2.855151,-1.45087 3.578528,-3.62858 0.747225,-2.24191 0.715431,-4.39788 0,-7.27384 -0.514048,-2.07069 -1.495841,-3.62858 -3.578528,-3.62858 z m -4.020633,17.2587 c 0.741926,0 1.342992,0.6079 1.342992,1.35967 -1e-6,0.75443 -0.601066,1.36802 -1.342992,1.36802 -0.739276,0 -1.342992,-0.61359 -1.342992,-1.36802 0,-0.75177 0.603715,-1.35967 1.342992,-1.35967 z"
       id="path1950-6"
       clip-path="url(#clipPath51)"
       inkscape:path-effect="#path-effect51"
       inkscape:original-d="m -14.634339,193.73093 v 3.17813 c 0,2.46397 -2.088966,4.53781 -4.471078,4.53781 h -7.148719 c -1.958153,0 -3.57853,1.67592 -3.57853,3.63693 v 6.81505 c 0,1.9396 1.686621,3.08046 3.57853,3.63692 2.265523,0.66616 4.438042,0.78655 7.148719,0 1.801819,-0.52168 3.578531,-1.57157 3.578531,-3.63692 v -2.72769 h -7.14872 v -0.90923 h 7.14872 3.578531 c 2.080042,0 2.855151,-1.45087 3.578528,-3.62858 0.747225,-2.24191 0.715431,-4.39788 0,-7.27384 -0.514048,-2.07069 -1.495841,-3.62858 -3.578528,-3.62858 z m -4.020633,17.2587 c 0.741926,0 1.342992,0.6079 1.342992,1.35967 -1e-6,0.75443 -0.601066,1.36802 -1.342992,1.36802 -0.739276,0 -1.342992,-0.61359 -1.342992,-1.36802 0,-0.75177 0.603715,-1.35967 1.342992,-1.35967 z"
       transform="translate(1.6956183,10.930154)" />
    <path
       inkscape:connector-curvature="0"
       style="display:inline;fill:url(#linearGradient43);fill-opacity:1;stroke-width:0.26693"
       d="m -22.834095,186.08171 c -1.223514,0.006 -2.391943,0.11004 -3.420041,0.29196 -3.028645,0.53506 -3.57853,1.65499 -3.57853,3.72034 v 2.72769 h 7.15706 v 0.90923 h -7.15706 -2.685983 c -2.080041,0 -3.901384,1.25022 -4.471078,3.62858 -0.657133,2.72615 -0.68628,4.4273 0,7.27384 0.50875,2.11885 1.723713,3.62858 3.803753,3.62858 h 2.460761 v -3.26989 c 0,-2.36231 2.043921,-4.44606 4.471077,-4.44606 h 7.148719 c 1.98995,0 3.578531,-1.63845 3.578531,-3.63692 v -6.81505 c 0,-1.93961 -1.636276,-3.39662 -3.578531,-3.72034 -1.229476,-0.20466 -2.505164,-0.29764 -3.728678,-0.29196 z m -3.870485,2.19384 c 0.739276,0 1.342992,0.61357 1.342992,1.36802 -10e-7,0.75175 -0.603716,1.35967 -1.342992,1.35967 -0.741925,0 -1.342991,-0.60792 -1.342991,-1.35967 0,-0.75445 0.601066,-1.36802 1.342991,-1.36802 z"
       id="path1948-6-8"
       clip-path="url(#clipPath49)"
       inkscape:path-effect="#path-effect50"
       inkscape:original-d="m -22.834095,186.08171 c -1.223514,0.006 -2.391943,0.11004 -3.420041,0.29196 -3.028645,0.53506 -3.57853,1.65499 -3.57853,3.72034 v 2.72769 h 7.15706 v 0.90923 h -7.15706 -2.685983 c -2.080041,0 -3.901384,1.25022 -4.471078,3.62858 -0.657133,2.72615 -0.68628,4.4273 0,7.27384 0.50875,2.11885 1.723713,3.62858 3.803753,3.62858 h 2.460761 v -3.26989 c 0,-2.36231 2.043921,-4.44606 4.471077,-4.44606 h 7.148719 c 1.98995,0 3.578531,-1.63845 3.578531,-3.63692 v -6.81505 c 0,-1.93961 -1.636276,-3.39662 -3.578531,-3.72034 -1.229476,-0.20466 -2.505164,-0.29764 -3.728678,-0.29196 z m -3.870485,2.19384 c 0.739276,0 1.342992,0.61357 1.342992,1.36802 -10e-7,0.75175 -0.603716,1.35967 -1.342992,1.35967 -0.741925,0 -1.342991,-0.60792 -1.342991,-1.35967 0,-0.75445 0.601066,-1.36802 1.342991,-1.36802 z"
       transform="translate(1.6956183,10.930154)" />
  </g>
</svg>
