<svg xmlns="http://www.w3.org/2000/svg" viewBox="0 0 300 300" width="300px" height="300px"><path fill="#db45f9" d="M 5.0 5.0 h 24.5 v 24.5 h -24.5 Z M 34.5 5.0 h 24.5 v 24.5 h -24.5 Z M 64.0 5.0 h 24.5 v 24.5 h -24.5 Z M 93.5 5.0 h 24.5 v 24.5 h -24.5 Z M 123.0 5.0 h 24.5 v 24.5 h -24.5 Z M 152.5 5.0 h 24.5 v 24.5 h -24.5 Z M 182.0 5.0 h 24.5 v 24.5 h -24.5 Z M 211.5 5.0 h 24.5 v 24.5 h -24.5 Z M 241.0 5.0 h 24.5 v 24.5 h -24.5 Z M 270.5 5.0 h 24.5 v 24.5 h -24.5 Z M 5.0 34.5 h 24.5 v 24.5 h -24.5 Z M 34.5 34.5 h 24.5 v 24.5 h -24.5 Z M 64.0 34.5 h 24.5 v 24.5 h -24.5 Z M 93.5 34.5 h 24.5 v 24.5 h -24.5 Z M 123.0 34.5 h 24.5 v 24.5 h -24.5 Z M 152.5 34.5 h 24.5 v 24.5 h -24.5 Z M 182.0 34.5 h 24.5 v 24.5 h -24.5 Z M 211.5 34.5 h 24.5 v 24.5 h -24.5 Z M 241.0 34.5 h 24.5 v 24.5 h -24.5 Z M 270.5 34.5 h 24.5 v 24.5 h -24.5 Z M 5.0 64.0 h 24.5 v 24.5 h -24.5 Z M 34.5 64.0 h 24.5 v 24.5 h -24.5 Z M 64.0 64.0 h 24.5 v 24.5 h -24.5 Z M 93.5 64.0 h 24.5 v 24.5 h -24.5 Z M 123.0 64.0 h 24.5 v 24.5 h -24.5 Z M 152.5 64.0 h 24.5 v 24.5 h -24.5 Z M 182.0 64.0 h 24.5 v 24.5 h -24.5 Z M 211.5 64.0 h 24.5 v 24.5 h -24.5 Z M 241.0 64.0 h 24.5 v 24.5 h -24.5 Z M 270.5 64.0 h 24.5 v 24.5 h -24.5 Z M 5.0 93.5 h 24.5 v 24.5 h -24.5 Z M 34.5 93.5 h 24.5 v 24.5 h -24.5 Z M 64.0 93.5 h 24.5 v 24.5 h -24.5 Z M 93.5 93.5 h 24.5 v 24.5 h -24.5 Z M 123.0 93.5 h 24.5 v 24.5 h -24.5 Z M 152.5 93.5 h 24.5 v 24.5 h -24.5 Z M 182.0 93.5 h 24.5 v 24.5 h -24.5 Z M 211.5 93.5 h 24.5 v 24.5 h -24.5 Z M 241.0 93.5 h 24.5 v 24.5 h -24.5 Z M 270.5 93.5 h 24.5 v 24.5 h -24.5 Z M 5.0 123.0 h 24.5 v 24.5 h -24.5 Z M 34.5 123.0 h 24.5 v 24.5 h -24.5 Z M 64.0 123.0 h 24.5 v 24.5 h -24.5 Z " /><path fill="#78ee51" d="M 93.5 123.0 h 24.5 v 24.5 h -24.5 Z M 123.0 123.0 h 24.5 v 24.5 h -24.5 Z M 152.5 123.0 h 24.5 v 24.5 h -24.5 Z M 182.0 123.0 h 24.5 v 24.5 h -24.5 Z M 211.5 123.0 h 24.5 v 24.5 h -24.5 Z M 241.0 123.0 h 24.5 v 24.5 h -24.5 Z M 270.5 123.0 h 24.5 v 24.5 h -24.5 Z M 5.0 152.5 h 24.5 v 24.5 h -24.5 Z M 34.5 152.5 h 24.5 v 24.5 h -24.5 Z M 64.0 152.5 h 24.5 v 24.5 h -24.5 Z M 93.5 152.5 h 24.5 v 24.5 h -24.5 Z M 123.0 152.5 h 24.5 v 24.5 h -24.5 Z M 152.5 152.5 h 24.5 v 24.5 h -24.5 Z M 182.0 152.5 h 24.5 v 24.5 h -24.5 Z M 211.5 152.5 h 24.5 v 24.5 h -24.5 Z M 241.0 152.5 h 24.5 v 24.5 h -24.5 Z M 270.5 152.5 h 24.5 v 24.5 h -24.5 Z M 5.0 182.0 h 24.5 v 24.5 h -24.5 Z M 34.5 182.0 h 24.5 v 24.5 h -24.5 Z M 64.0 182.0 h 24.5 v 24.5 h -24.5 Z M 93.5 182.0 h 24.5 v 24.5 h -24.5 Z M 123.0 182.0 h 24.5 v 24.5 h -24.5 Z M 152.5 182.0 h 24.5 v 24.5 h -24.5 Z M 182.0 182.0 h 24.5 v 24.5 h -24.5 Z M 211.5 182.0 h 24.5 v 24.5 h -24.5 Z M 241.0 182.0 h 24.5 v 24.5 h -24.5 Z M 270.5 182.0 h 24.5 v 24.5 h -24.5 Z M 5.0 211.5 h 24.5 v 24.5 h -24.5 Z M 34.5 211.5 h 24.5 v 24.5 h -24.5 Z M 64.0 211.5 h 24.5 v 24.5 h -24.5 Z M 93.5 211.5 h 24.5 v 24.5 h -24.5 Z M 123.0 211.5 h 24.5 v 24.5 h -24.5 Z M 152.5 211.5 h 24.5 v 24.5 h -24.5 Z M 182.0 211.5 h 24.5 v 24.5 h -24.5 Z M 211.5 211.5 h 24.5 v 24.5 h -24.5 Z M 241.0 211.5 h 24.5 v 24.5 h -24.5 Z " /><path fill="#05154a" d="M 270.5 211.5 h 24.5 v 24.5 h -24.5 Z M 5.0 241.0 h 24.5 v 24.5 h -24.5 Z M 34.5 241.0 h 24.5 v 24.5 h -24.5 Z M 64.0 241.0 h 24.5 v 24.5 h -24.5 Z M 93.5 241.0 h 24.5 v 24.5 h -24.5 Z M 123.0 241.0 h 24.5 v 24.5 h -24.5 Z M 152.5 241.0 h 24.5 v 24.5 h -24.5 Z M 182.0 241.0 h 24.5 v 24.5 h -24.5 Z M 211.5 241.0 h 24.5 v 24.5 h -24.5 Z M 241.0 241.0 h 24.5 v 24.5 h -24.5 Z M 270.5 241.0 h 24.5 v 24.5 h -24.5 Z M 5.0 270.5 h 24.5 v 24.5 h -24.5 Z M 34.5 270.5 h 24.5 v 24.5 h -24.5 Z M 64.0 270.5 h 24.5 v 24.5 h -24.5 Z M 93.5 270.5 h 24.5 v 24.5 h -24.5 Z M 123.0 270.5 h 24.5 v 24.5 h -24.5 Z M 152.5 270.5 h 24.5 v 24.5 h -24.5 Z M 182.0 270.5 h 24.5 v 24.5 h -24.5 Z M 211.5 270.5 h 24.5 v 24.5 h -24.5 Z M 241.0 270.5 h 24.5 v 24.5 h -24.5 Z M 270.5 270.5 h 24.5 v 24.5 h -24.5 Z " /></svg>