<?xml version="1.0" encoding="UTF-8" standalone="no"?>
<svg xmlns="http://www.w3.org/2000/svg" xmlns:xlink="http://www.w3.org/1999/xlink" version="1.1" width="448" height="357.9" viewBox="204.38721 119.75 448 357.9"><g fill="none" fill-rule="nonzero" stroke="none" stroke-width="1" stroke-linecap="butt" stroke-linejoin="miter" stroke-miterlimit="10" font-family="none" font-weight="none" font-size="none"><path d="M204.38721,377.35l112,-56l112,56l-112,56z" id="Path-1" fill="#9ca3af"/><path d="M204.38721,377.35v-44.8l112,-56v44.8z" id="Path-1-1" fill="#d1d5db"/><path d="M428.38721,377.35v-44.8l-112,-56v44.8z" id="Path-1-2" fill="#6b7280"/><path d="M316.38721,298.95l112,-56l112,56l-112,56z" id="Path-1-3" fill="#9ca3af"/><path d="M316.38721,298.95v-44.8l112,-56v44.8z" id="Path-1-4" fill="#d1d5db"/><path d="M540.38721,298.95v-44.8l-112,-56v44.8z" id="Path-1-5" fill="#6b7280"/><path d="M428.38721,242.95v-44.8l112,56v44.8z" id="Path-1-6" fill-opacity="0" fill="#000000"/><path d="M428.38721,220.55l112,-56l112,56l-112,56z" id="Path-1-7" fill="#9ca3af"/><path d="M428.38721,220.55v-44.8l112,-56v44.8z" id="Path-1-8" fill="#d1d5db"/><path d="M652.38721,220.55v-44.8l-112,-56v44.8z" id="Path-1-9" fill="#6b7280"/><path d="M540.38721,164.55v-44.8l112,56v44.8z" id="Path-1-10" fill-opacity="0" fill="#000000"/><path d="M505.47211,361.10755l-77.0849,38.54245v-44.8l112,-56v44.8z" id="Path-1402-1" fill="#d1d5db"/><path d="M316.38721,477.65v-44.8l112,-56v44.8z" id="Path-3491-1" fill="#d1d5db"/><path d="M316.61279,477.65v-44.8l-112,-56v44.8z" id="Path-5383-1" fill="#6b7280"/><path d="M428.38721,421.85754v-44.8l112,-56v44.8z" id="Path-6646-1" fill="#d1d5db"/><path d="M540.38721,321.05062v-44.8l112,-56v44.8z" id="Path-8631-1" fill="#d1d5db"/><path d="M540.38721,365.7665v-44.8l112,-56v44.8z" id="Path-21371-1" fill="#d1d5db"/></g></svg>